SplineFontDB: 3.2
FontName: Krub-Italic
FullName: Krub Italic
FamilyName: Krub
Weight: Book
Copyright: Copyright 2018 The Krub Project Authors (https://github.com/cadsondemak/Krub)
Version: 1.000; ttfautohint (v1.6)
ItalicAngle: -8
UnderlinePosition: -100
UnderlineWidth: 50
Ascent: 800
Descent: 200
InvalidEm: 0
sfntRevision: 0x00010000
LayerCount: 2
Layer: 0 1 "Back" 1
Layer: 1 1 "Fore" 0
XUID: [1021 226 -1497385041 3648711]
StyleMap: 0x0001
FSType: 0
OS2Version: 3
OS2_WeightWidthSlopeOnly: 0
OS2_UseTypoMetrics: 0
CreationTime: 1534948280
ModificationTime: 1627862834
PfmFamily: 81
TTFWeight: 400
TTFWidth: 5
LineGap: 0
VLineGap: 0
Panose: 0 0 5 0 0 0 0 0 0 0
OS2TypoAscent: 1007
OS2TypoAOffset: 0
OS2TypoDescent: -293
OS2TypoDOffset: 0
OS2TypoLinegap: 0
OS2WinAscent: 1232
OS2WinAOffset: 0
OS2WinDescent: 507
OS2WinDOffset: 0
HheadAscent: 1007
HheadAOffset: 0
HheadDescent: -293
HheadDOffset: 0
OS2SubXSize: 650
OS2SubYSize: 600
OS2SubXOff: -11
OS2SubYOff: 75
OS2SupXSize: 650
OS2SupYSize: 600
OS2SupXOff: 49
OS2SupYOff: 350
OS2StrikeYSize: 50
OS2StrikeYPos: 330
OS2CapHeight: 700
OS2XHeight: 550
OS2Vendor: 'CDK '
OS2CodePages: 20010193.00000000
OS2UnicodeRanges: 21000007.00000001.00000000.00000000
Lookup: 1 0 0 "'aalt' Access All Alternates lookup 0" { "'aalt' Access All Alternates lookup 0 subtable"  } ['aalt' ('DFLT' <'dflt' > 'latn' <'CAT ' 'MOL ' 'ROM ' 'dflt' > 'thai' <'dflt' > ) ]
Lookup: 3 0 0 "'aalt' Access All Alternates lookup 1" { "'aalt' Access All Alternates lookup 1 subtable"  } ['aalt' ('DFLT' <'dflt' > 'latn' <'CAT ' 'MOL ' 'ROM ' 'dflt' > 'thai' <'dflt' > ) ]
Lookup: 6 0 0 "'ccmp' Glyph Composition/Decomposition in Latin lookup 2" { "'ccmp' Glyph Composition/Decomposition in Latin lookup 2 contextual 0"  "'ccmp' Glyph Composition/Decomposition in Latin lookup 2 contextual 1"  } ['ccmp' ('latn' <'dflt' > ) ]

StartChar: A
Encoding: 65 65 4
Width: 620
GlyphClass: 2
Flags: W
AnchorPoint: "Anchor-10" 0 0 basechar 0
AnchorPoint: "Anchor-9" 345 660 basechar 0
AnchorPoint: "Anchor-8" 548 0 basechar 0
AnchorPoint: "Anchor-7" 253 0 basechar 0
LayerCount: 2
Fore
SplineSet
452 203 m 1,1,-1
 111 203 l 1,2,3
 71 110 71 110 32 0 c 1,4,-1
 -42 0 l 1,5,6
 39 213 39 213 123.5 380 c 128,-1,7
 208 547 208 547 314 700 c 1,8,-1
 389 700 l 1,9,10
 451 547 451 547 488.5 381 c 128,-1,11
 526 215 526 215 548 0 c 1,12,-1
 474 0 l 1,13,0
 465 115 465 115 452 203 c 1,1,-1
443 263 m 1,14,15
 410 457 410 457 341 627 c 1,16,17
 227 461 227 461 137 263 c 1,18,-1
 443 263 l 1,14,15
EndSplineSet
Substitution2: "Single Substitution lookup 20 subtable" ordfeminine
Substitution2: "'aalt' Access All Alternates lookup 0 subtable" ordfeminine
EndChar

StartChar: AE
Encoding: 198 198 28
Width: 930
GlyphClass: 2
Flags: W
AnchorPoint: "Anchor-10" 0 0 basechar 0
AnchorPoint: "Anchor-9" 566 700 basechar 0
AnchorPoint: "Anchor-8" 0 0 basechar 0
AnchorPoint: "Anchor-7" 408 0 basechar 0
LayerCount: 2
Fore
SplineSet
568 640 m 1,0,-1
 534 403 l 1,1,-1
 830 403 l 1,2,-1
 822 343 l 1,3,-1
 526 343 l 1,4,-1
 486 60 l 1,5,-1
 820 60 l 1,6,7
 815 24 815 24 803 12 c 128,-1,8
 791 0 791 0 760 0 c 2,9,-1
 413 0 l 1,10,-1
 442 206 l 1,11,-1
 124 206 l 1,12,13
 63 94 63 94 32 0 c 1,14,-1
 -42 0 l 1,15,16
 22 188 22 188 154.5 373.5 c 128,-1,17
 287 559 287 559 466 700 c 1,18,-1
 915 700 l 1,19,-1
 907 640 l 1,20,-1
 568 640 l 1,0,-1
450 266 m 1,21,-1
 503 640 l 1,22,-1
 494 640 l 1,23,24
 402 571 402 571 315.5 473.5 c 128,-1,25
 229 376 229 376 160 266 c 1,26,-1
 450 266 l 1,21,-1
EndSplineSet
EndChar

StartChar: B
Encoding: 66 66 30
Width: 615
GlyphClass: 2
Flags: W
AnchorPoint: "Anchor-10" 0 0 basechar 0
AnchorPoint: "Anchor-9" 343 660 basechar 0
AnchorPoint: "Anchor-8" 0 0 basechar 0
AnchorPoint: "Anchor-7" 251 0 basechar 0
LayerCount: 2
Fore
SplineSet
517 301.5 m 128,-1,1
 544 261 544 261 544 209 c 0,2,3
 544 109 544 109 475 54.5 c 128,-1,4
 406 0 406 0 279 0 c 2,5,-1
 29 0 l 1,6,-1
 127 700 l 1,7,-1
 357 700 l 2,8,9
 452 700 452 700 504.5 657 c 128,-1,10
 557 614 557 614 557 535 c 0,11,12
 557 474 557 474 525.5 425 c 128,-1,13
 494 376 494 376 445 358 c 1,14,0
 490 342 490 342 517 301.5 c 128,-1,1
451.5 614.5 m 128,-1,16
 419 640 419 640 349 640 c 2,17,-1
 190 640 l 1,18,-1
 155 385 l 1,19,-1
 315 385 l 2,20,21
 401 385 401 385 442.5 422.5 c 128,-1,22
 484 460 484 460 484 536 c 0,23,15
 484 589 484 589 451.5 614.5 c 128,-1,16
426.5 95 m 128,-1,25
 472 130 472 130 472 211 c 0,26,27
 472 272 472 272 434 300 c 128,-1,28
 396 328 396 328 313 328 c 2,29,-1
 147 328 l 1,30,-1
 109 60 l 1,31,-1
 277 60 l 2,32,24
 381 60 381 60 426.5 95 c 128,-1,25
EndSplineSet
EndChar

StartChar: C
Encoding: 67 67 31
Width: 596
GlyphClass: 2
Flags: W
AnchorPoint: "Anchor-10" 0 0 basechar 0
AnchorPoint: "Anchor-9" 387 660 basechar 0
AnchorPoint: "Anchor-8" 0 0 basechar 0
AnchorPoint: "Anchor-7" 295 0 basechar 0
LayerCount: 2
Fore
SplineSet
106.5 63.5 m 128,-1,1
 37 137 37 137 37 272 c 0,2,3
 37 405 37 405 78.5 504 c 128,-1,4
 120 603 120 603 197 656.5 c 128,-1,5
 274 710 274 710 378 710 c 0,6,7
 440 710 440 710 493.5 689 c 128,-1,8
 547 668 547 668 576 633 c 1,9,10
 554 594 554 594 533 594 c 0,11,12
 521 594 521 594 508 603 c 0,13,14
 448 645 448 645 378 645 c 0,15,16
 296 645 296 645 236 600 c 128,-1,17
 176 555 176 555 144 470 c 128,-1,18
 112 385 112 385 112 268 c 0,19,20
 112 56 112 56 311 56 c 0,21,22
 353 56 353 56 390 69.5 c 128,-1,23
 427 83 427 83 467 112 c 1,24,25
 480 111 480 111 487.5 101.5 c 128,-1,26
 495 92 495 92 494 78 c 0,27,28
 491 55 491 55 463 34.5 c 128,-1,29
 435 14 435 14 392.5 2 c 128,-1,30
 350 -10 350 -10 303 -10 c 0,31,0
 176 -10 176 -10 106.5 63.5 c 128,-1,1
EndSplineSet
EndChar

StartChar: Ccedilla
Encoding: 199 199 34
Width: 596
GlyphClass: 2
Flags: W
AnchorPoint: "Anchor-10" 0 0 basechar 0
AnchorPoint: "Anchor-9" 0 0 basechar 0
AnchorPoint: "Anchor-8" 0 0 basechar 0
AnchorPoint: "Anchor-7" 265 -214 basechar 0
LayerCount: 2
Fore
SplineSet
493.5 689 m 128,-1,1
 547 668 547 668 576 633 c 1,2,3
 554 594 554 594 533 594 c 0,4,5
 521 594 521 594 508 603 c 0,6,7
 448 645 448 645 378 645 c 0,8,9
 296 645 296 645 236 600 c 128,-1,10
 176 555 176 555 144 470 c 128,-1,11
 112 385 112 385 112 268 c 0,12,13
 112 56 112 56 311 56 c 0,14,15
 353 56 353 56 390 69.5 c 128,-1,16
 427 83 427 83 467 112 c 1,17,18
 480 111 480 111 487.5 101.5 c 128,-1,19
 495 92 495 92 494 78 c 0,20,21
 489 45 489 45 438 19.5 c 128,-1,22
 387 -6 387 -6 321 -10 c 1,23,-1
 277 -55 l 1,24,-1
 284 -55 l 2,25,26
 322 -55 322 -55 345 -73 c 128,-1,27
 368 -91 368 -91 368 -123 c 0,28,29
 368 -173 368 -173 328 -201 c 128,-1,30
 288 -229 288 -229 233 -229 c 0,31,32
 190 -229 190 -229 167.5 -219.5 c 128,-1,33
 145 -210 145 -210 145 -192 c 0,34,35
 145 -185 145 -185 150 -173 c 1,36,37
 191 -184 191 -184 233 -184 c 0,38,39
 265 -184 265 -184 284 -170 c 128,-1,40
 303 -156 303 -156 303 -133 c 0,41,42
 303 -120 303 -120 291.5 -110 c 128,-1,43
 280 -100 280 -100 258 -100 c 0,44,45
 239 -100 239 -100 217 -107 c 1,46,-1
 204 -75 l 1,47,-1
 265 -8 l 1,48,49
 155 3 155 3 96 75.5 c 128,-1,50
 37 148 37 148 37 272 c 0,51,52
 37 405 37 405 78.5 504 c 128,-1,53
 120 603 120 603 197 656.5 c 128,-1,54
 274 710 274 710 378 710 c 0,55,0
 440 710 440 710 493.5 689 c 128,-1,1
EndSplineSet
EndChar

StartChar: D
Encoding: 68 68 37
Width: 672
GlyphClass: 2
Flags: W
AnchorPoint: "Anchor-10" 0 0 basechar 0
AnchorPoint: "Anchor-9" 370 650 basechar 0
AnchorPoint: "Anchor-8" 0 0 basechar 0
AnchorPoint: "Anchor-7" 279 0 basechar 0
LayerCount: 2
Fore
SplineSet
540 626.5 m 128,-1,1
 613 553 613 553 613 419 c 0,2,3
 613 292 613 292 568 197.5 c 128,-1,4
 523 103 523 103 440 51.5 c 128,-1,5
 357 0 357 0 246 0 c 2,6,-1
 29 0 l 1,7,-1
 127 700 l 1,8,-1
 334 700 l 2,9,0
 467 700 467 700 540 626.5 c 128,-1,1
461.5 154.5 m 128,-1,11
 539 249 539 249 539 418 c 0,12,13
 539 527 539 527 485 583.5 c 128,-1,14
 431 640 431 640 326 640 c 2,15,-1
 191 640 l 1,16,-1
 109 60 l 1,17,-1
 244 60 l 2,18,10
 384 60 384 60 461.5 154.5 c 128,-1,11
EndSplineSet
EndChar

StartChar: Eth
Encoding: 208 208 38
Width: 672
GlyphClass: 2
Flags: W
AnchorPoint: "Anchor-10" 0 0 basechar 0
AnchorPoint: "Anchor-9" 370 650 basechar 0
AnchorPoint: "Anchor-8" 0 0 basechar 0
AnchorPoint: "Anchor-7" 279 0 basechar 0
LayerCount: 2
Fore
SplineSet
540 626.5 m 128,-1,1
 613 553 613 553 613 419 c 0,2,3
 613 292 613 292 568 197.5 c 128,-1,4
 523 103 523 103 440 51.5 c 128,-1,5
 357 0 357 0 246 0 c 2,6,-1
 29 0 l 1,7,-1
 75 327 l 1,8,-1
 -10 327 l 1,9,-1
 -2 384 l 1,10,-1
 83 384 l 1,11,-1
 127 700 l 1,12,-1
 334 700 l 2,13,0
 467 700 467 700 540 626.5 c 128,-1,1
461.5 154.5 m 128,-1,15
 539 249 539 249 539 418 c 0,16,17
 539 527 539 527 485 583.5 c 128,-1,18
 431 640 431 640 326 640 c 2,19,-1
 191 640 l 1,20,-1
 155 384 l 1,21,-1
 343 384 l 1,22,-1
 335 327 l 1,23,-1
 147 327 l 1,24,-1
 109 60 l 1,25,-1
 244 60 l 2,26,14
 384 60 384 60 461.5 154.5 c 128,-1,15
EndSplineSet
EndChar

StartChar: Dcroat
Encoding: 272 272 40
Width: 672
GlyphClass: 2
Flags: W
AnchorPoint: "Anchor-10" 0 0 basechar 0
AnchorPoint: "Anchor-9" 370 650 basechar 0
AnchorPoint: "Anchor-8" 0 0 basechar 0
AnchorPoint: "Anchor-7" 279 0 basechar 0
LayerCount: 2
Fore
SplineSet
540 626.5 m 128,-1,1
 613 553 613 553 613 419 c 0,2,3
 613 292 613 292 568 197.5 c 128,-1,4
 523 103 523 103 440 51.5 c 128,-1,5
 357 0 357 0 246 0 c 2,6,-1
 29 0 l 1,7,-1
 75 327 l 1,8,-1
 -10 327 l 1,9,-1
 -2 384 l 1,10,-1
 83 384 l 1,11,-1
 127 700 l 1,12,-1
 334 700 l 2,13,0
 467 700 467 700 540 626.5 c 128,-1,1
461.5 154.5 m 128,-1,15
 539 249 539 249 539 418 c 0,16,17
 539 527 539 527 485 583.5 c 128,-1,18
 431 640 431 640 326 640 c 2,19,-1
 191 640 l 1,20,-1
 155 384 l 1,21,-1
 343 384 l 1,22,-1
 335 327 l 1,23,-1
 147 327 l 1,24,-1
 109 60 l 1,25,-1
 244 60 l 2,26,14
 384 60 384 60 461.5 154.5 c 128,-1,15
EndSplineSet
EndChar

StartChar: E
Encoding: 69 69 43
Width: 560
GlyphClass: 2
Flags: W
AnchorPoint: "Anchor-10" 0 0 basechar 0
AnchorPoint: "Anchor-9" 317 670 basechar 0
AnchorPoint: "Anchor-8" 436 10 basechar 0
AnchorPoint: "Anchor-7" 223 0 basechar 0
LayerCount: 2
Fore
SplineSet
191 640 m 1,0,-1
 155 388 l 1,1,-1
 453 388 l 1,2,-1
 445 328 l 1,3,-1
 147 328 l 1,4,-1
 109 60 l 1,5,-1
 456 60 l 1,6,7
 451 23 451 23 439.5 11.5 c 128,-1,8
 428 0 428 0 396 0 c 2,9,-1
 29 0 l 1,10,-1
 127 700 l 1,11,-1
 545 700 l 1,12,-1
 537 640 l 1,13,-1
 191 640 l 1,0,-1
EndSplineSet
EndChar

StartChar: Eogonek
Encoding: 280 280 59
Width: 560
GlyphClass: 2
Flags: W
AnchorPoint: "Anchor-10" 0 0 basechar 0
AnchorPoint: "Anchor-9" 317 670 basechar 0
AnchorPoint: "Anchor-8" 436 10 basechar 0
AnchorPoint: "Anchor-7" 223 0 basechar 0
LayerCount: 2
Fore
SplineSet
191 640 m 1,0,-1
 155 388 l 1,1,-1
 453 388 l 1,2,-1
 445 328 l 1,3,-1
 147 328 l 1,4,-1
 109 60 l 1,5,-1
 456 60 l 1,6,7
 452 34 452 34 445.5 21 c 128,-1,8
 439 8 439 8 426 4 c 1,9,10
 391 -20 391 -20 369 -50.5 c 128,-1,11
 347 -81 347 -81 347 -108 c 0,12,13
 347 -132 347 -132 358 -144 c 128,-1,14
 369 -156 369 -156 393 -156 c 0,15,16
 422 -156 422 -156 447 -146 c 1,17,18
 451 -154 451 -154 451 -166 c 0,19,20
 449 -180 449 -180 429.5 -190 c 128,-1,21
 410 -200 410 -200 377 -200 c 0,22,23
 334 -200 334 -200 309 -179.5 c 128,-1,24
 284 -159 284 -159 284 -125 c 0,25,26
 284 -49 284 -49 375 0 c 1,27,-1
 29 0 l 1,28,-1
 127 700 l 1,29,-1
 545 700 l 1,30,-1
 537 640 l 1,31,-1
 191 640 l 1,0,-1
EndSplineSet
EndChar

StartChar: F
Encoding: 70 70 61
Width: 530
GlyphClass: 2
Flags: W
AnchorPoint: "Anchor-10" 0 0 basechar 0
AnchorPoint: "Anchor-9" 327 660 basechar 0
AnchorPoint: "Anchor-8" 0 0 basechar 0
AnchorPoint: "Anchor-7" 65 0 basechar 0
LayerCount: 2
Fore
SplineSet
191 640 m 1,0,-1
 156 393 l 1,1,-1
 453 393 l 1,2,-1
 445 333 l 1,3,-1
 148 333 l 1,4,-1
 101 0 l 1,5,-1
 29 0 l 1,6,-1
 127 700 l 1,7,-1
 539 700 l 1,8,-1
 531 640 l 1,9,-1
 191 640 l 1,0,-1
EndSplineSet
EndChar

StartChar: G
Encoding: 71 71 62
Width: 666
GlyphClass: 2
Flags: W
AnchorPoint: "Anchor-10" 0 0 basechar 0
AnchorPoint: "Anchor-9" 412 660 basechar 0
AnchorPoint: "Anchor-8" 0 0 basechar 0
AnchorPoint: "Anchor-7" 320 0 basechar 0
LayerCount: 2
Fore
SplineSet
253 603 m 128,-1,1
 189 559 189 559 155 476 c 128,-1,2
 121 393 121 393 121 279 c 0,3,4
 121 168 121 168 173 110.5 c 128,-1,5
 225 53 225 53 326 53 c 0,6,7
 379 53 379 53 421.5 66 c 128,-1,8
 464 79 464 79 489 103 c 1,9,-1
 519 311 l 1,10,-1
 377 311 l 2,11,12
 361 311 361 311 354 319 c 128,-1,13
 347 327 347 327 347 347 c 0,14,15
 347 360 347 360 349 373 c 1,16,-1
 599 373 l 1,17,-1
 557 73 l 1,18,19
 518 33 518 33 458.5 11.5 c 128,-1,20
 399 -10 399 -10 328 -10 c 0,21,22
 193 -10 193 -10 120 65 c 128,-1,23
 47 140 47 140 47 279 c 0,24,25
 47 413 47 413 90.5 510 c 128,-1,26
 134 607 134 607 216 658.5 c 128,-1,27
 298 710 298 710 410 710 c 0,28,29
 481 710 481 710 542 683 c 128,-1,30
 603 656 603 656 629 613 c 1,31,32
 615 594 615 594 604.5 586 c 128,-1,33
 594 578 594 578 584 578 c 256,34,35
 574 578 574 578 568 580.5 c 128,-1,36
 562 583 562 583 554 590 c 0,37,38
 522 619 522 619 486 633 c 128,-1,39
 450 647 450 647 405 647 c 0,40,0
 317 647 317 647 253 603 c 128,-1,1
EndSplineSet
EndChar

StartChar: H
Encoding: 72 72 69
Width: 680
GlyphClass: 2
Flags: W
AnchorPoint: "Anchor-10" 0 0 basechar 0
AnchorPoint: "Anchor-9" 374 650 basechar 0
AnchorPoint: "Anchor-8" 0 0 basechar 0
AnchorPoint: "Anchor-7" 283 0 basechar 0
LayerCount: 2
Fore
SplineSet
635 700 m 1,0,-1
 537 0 l 1,1,-1
 465 0 l 1,2,-1
 511 330 l 1,3,-1
 147 330 l 1,4,-1
 101 0 l 1,5,-1
 29 0 l 1,6,-1
 127 700 l 1,7,-1
 199 700 l 1,8,-1
 156 390 l 1,9,-1
 520 390 l 1,10,-1
 563 700 l 1,11,-1
 635 700 l 1,0,-1
EndSplineSet
EndChar

StartChar: Hbar
Encoding: 294 294 70
Width: 680
GlyphClass: 2
Flags: W
AnchorPoint: "Anchor-10" 0 0 basechar 0
AnchorPoint: "Anchor-9" 374 650 basechar 0
AnchorPoint: "Anchor-8" 0 0 basechar 0
AnchorPoint: "Anchor-7" 283 0 basechar 0
LayerCount: 2
Fore
SplineSet
686 524 m 1,0,-1
 610 524 l 1,1,-1
 537 0 l 1,2,-1
 465 0 l 1,3,-1
 511 330 l 1,4,-1
 147 330 l 1,5,-1
 101 0 l 1,6,-1
 29 0 l 1,7,-1
 102 524 l 1,8,-1
 26 524 l 1,9,-1
 35 584 l 1,10,-1
 111 584 l 1,11,-1
 127 700 l 1,12,-1
 199 700 l 1,13,-1
 183 584 l 1,14,-1
 547 584 l 1,15,-1
 563 700 l 1,16,-1
 635 700 l 1,17,-1
 619 584 l 1,18,-1
 695 584 l 1,19,-1
 686 524 l 1,0,-1
538 524 m 1,20,-1
 174 524 l 1,21,-1
 156 390 l 1,22,-1
 520 390 l 1,23,-1
 538 524 l 1,20,-1
EndSplineSet
EndChar

StartChar: I
Encoding: 73 73 74
Width: 350
GlyphClass: 2
Flags: W
AnchorPoint: "Anchor-10" 0 0 basechar 0
AnchorPoint: "Anchor-9" 210 660 basechar 0
AnchorPoint: "Anchor-8" 154 0 basechar 0
AnchorPoint: "Anchor-7" 118 0 basechar 0
LayerCount: 2
Fore
SplineSet
180 700 m 1,0,-1
 252 700 l 1,1,-1
 154 0 l 1,2,-1
 82 0 l 1,3,-1
 180 700 l 1,0,-1
EndSplineSet
EndChar

StartChar: J
Encoding: 74 74 88
Width: 427
GlyphClass: 2
Flags: W
AnchorPoint: "Anchor-10" 0 0 basechar 0
AnchorPoint: "Anchor-9" 338 660 basechar 0
AnchorPoint: "Anchor-8" 0 0 basechar 0
AnchorPoint: "Anchor-7" 157 0 basechar 0
LayerCount: 2
Fore
SplineSet
20 -1.5 m 128,-1,1
 -14 7 -14 7 -31 17 c 1,2,3
 -28 44 -28 44 -18 57 c 128,-1,4
 -8 70 -8 70 4 70 c 0,5,6
 8 70 8 70 36.5 61 c 128,-1,7
 65 52 65 52 99 52 c 0,8,9
 218 52 218 52 235 183 c 2,10,-1
 308 700 l 1,11,-1
 380 700 l 1,12,-1
 307 183 l 2,13,14
 295 94 295 94 236.5 42 c 128,-1,15
 178 -10 178 -10 88 -10 c 0,16,0
 54 -10 54 -10 20 -1.5 c 128,-1,1
EndSplineSet
EndChar

StartChar: K
Encoding: 75 75 90
Width: 610
GlyphClass: 2
Flags: W
AnchorPoint: "Anchor-10" 0 0 basechar 0
AnchorPoint: "Anchor-9" 340 660 basechar 0
AnchorPoint: "Anchor-8" 0 0 basechar 0
AnchorPoint: "Anchor-7" 278 0 basechar 0
LayerCount: 2
Fore
SplineSet
385 289 m 2,1,-1
 528 3 l 1,2,3
 504 -8 504 -8 484 -8 c 0,4,5
 466 -8 466 -8 456 -1.5 c 128,-1,6
 446 5 446 5 438 22 c 2,7,-1
 320 268 l 2,8,9
 303 305 303 305 279 317.5 c 128,-1,10
 255 330 255 330 200 330 c 2,11,-1
 161 330 l 1,12,-1
 115 0 l 1,13,-1
 43 0 l 1,14,-1
 141 700 l 1,15,-1
 213 700 l 1,16,-1
 170 392 l 1,17,-1
 229 392 l 2,18,19
 247 392 247 392 255 391 c 1,20,-1
 535 700 l 1,21,-1
 618 700 l 1,22,-1
 317 371 l 1,23,0
 354 349 354 349 385 289 c 2,1,-1
EndSplineSet
EndChar

StartChar: L
Encoding: 76 76 92
Width: 513
GlyphClass: 2
Flags: W
AnchorPoint: "Anchor-10" 534 700 basechar 0
AnchorPoint: "Anchor-9" 163 700 basechar 0
AnchorPoint: "Anchor-8" 0 0 basechar 0
AnchorPoint: "Anchor-7" 235 0 basechar 0
LayerCount: 2
Fore
SplineSet
449 60 m 1,0,-1
 441 0 l 1,1,-1
 29 0 l 1,2,-1
 127 700 l 1,3,-1
 199 700 l 1,4,-1
 109 60 l 1,5,-1
 449 60 l 1,0,-1
EndSplineSet
EndChar

StartChar: Lslash
Encoding: 321 321 100
Width: 547
GlyphClass: 2
Flags: W
AnchorPoint: "Anchor-10" 554 700 basechar 0
AnchorPoint: "Anchor-9" 183 700 basechar 0
AnchorPoint: "Anchor-8" 0 0 basechar 0
AnchorPoint: "Anchor-7" 255 0 basechar 0
LayerCount: 2
Fore
SplineSet
469 60 m 1,0,-1
 461 0 l 1,1,-1
 49 0 l 1,2,-1
 98 353 l 1,3,-1
 4 317 l 1,4,-1
 14 386 l 1,5,-1
 108 422 l 1,6,-1
 147 700 l 1,7,-1
 219 700 l 1,8,-1
 184 450 l 1,9,-1
 386 527 l 1,10,-1
 376 458 l 1,11,-1
 174 382 l 1,12,-1
 129 60 l 1,13,-1
 469 60 l 1,0,-1
EndSplineSet
EndChar

StartChar: M
Encoding: 77 77 101
Width: 829
GlyphClass: 2
Flags: W
AnchorPoint: "Anchor-10" 0 0 basechar 0
AnchorPoint: "Anchor-9" 450 660 basechar 0
AnchorPoint: "Anchor-8" 0 0 basechar 0
AnchorPoint: "Anchor-7" 358 0 basechar 0
LayerCount: 2
Fore
SplineSet
723 512 m 0,1,2
 723 288 723 288 696 0 c 1,3,-1
 624 0 l 1,4,5
 652 292 652 292 652 516 c 0,6,7
 652 568 652 568 651 592 c 1,8,9
 598 497 598 497 542 382 c 128,-1,10
 486 267 486 267 396 70 c 1,11,-1
 344 70 l 1,12,13
 316 226 316 226 290 347 c 128,-1,14
 264 468 264 468 231 595 c 1,15,16
 141 302 141 302 91 0 c 1,17,-1
 19 0 l 1,18,19
 51 191 51 191 95.5 372 c 128,-1,20
 140 553 140 553 190 700 c 1,21,-1
 270 700 l 1,22,23
 318 538 318 538 342.5 436.5 c 128,-1,24
 367 335 367 335 388 218 c 1,25,26
 437 331 437 331 489.5 431.5 c 128,-1,27
 542 532 542 532 637 700 c 1,28,-1
 717 700 l 1,29,0
 723 615 723 615 723 512 c 0,1,2
EndSplineSet
EndChar

StartChar: N
Encoding: 78 78 103
Width: 690
GlyphClass: 2
Flags: W
AnchorPoint: "Anchor-10" 0 0 basechar 0
AnchorPoint: "Anchor-9" 379 660 basechar 0
AnchorPoint: "Anchor-8" 0 0 basechar 0
AnchorPoint: "Anchor-7" 287 0 basechar 0
LayerCount: 2
Fore
SplineSet
641 700 m 1,0,-1
 562 137 l 1,1,-1
 559 114 l 2,2,3
 550 60 550 60 550 27 c 0,4,5
 550 14 550 14 541.5 7 c 128,-1,6
 533 0 533 0 521 0 c 2,7,-1
 471 0 l 1,8,-1
 478 54 l 2,9,10
 479 61 479 61 479 77 c 0,11,12
 479 125 479 125 455 165 c 2,13,-1
 185 600 l 1,14,-1
 101 0 l 1,15,-1
 29 0 l 1,16,-1
 127 700 l 1,17,-1
 185 700 l 2,18,19
 199 700 199 700 205.5 696 c 128,-1,20
 212 692 212 692 220 680 c 2,21,-1
 502 224 l 1,22,-1
 569 700 l 1,23,-1
 641 700 l 1,0,-1
EndSplineSet
EndChar

StartChar: Eng
Encoding: 330 330 109
Width: 685
Flags: W
LayerCount: 2
Fore
SplineSet
640 700 m 1,0,-1
 537 -33 l 2,1,2
 527 -108 527 -108 478.5 -150 c 128,-1,3
 430 -192 430 -192 358 -192 c 0,4,5
 328 -192 328 -192 301.5 -181.5 c 128,-1,6
 275 -171 275 -171 275 -151 c 0,7,8
 275 -139 275 -139 282 -128.5 c 128,-1,9
 289 -118 289 -118 295 -118 c 0,10,11
 331 -134 331 -134 374 -134 c 0,12,13
 410 -134 410 -134 433.5 -110.5 c 128,-1,14
 457 -87 457 -87 464 -42 c 2,15,-1
 477 54 l 2,16,17
 479 70 479 70 479 78 c 0,18,19
 479 123 479 123 454 165 c 2,20,-1
 185 602 l 1,21,-1
 101 0 l 1,22,-1
 29 0 l 1,23,-1
 127 700 l 1,24,-1
 185 700 l 2,25,26
 198 700 198 700 205 696.5 c 128,-1,27
 212 693 212 693 220 680 c 2,28,-1
 501 224 l 1,29,-1
 568 700 l 1,30,-1
 640 700 l 1,0,-1
EndSplineSet
EndChar

StartChar: O
Encoding: 79 79 112
Width: 680
GlyphClass: 2
Flags: W
AnchorPoint: "Anchor-10" 515 639 basechar 0
AnchorPoint: "Anchor-9" 375 660 basechar 0
AnchorPoint: "Anchor-8" 386 31 basechar 0
AnchorPoint: "Anchor-7" 283 0 basechar 0
LayerCount: 2
Fore
SplineSet
153 25.5 m 128,-1,1
 95 61 95 61 64 127 c 128,-1,2
 33 193 33 193 33 283 c 0,3,4
 33 412 33 412 75 508.5 c 128,-1,5
 117 605 117 605 194.5 657.5 c 128,-1,6
 272 710 272 710 377 710 c 0,7,8
 496 710 496 710 563.5 635 c 128,-1,9
 631 560 631 560 631 428 c 0,10,11
 631 290 631 290 591 191.5 c 128,-1,12
 551 93 551 93 474 41.5 c 128,-1,13
 397 -10 397 -10 289 -10 c 0,14,0
 211 -10 211 -10 153 25.5 c 128,-1,1
488 151 m 128,-1,16
 557 248 557 248 557 424 c 0,17,18
 557 531 557 531 509 588.5 c 128,-1,19
 461 646 461 646 372 646 c 0,20,21
 292 646 292 646 232 601.5 c 128,-1,22
 172 557 172 557 139.5 475.5 c 128,-1,23
 107 394 107 394 107 284 c 0,24,25
 107 176 107 176 156.5 115 c 128,-1,26
 206 54 206 54 294 54 c 0,27,15
 419 54 419 54 488 151 c 128,-1,16
EndSplineSet
Substitution2: "Single Substitution lookup 20 subtable" ordmasculine
Substitution2: "'aalt' Access All Alternates lookup 0 subtable" ordmasculine
EndChar

StartChar: Ohorn
Encoding: 416 416 126
Width: 680
GlyphClass: 2
Flags: W
AnchorPoint: "Anchor-10" 515 639 basechar 0
AnchorPoint: "Anchor-9" 375 660 basechar 0
AnchorPoint: "Anchor-8" 386 31 basechar 0
AnchorPoint: "Anchor-7" 283 0 basechar 0
LayerCount: 2
Fore
SplineSet
631.5 671 m 128,-1,1
 607 642 607 642 569 628 c 1,2,3
 631 554 631 554 631 428 c 0,4,5
 631 290 631 290 591 191.5 c 128,-1,6
 551 93 551 93 474 41.5 c 128,-1,7
 397 -10 397 -10 289 -10 c 0,8,9
 211 -10 211 -10 153 25.5 c 128,-1,10
 95 61 95 61 64 127 c 128,-1,11
 33 193 33 193 33 283 c 0,12,13
 33 412 33 412 75 508.5 c 128,-1,14
 117 605 117 605 194.5 657.5 c 128,-1,15
 272 710 272 710 377 710 c 0,16,17
 467 710 467 710 528 666 c 1,18,19
 553 669 553 669 571.5 687 c 128,-1,20
 590 705 590 705 594 733 c 0,21,22
 598 764 598 764 572 785 c 1,23,24
 577 798 577 798 589 808 c 128,-1,25
 601 818 601 818 615 818 c 0,26,27
 637 818 637 818 650 803.5 c 128,-1,28
 663 789 663 789 663 761 c 0,29,30
 663 749 663 749 662 743 c 0,31,0
 656 700 656 700 631.5 671 c 128,-1,1
488 151 m 128,-1,33
 557 248 557 248 557 424 c 0,34,35
 557 531 557 531 509 588.5 c 128,-1,36
 461 646 461 646 372 646 c 0,37,38
 292 646 292 646 232 601.5 c 128,-1,39
 172 557 172 557 139.5 475.5 c 128,-1,40
 107 394 107 394 107 284 c 0,41,42
 107 176 107 176 156.5 115 c 128,-1,43
 206 54 206 54 294 54 c 0,44,32
 419 54 419 54 488 151 c 128,-1,33
EndSplineSet
EndChar

StartChar: Oslash
Encoding: 216 216 134
Width: 680
GlyphClass: 2
Flags: W
AnchorPoint: "Anchor-10" 515 639 basechar 0
AnchorPoint: "Anchor-9" 375 660 basechar 0
AnchorPoint: "Anchor-8" 386 31 basechar 0
AnchorPoint: "Anchor-7" 283 0 basechar 0
LayerCount: 2
Fore
SplineSet
584 609 m 1,0,1
 631 535 631 535 631 428 c 0,2,3
 631 290 631 290 591 191.5 c 128,-1,4
 551 93 551 93 474 41.5 c 128,-1,5
 397 -10 397 -10 289 -10 c 0,6,7
 182 -10 182 -10 115 55 c 1,8,-1
 68 0 l 1,9,-1
 -4 0 l 1,10,-1
 80 99 l 1,11,12
 33 172 33 172 33 283 c 0,13,14
 33 412 33 412 75 508.5 c 128,-1,15
 117 605 117 605 194.5 657.5 c 128,-1,16
 272 710 272 710 377 710 c 256,17,18
 482 710 482 710 547 651 c 1,19,-1
 590 701 l 1,20,-1
 662 701 l 1,21,-1
 584 609 l 1,0,1
130 158 m 1,23,-1
 502 597 l 1,24,25
 455 646 455 646 372 646 c 0,26,27
 292 646 292 646 232 601.5 c 128,-1,28
 172 557 172 557 139.5 475.5 c 128,-1,29
 107 394 107 394 107 284 c 0,30,22
 107 212 107 212 130 158 c 1,23,-1
533 549 m 1,32,-1
 161 110 l 1,33,34
 211 54 211 54 294 54 c 0,35,36
 419 54 419 54 488 151 c 128,-1,37
 557 248 557 248 557 424 c 0,38,31
 557 500 557 500 533 549 c 1,32,-1
EndSplineSet
EndChar

StartChar: OE
Encoding: 338 338 137
Width: 1035
GlyphClass: 2
Flags: W
AnchorPoint: "Anchor-10" 515 639 basechar 0
AnchorPoint: "Anchor-9" 792 670 basechar 0
AnchorPoint: "Anchor-8" 911 10 basechar 0
AnchorPoint: "Anchor-7" 698 0 basechar 0
LayerCount: 2
Fore
SplineSet
666 640 m 1,0,-1
 630 388 l 1,1,-1
 928 388 l 1,2,-1
 920 328 l 1,3,-1
 625 328 l 1,4,5
 620 286 620 286 612 257 c 2,6,-1
 584 60 l 1,7,-1
 931 60 l 1,8,9
 926 23 926 23 914.5 11.5 c 128,-1,10
 903 0 903 0 871 0 c 2,11,-1
 504 0 l 1,12,-1
 514 75 l 1,13,14
 429 -10 429 -10 289 -10 c 0,15,16
 211 -10 211 -10 153 25.5 c 128,-1,17
 95 61 95 61 64 127 c 128,-1,18
 33 193 33 193 33 283 c 0,19,20
 33 412 33 412 75 508.5 c 128,-1,21
 117 605 117 605 194.5 657.5 c 128,-1,22
 272 710 272 710 377 710 c 0,23,24
 449 710 449 710 502.5 682 c 128,-1,25
 556 654 556 654 588 601 c 1,26,-1
 602 700 l 1,27,-1
 1020 700 l 1,28,-1
 1012 640 l 1,29,-1
 666 640 l 1,0,-1
457.5 115 m 128,-1,31
 522 176 522 176 545 290 c 1,32,-1
 555 361 l 2,33,34
 557 401 557 401 557 424 c 0,35,36
 557 531 557 531 509 588.5 c 128,-1,37
 461 646 461 646 372 646 c 0,38,39
 292 646 292 646 232 601.5 c 128,-1,40
 172 557 172 557 139.5 475.5 c 128,-1,41
 107 394 107 394 107 284 c 0,42,43
 107 176 107 176 156.5 115 c 128,-1,44
 206 54 206 54 294 54 c 0,45,30
 393 54 393 54 457.5 115 c 128,-1,31
EndSplineSet
EndChar

StartChar: P
Encoding: 80 80 138
Width: 615
GlyphClass: 2
Flags: W
AnchorPoint: "Anchor-10" 0 0 basechar 0
AnchorPoint: "Anchor-9" 343 660 basechar 0
AnchorPoint: "Anchor-8" 0 0 basechar 0
AnchorPoint: "Anchor-7" 251 0 basechar 0
LayerCount: 2
Fore
SplineSet
522 650.5 m 128,-1,1
 585 601 585 601 585 505 c 0,2,3
 585 380 585 380 510.5 315.5 c 128,-1,4
 436 251 436 251 292 251 c 2,5,-1
 136 251 l 1,6,-1
 101 0 l 1,7,-1
 29 0 l 1,8,-1
 127 700 l 1,9,-1
 335 700 l 2,10,0
 459 700 459 700 522 650.5 c 128,-1,1
456 359.5 m 128,-1,12
 512 406 512 406 512 505 c 0,13,14
 512 573 512 573 466 605.5 c 128,-1,15
 420 638 420 638 326 638 c 2,16,-1
 191 638 l 1,17,-1
 145 313 l 1,18,-1
 281 313 l 2,19,11
 400 313 400 313 456 359.5 c 128,-1,12
EndSplineSet
EndChar

StartChar: Thorn
Encoding: 222 222 139
Width: 641
GlyphClass: 2
Flags: W
AnchorPoint: "Anchor-10" 0 0 basechar 0
AnchorPoint: "Anchor-9" 362 700 basechar 0
AnchorPoint: "Anchor-8" 0 0 basechar 0
AnchorPoint: "Anchor-7" 264 0 basechar 0
LayerCount: 2
Fore
SplineSet
525.5 545 m 128,-1,1
 585 492 585 492 585 400 c 0,2,3
 585 273 585 273 510 200.5 c 128,-1,4
 435 128 435 128 298 128 c 2,5,-1
 142 128 l 1,6,-1
 124 0 l 1,7,-1
 52 0 l 1,8,-1
 150 700 l 1,9,-1
 222 700 l 1,10,-1
 208 598 l 1,11,-1
 344 598 l 2,12,0
 466 598 466 598 525.5 545 c 128,-1,1
455.5 244 m 128,-1,14
 511 300 511 300 511 400 c 0,15,16
 511 538 511 538 345 538 c 2,17,-1
 199 538 l 1,18,-1
 150 188 l 1,19,-1
 296 188 l 2,20,13
 400 188 400 188 455.5 244 c 128,-1,14
EndSplineSet
EndChar

StartChar: Q
Encoding: 81 81 140
Width: 680
GlyphClass: 2
Flags: W
AnchorPoint: "Anchor-10" 515 639 basechar 0
AnchorPoint: "Anchor-9" 390 660 basechar 0
AnchorPoint: "Anchor-8" 386 31 basechar 0
AnchorPoint: "Anchor-7" 301 0 basechar 0
LayerCount: 2
Fore
SplineSet
578.5 164 m 128,-1,1
 526 58 526 58 427 16 c 1,2,3
 443 -11 443 -11 475 -57 c 1,4,5
 463 -68 463 -68 447.5 -75 c 128,-1,6
 432 -82 432 -82 416 -82 c 0,7,8
 390 -82 390 -82 375 -53 c 2,9,-1
 351 -5 l 1,10,11
 318 -10 318 -10 289 -10 c 0,12,13
 211 -10 211 -10 153 25.5 c 128,-1,14
 95 61 95 61 64 127 c 128,-1,15
 33 193 33 193 33 283 c 0,16,17
 33 412 33 412 75 508.5 c 128,-1,18
 117 605 117 605 194.5 657.5 c 128,-1,19
 272 710 272 710 377 710 c 0,20,21
 496 710 496 710 563.5 635 c 128,-1,22
 631 560 631 560 631 428 c 0,23,0
 631 270 631 270 578.5 164 c 128,-1,1
515 197 m 128,-1,25
 557 287 557 287 557 424 c 0,26,27
 557 531 557 531 509 588.5 c 128,-1,28
 461 646 461 646 372 646 c 0,29,30
 292 646 292 646 232 601.5 c 128,-1,31
 172 557 172 557 139.5 475.5 c 128,-1,32
 107 394 107 394 107 284 c 0,33,34
 107 176 107 176 156.5 115 c 128,-1,35
 206 54 206 54 294 54 c 0,36,37
 313 54 313 54 322 55 c 1,38,-1
 278 149 l 1,39,-1
 354 149 l 1,40,41
 365 125 365 125 393 73 c 1,42,24
 473 107 473 107 515 197 c 128,-1,25
EndSplineSet
EndChar

StartChar: R
Encoding: 82 82 141
Width: 629
GlyphClass: 2
Flags: W
AnchorPoint: "Anchor-10" 0 0 basechar 0
AnchorPoint: "Anchor-9" 348 660 basechar 0
AnchorPoint: "Anchor-8" 0 0 basechar 0
AnchorPoint: "Anchor-7" 258 0 basechar 0
LayerCount: 2
Fore
SplineSet
420 240 m 2,1,-1
 528 3 l 1,2,3
 504 -8 504 -8 484 -8 c 0,4,5
 466 -8 466 -8 455 -1 c 128,-1,6
 444 6 444 6 438 22 c 2,7,-1
 351 218 l 2,8,9
 333 260 333 260 301 277.5 c 128,-1,10
 269 295 269 295 210 295 c 2,11,-1
 142 295 l 1,12,-1
 101 0 l 1,13,-1
 29 0 l 1,14,-1
 127 700 l 1,15,-1
 354 700 l 2,16,17
 465 700 465 700 526 655 c 128,-1,18
 587 610 587 610 587 528 c 0,19,20
 587 472 587 472 559.5 423.5 c 128,-1,21
 532 375 532 375 484 342.5 c 128,-1,22
 436 310 436 310 377 301 c 1,23,0
 402 277 402 277 420 240 c 2,1,-1
301 357 m 2,24,25
 400 357 400 357 456 401 c 128,-1,26
 512 445 512 445 512 523 c 0,27,28
 512 580 512 580 470 609 c 128,-1,29
 428 638 428 638 345 638 c 2,30,-1
 191 638 l 1,31,-1
 151 357 l 1,32,-1
 301 357 l 2,24,25
EndSplineSet
EndChar

StartChar: S
Encoding: 83 83 148
Width: 642
GlyphClass: 2
Flags: W
AnchorPoint: "Anchor-10" 0 0 basechar 0
AnchorPoint: "Anchor-9" 356 660 basechar 0
AnchorPoint: "Anchor-8" 0 0 basechar 0
AnchorPoint: "Anchor-7" 264 0 basechar 0
LayerCount: 2
Fore
SplineSet
152 9 m 128,-1,1
 96 28 96 28 64 62 c 128,-1,2
 32 96 32 96 32 138 c 0,3,4
 32 164 32 164 48.5 180 c 128,-1,5
 65 196 65 196 93 197 c 1,6,7
 99 127 99 127 147 89.5 c 128,-1,8
 195 52 195 52 279 52 c 0,9,10
 376 52 376 52 429 91.5 c 128,-1,11
 482 131 482 131 482 202 c 0,12,13
 482 241 482 241 466.5 265 c 128,-1,14
 451 289 451 289 414 307 c 128,-1,15
 377 325 377 325 307 343 c 0,16,17
 199 370 199 370 151.5 414 c 128,-1,18
 104 458 104 458 104 530 c 0,19,20
 104 583 104 583 135 624 c 128,-1,21
 166 665 166 665 221.5 687.5 c 128,-1,22
 277 710 277 710 349 710 c 0,23,24
 448 710 448 710 513 665.5 c 128,-1,25
 578 621 578 621 589 547 c 1,26,27
 581 540 581 540 568.5 536 c 128,-1,28
 556 532 556 532 545 532 c 0,29,30
 532 532 532 532 524 538 c 128,-1,31
 516 544 516 544 510 559 c 0,32,33
 491 604 491 604 449 627 c 128,-1,34
 407 650 407 650 344 650 c 0,35,36
 268 650 268 650 222.5 618 c 128,-1,37
 177 586 177 586 177 532 c 0,38,39
 177 499 177 499 190 477.5 c 128,-1,40
 203 456 203 456 234.5 439.5 c 128,-1,41
 266 423 266 423 325 407 c 0,42,43
 414 382 414 382 464.5 356 c 128,-1,44
 515 330 515 330 536.5 298 c 128,-1,45
 558 266 558 266 558 219 c 0,46,47
 558 110 558 110 484.5 50 c 128,-1,48
 411 -10 411 -10 278 -10 c 0,49,0
 208 -10 208 -10 152 9 c 128,-1,1
EndSplineSet
EndChar

StartChar: Scedilla
Encoding: 350 350 151
Width: 642
GlyphClass: 2
Flags: W
AnchorPoint: "Anchor-10" 0 0 basechar 0
AnchorPoint: "Anchor-9" 0 0 basechar 0
AnchorPoint: "Anchor-8" 0 0 basechar 0
AnchorPoint: "Anchor-7" 234 -214 basechar 0
LayerCount: 2
Fore
SplineSet
464.5 356 m 128,-1,1
 515 330 515 330 536.5 298 c 128,-1,2
 558 266 558 266 558 219 c 0,3,4
 558 113 558 113 488 53 c 128,-1,5
 418 -7 418 -7 290 -10 c 1,6,-1
 246 -55 l 1,7,-1
 253 -55 l 2,8,9
 291 -55 291 -55 314 -73 c 128,-1,10
 337 -91 337 -91 337 -123 c 0,11,12
 337 -173 337 -173 297 -201 c 128,-1,13
 257 -229 257 -229 202 -229 c 0,14,15
 159 -229 159 -229 136.5 -219.5 c 128,-1,16
 114 -210 114 -210 114 -192 c 0,17,18
 114 -185 114 -185 119 -173 c 1,19,20
 160 -184 160 -184 202 -184 c 0,21,22
 234 -184 234 -184 253 -170 c 128,-1,23
 272 -156 272 -156 272 -133 c 0,24,25
 272 -120 272 -120 260.5 -110 c 128,-1,26
 249 -100 249 -100 227 -100 c 0,27,28
 208 -100 208 -100 186 -107 c 1,29,-1
 173 -75 l 1,30,-1
 234 -8 l 1,31,32
 145 1 145 1 88.5 41 c 128,-1,33
 32 81 32 81 32 138 c 0,34,35
 32 164 32 164 48.5 180 c 128,-1,36
 65 196 65 196 93 197 c 1,37,38
 99 127 99 127 147 89.5 c 128,-1,39
 195 52 195 52 279 52 c 0,40,41
 376 52 376 52 429 91.5 c 128,-1,42
 482 131 482 131 482 202 c 0,43,44
 482 241 482 241 466.5 265 c 128,-1,45
 451 289 451 289 414 307 c 128,-1,46
 377 325 377 325 307 343 c 0,47,48
 199 370 199 370 151.5 414 c 128,-1,49
 104 458 104 458 104 530 c 0,50,51
 104 583 104 583 135 624 c 128,-1,52
 166 665 166 665 221.5 687.5 c 128,-1,53
 277 710 277 710 349 710 c 0,54,55
 448 710 448 710 513 665.5 c 128,-1,56
 578 621 578 621 589 547 c 1,57,58
 581 540 581 540 568.5 536 c 128,-1,59
 556 532 556 532 545 532 c 0,60,61
 532 532 532 532 524 538 c 128,-1,62
 516 544 516 544 510 559 c 0,63,64
 491 604 491 604 449 627 c 128,-1,65
 407 650 407 650 344 650 c 0,66,67
 268 650 268 650 222.5 618 c 128,-1,68
 177 586 177 586 177 532 c 0,69,70
 177 499 177 499 190 477.5 c 128,-1,71
 203 456 203 456 234.5 439.5 c 128,-1,72
 266 423 266 423 325 407 c 0,73,0
 414 382 414 382 464.5 356 c 128,-1,1
EndSplineSet
Substitution2: "'locl' Localized Forms in Latin lookup 7 subtable" uni0218
Substitution2: "'locl' Localized Forms in Latin lookup 6 subtable" uni0218
Substitution2: "'aalt' Access All Alternates lookup 0 subtable" uni0218
EndChar

StartChar: uni1E9E
Encoding: 7838 7838 156
Width: 700
Flags: W
LayerCount: 2
Fore
SplineSet
563 339 m 128,-1,1
 608 295 608 295 608 222 c 0,2,3
 608 115 608 115 542 52.5 c 128,-1,4
 476 -10 476 -10 359 -10 c 0,5,6
 301 -10 301 -10 248.5 8.5 c 128,-1,7
 196 27 196 27 196 62 c 0,8,9
 196 76 196 76 203.5 88 c 128,-1,10
 211 100 211 100 224 102 c 1,11,12
 254 77 254 77 287 64.5 c 128,-1,13
 320 52 320 52 362 52 c 0,14,15
 443 52 443 52 488.5 98.5 c 128,-1,16
 534 145 534 145 534 222 c 0,17,18
 534 286 534 286 492.5 316 c 128,-1,19
 451 346 451 346 375 346 c 0,20,21
 358 346 358 346 349.5 358.5 c 128,-1,22
 341 371 341 371 343 388 c 1,23,-1
 529 550 l 1,24,25
 508 646 508 646 364 646 c 0,26,27
 285 646 285 646 231 601 c 128,-1,28
 177 556 177 556 165 469 c 2,29,-1
 99 0 l 1,30,-1
 27 0 l 1,31,-1
 93 469 l 2,32,33
 109 582 109 582 182 645 c 128,-1,34
 255 708 255 708 366 708 c 0,35,36
 440 708 440 708 492.5 683.5 c 128,-1,37
 545 659 545 659 573 618.5 c 128,-1,38
 601 578 601 578 605 529 c 1,39,-1
 447 396 l 1,40,0
 518 383 518 383 563 339 c 128,-1,1
EndSplineSet
EndChar

StartChar: uni018F
Encoding: 399 399 157
Width: 692
Flags: W
LayerCount: 2
Fore
SplineSet
502 678.5 m 128,-1,1
 562 647 562 647 597 583 c 128,-1,2
 632 519 632 519 632 426 c 0,3,4
 632 298 632 298 594 200 c 128,-1,5
 556 102 556 102 477.5 46 c 128,-1,6
 399 -10 399 -10 282 -10 c 0,7,8
 166 -10 166 -10 94.5 53.5 c 128,-1,9
 23 117 23 117 23 242 c 0,10,11
 23 284 23 284 36 363 c 1,12,-1
 555 363 l 1,13,14
 558 393 558 393 558 424 c 0,15,16
 558 536 558 536 505.5 591.5 c 128,-1,17
 453 647 453 647 363 647 c 0,18,19
 255 647 255 647 188 592 c 0,20,21
 171 578 171 578 153 578 c 0,22,23
 128 578 128 578 113 613 c 1,24,25
 150 657 150 657 216.5 683.5 c 128,-1,26
 283 710 283 710 366 710 c 0,27,0
 442 710 442 710 502 678.5 c 128,-1,1
458 120 m 128,-1,29
 524 187 524 187 547 301 c 1,30,-1
 99 301 l 1,31,32
 95 276 95 276 95 249 c 0,33,34
 95 153 95 153 145 103 c 128,-1,35
 195 53 195 53 282 53 c 0,36,28
 392 53 392 53 458 120 c 128,-1,29
EndSplineSet
EndChar

StartChar: T
Encoding: 84 84 158
Width: 534
GlyphClass: 2
Flags: W
AnchorPoint: "Anchor-10" 0 0 basechar 0
AnchorPoint: "Anchor-9" 303 660 basechar 0
AnchorPoint: "Anchor-8" 0 0 basechar 0
AnchorPoint: "Anchor-7" 211 0 basechar 0
LayerCount: 2
Fore
SplineSet
561 682 m 0,1,2
 561 663 561 663 550 651.5 c 128,-1,3
 539 640 539 640 520 640 c 2,4,-1
 335 640 l 1,5,-1
 246 0 l 1,6,-1
 174 0 l 1,7,-1
 263 640 l 1,8,-1
 48 640 l 1,9,-1
 56 700 l 1,10,-1
 560 700 l 1,11,0
 561 694 561 694 561 682 c 0,1,2
EndSplineSet
EndChar

StartChar: Tbar
Encoding: 358 358 159
Width: 533
GlyphClass: 2
Flags: W
AnchorPoint: "Anchor-10" 0 0 basechar 0
AnchorPoint: "Anchor-9" 303 660 basechar 0
AnchorPoint: "Anchor-8" 0 0 basechar 0
AnchorPoint: "Anchor-7" 211 0 basechar 0
LayerCount: 2
Fore
SplineSet
561 682 m 0,1,2
 561 663 561 663 550 651.5 c 128,-1,3
 539 640 539 640 520 640 c 2,4,-1
 335 640 l 1,5,-1
 297 363 l 1,6,-1
 428 363 l 1,7,-1
 420 305 l 1,8,-1
 289 305 l 1,9,-1
 246 0 l 1,10,-1
 174 0 l 1,11,-1
 217 305 l 1,12,-1
 88 305 l 1,13,-1
 96 363 l 1,14,-1
 225 363 l 1,15,-1
 263 640 l 1,16,-1
 48 640 l 1,17,-1
 56 700 l 1,18,-1
 560 700 l 1,19,0
 561 694 561 694 561 682 c 0,1,2
EndSplineSet
EndChar

StartChar: U
Encoding: 85 85 165
Width: 708
GlyphClass: 2
Flags: W
AnchorPoint: "Anchor-10" 662 673 basechar 0
AnchorPoint: "Anchor-9" 388 650 basechar 0
AnchorPoint: "Anchor-8" 389 10 basechar 0
AnchorPoint: "Anchor-7" 297 0 basechar 0
LayerCount: 2
Fore
SplineSet
118 39.5 m 128,-1,1
 59 89 59 89 59 190 c 0,2,3
 59 214 59 214 64 251 c 2,4,-1
 127 700 l 1,5,-1
 199 700 l 1,6,-1
 135 241 l 2,7,8
 132 217 132 217 132 196 c 0,9,10
 132 122 132 122 174.5 87 c 128,-1,11
 217 52 217 52 306 52 c 0,12,13
 409 52 409 52 463 97.5 c 128,-1,14
 517 143 517 143 530 241 c 2,15,-1
 594 700 l 1,16,-1
 666 700 l 1,17,-1
 603 251 l 2,18,19
 584 117 584 117 510 53.5 c 128,-1,20
 436 -10 436 -10 297 -10 c 0,21,0
 177 -10 177 -10 118 39.5 c 128,-1,1
EndSplineSet
EndChar

StartChar: Uhorn
Encoding: 431 431 178
Width: 708
GlyphClass: 2
Flags: W
AnchorPoint: "Anchor-10" 662 673 basechar 0
AnchorPoint: "Anchor-9" 388 650 basechar 0
AnchorPoint: "Anchor-8" 389 10 basechar 0
AnchorPoint: "Anchor-7" 297 0 basechar 0
LayerCount: 2
Fore
SplineSet
666 700 m 1,0,1
 694 700 694 700 715.5 718.5 c 128,-1,2
 737 737 737 737 741 767 c 0,3,4
 745 798 745 798 719 819 c 1,5,6
 724 832 724 832 736 842 c 128,-1,7
 748 852 748 852 762 852 c 0,8,9
 784 852 784 852 797 837.5 c 128,-1,10
 810 823 810 823 810 795 c 0,11,12
 810 783 810 783 809 777 c 0,13,14
 801 719 801 719 760.5 686.5 c 128,-1,15
 720 654 720 654 659 650 c 1,16,-1
 666 700 l 1,0,1
118 39.5 m 128,-1,18
 59 89 59 89 59 190 c 0,19,20
 59 214 59 214 64 251 c 2,21,-1
 127 700 l 1,22,-1
 199 700 l 1,23,-1
 135 241 l 2,24,25
 132 217 132 217 132 196 c 0,26,27
 132 122 132 122 174.5 87 c 128,-1,28
 217 52 217 52 306 52 c 0,29,30
 409 52 409 52 463 97.5 c 128,-1,31
 517 143 517 143 530 241 c 2,32,-1
 594 700 l 1,33,-1
 666 700 l 1,34,-1
 603 251 l 2,35,36
 584 117 584 117 510 53.5 c 128,-1,37
 436 -10 436 -10 297 -10 c 0,38,17
 177 -10 177 -10 118 39.5 c 128,-1,18
EndSplineSet
EndChar

StartChar: Uogonek
Encoding: 370 370 186
Width: 708
GlyphClass: 2
Flags: W
AnchorPoint: "Anchor-10" 662 673 basechar 0
AnchorPoint: "Anchor-9" 388 650 basechar 0
AnchorPoint: "Anchor-8" 389 10 basechar 0
AnchorPoint: "Anchor-7" 297 0 basechar 0
LayerCount: 2
Fore
SplineSet
666 700 m 1,0,-1
 603 251 l 2,1,2
 586 134 586 134 528.5 71 c 128,-1,3
 471 8 471 8 366 -6 c 1,4,5
 336 -29 336 -29 318 -56 c 128,-1,6
 300 -83 300 -83 300 -108 c 0,7,8
 300 -132 300 -132 311 -144 c 128,-1,9
 322 -156 322 -156 346 -156 c 0,10,11
 375 -156 375 -156 400 -146 c 1,12,13
 404 -154 404 -154 404 -166 c 0,14,15
 402 -180 402 -180 382.5 -190 c 128,-1,16
 363 -200 363 -200 330 -200 c 0,17,18
 287 -200 287 -200 262 -179.5 c 128,-1,19
 237 -159 237 -159 237 -125 c 0,20,21
 237 -56 237 -56 311 -10 c 1,22,-1
 297 -10 l 2,23,24
 177 -10 177 -10 118 39.5 c 128,-1,25
 59 89 59 89 59 190 c 0,26,27
 59 214 59 214 64 251 c 2,28,-1
 127 700 l 1,29,-1
 199 700 l 1,30,-1
 135 241 l 2,31,32
 132 217 132 217 132 196 c 0,33,34
 132 122 132 122 174.5 87 c 128,-1,35
 217 52 217 52 306 52 c 0,36,37
 409 52 409 52 463 97.5 c 128,-1,38
 517 143 517 143 530 241 c 2,39,-1
 594 700 l 1,40,-1
 666 700 l 1,0,-1
EndSplineSet
EndChar

StartChar: V
Encoding: 86 86 189
Width: 638
GlyphClass: 2
Flags: W
AnchorPoint: "Anchor-10" 0 0 basechar 0
AnchorPoint: "Anchor-9" 354 660 basechar 0
AnchorPoint: "Anchor-8" 0 0 basechar 0
AnchorPoint: "Anchor-7" 262 0 basechar 0
LayerCount: 2
Fore
SplineSet
649 700 m 1,0,1
 592 517 592 517 506.5 345 c 128,-1,2
 421 173 421 173 300 0 c 1,3,-1
 225 0 l 1,4,5
 153 172 153 172 115.5 343.5 c 128,-1,6
 78 515 78 515 71 700 c 1,7,-1
 147 700 l 1,8,9
 153 378 153 378 273 79 c 1,10,11
 477 378 477 378 573 700 c 1,12,-1
 649 700 l 1,0,1
EndSplineSet
EndChar

StartChar: W
Encoding: 87 87 190
Width: 856
GlyphClass: 2
Flags: W
AnchorPoint: "Anchor-10" 0 0 basechar 0
AnchorPoint: "Anchor-9" 468 660 basechar 0
AnchorPoint: "Anchor-8" 0 0 basechar 0
AnchorPoint: "Anchor-7" 376 0 basechar 0
LayerCount: 2
Fore
SplineSet
882 700 m 1,0,1
 841 560 841 560 783 410 c 128,-1,2
 725 260 725 260 609 0 c 1,3,-1
 527 0 l 1,4,5
 493 212 493 212 477.5 330 c 128,-1,6
 462 448 462 448 453 551 c 1,7,8
 415 447 415 447 366 328.5 c 128,-1,9
 317 210 317 210 225 0 c 1,10,-1
 143 0 l 1,11,12
 99 240 99 240 79.5 397.5 c 128,-1,13
 60 555 60 555 56 700 c 1,14,-1
 128 700 l 1,15,16
 129 576 129 576 144 445 c 128,-1,17
 159 314 159 314 197 95 c 1,18,19
 252 213 252 213 304 336.5 c 128,-1,20
 356 460 356 460 451 700 c 1,21,-1
 493 700 l 1,22,-1
 496 676 l 2,23,24
 526 455 526 455 545.5 321.5 c 128,-1,25
 565 188 565 188 581 96 c 1,26,27
 674 302 674 302 726 436.5 c 128,-1,28
 778 571 778 571 814 700 c 1,29,-1
 882 700 l 1,0,1
EndSplineSet
EndChar

StartChar: X
Encoding: 88 88 195
Width: 582
GlyphClass: 2
Flags: W
AnchorPoint: "Anchor-10" 0 0 basechar 0
AnchorPoint: "Anchor-9" 336 660 basechar 0
AnchorPoint: "Anchor-8" 0 0 basechar 0
AnchorPoint: "Anchor-7" 244 0 basechar 0
LayerCount: 2
Fore
SplineSet
490.5 529 m 128,-1,1
 430 456 430 456 333 370 c 1,2,3
 383 312 383 312 417 262.5 c 128,-1,4
 451 213 451 213 474.5 147.5 c 128,-1,5
 498 82 498 82 501 0 c 1,6,-1
 424 0 l 1,7,8
 421 96 421 96 384 168.5 c 128,-1,9
 347 241 347 241 279 322 c 1,10,11
 188 241 188 241 130.5 168.5 c 128,-1,12
 73 96 73 96 44 0 c 1,13,-1
 -33 0 l 1,14,15
 -7 82 -7 82 35 147.5 c 128,-1,16
 77 213 77 213 124.5 262.5 c 128,-1,17
 172 312 172 312 238 370 c 1,18,19
 189 428 189 428 158.5 473 c 128,-1,20
 128 518 128 518 106 575 c 128,-1,21
 84 632 84 632 80 700 c 1,22,-1
 155 700 l 1,23,24
 161 617 161 617 195.5 553.5 c 128,-1,25
 230 490 230 490 292 417 c 1,26,27
 374 489 374 489 426.5 552.5 c 128,-1,28
 479 616 479 616 509 700 c 1,29,-1
 584 700 l 1,30,0
 551 602 551 602 490.5 529 c 128,-1,1
EndSplineSet
EndChar

StartChar: Y
Encoding: 89 89 196
Width: 590
GlyphClass: 2
Flags: W
AnchorPoint: "Anchor-10" 0 0 basechar 0
AnchorPoint: "Anchor-9" 330 660 basechar 0
AnchorPoint: "Anchor-8" 0 0 basechar 0
AnchorPoint: "Anchor-7" 238 0 basechar 0
LayerCount: 2
Fore
SplineSet
611 700 m 1,0,-1
 315 294 l 1,1,-1
 274 0 l 1,2,-1
 202 0 l 1,3,-1
 243 294 l 1,4,-1
 61 700 l 1,5,-1
 139 700 l 1,6,-1
 289 361 l 1,7,-1
 534 700 l 1,8,-1
 611 700 l 1,0,-1
EndSplineSet
EndChar

StartChar: Z
Encoding: 90 90 205
Width: 580
GlyphClass: 2
Flags: W
AnchorPoint: "Anchor-10" 0 0 basechar 0
AnchorPoint: "Anchor-9" 325 660 basechar 0
AnchorPoint: "Anchor-8" 0 0 basechar 0
AnchorPoint: "Anchor-7" 233 0 basechar 0
LayerCount: 2
Fore
SplineSet
552 636 m 1,0,-1
 90 60 l 1,1,-1
 479 60 l 1,2,-1
 471 0 l 1,3,-1
 -3 0 l 1,4,-1
 5 60 l 1,5,-1
 474 640 l 1,6,-1
 85 640 l 1,7,-1
 93 700 l 1,8,-1
 561 700 l 1,9,-1
 552 636 l 1,0,-1
EndSplineSet
EndChar

StartChar: a
Encoding: 97 97 210
Width: 558
GlyphClass: 2
Flags: W
AnchorPoint: "Anchor-10" 0 0 basechar 0
AnchorPoint: "Anchor-9" 297 550 basechar 0
AnchorPoint: "Anchor-8" 446 10 basechar 0
AnchorPoint: "Anchor-7" 222 0 basechar 0
LayerCount: 2
Fore
SplineSet
438 137 m 2,0,1
 434 110 434 110 434 87 c 0,2,3
 434 63 434 63 439 47.5 c 128,-1,4
 444 32 444 32 455 17 c 1,5,6
 444 7 444 7 429.5 1 c 128,-1,7
 415 -5 415 -5 403 -5 c 0,8,9
 383 -5 383 -5 372.5 16.5 c 128,-1,10
 362 38 362 38 364 81 c 1,11,12
 329 41 329 41 278.5 15.5 c 128,-1,13
 228 -10 228 -10 169 -10 c 0,14,15
 98 -10 98 -10 54.5 27.5 c 128,-1,16
 11 65 11 65 11 133 c 0,17,18
 11 231 11 231 110.5 282.5 c 128,-1,19
 210 334 210 334 399 341 c 1,20,-1
 403 373 l 2,21,22
 405 384 405 384 405 404 c 0,23,24
 405 454 405 454 376 479 c 128,-1,25
 347 504 347 504 287 504 c 0,26,27
 235 504 235 504 196 483.5 c 128,-1,28
 157 463 157 463 113 424 c 0,29,30
 105 418 105 418 97 418 c 0,31,32
 87 418 87 418 76 427 c 128,-1,33
 65 436 65 436 57 451 c 1,34,35
 164 560 164 560 297 560 c 0,36,37
 380 560 380 560 426.5 519 c 128,-1,38
 473 478 473 478 473 406 c 0,39,40
 473 384 473 384 471 373 c 2,41,-1
 438 137 l 2,0,1
282 76 m 128,-1,43
 331 106 331 106 373 160 c 1,44,-1
 391 286 l 1,45,46
 229 279 229 279 155 242.5 c 128,-1,47
 81 206 81 206 81 134 c 0,48,49
 81 46 81 46 182 46 c 0,50,42
 233 46 233 46 282 76 c 128,-1,43
EndSplineSet
Substitution2: "Single Substitution lookup 20 subtable" ordfeminine
Substitution2: "'aalt' Access All Alternates lookup 0 subtable" ordfeminine
EndChar

StartChar: uni0251
Encoding: 593 593 229
Width: 607
Flags: W
LayerCount: 2
Fore
SplineSet
496 316 m 2,0,1
 476 182 476 182 471 137.5 c 128,-1,2
 466 93 466 93 466 53 c 0,3,4
 466 28 466 28 474 8 c 1,5,6
 449 -4 449 -4 423 -4 c 0,7,8
 409 -4 409 -4 402 9 c 128,-1,9
 395 22 395 22 395 50 c 2,10,-1
 395 57 l 1,11,12
 360 23 360 23 318 6.5 c 128,-1,13
 276 -10 276 -10 219 -10 c 0,14,15
 130 -10 130 -10 74 47 c 128,-1,16
 18 104 18 104 18 225 c 0,17,18
 18 324 18 324 52 399.5 c 128,-1,19
 86 475 86 475 152.5 517.5 c 128,-1,20
 219 560 219 560 313 560 c 0,21,22
 358 560 358 560 395 546 c 128,-1,23
 432 532 432 532 456 512 c 1,24,25
 457 523 457 523 461 550 c 1,26,-1
 529 550 l 1,27,-1
 496 316 l 2,0,1
421 271 m 1,28,-1
 446 446 l 1,29,30
 426 472 426 472 388 489 c 128,-1,31
 350 506 350 506 308 506 c 0,32,33
 235 506 235 506 185.5 468 c 128,-1,34
 136 430 136 430 112 366.5 c 128,-1,35
 88 303 88 303 88 225 c 0,36,37
 88 46 88 46 229 46 c 0,38,39
 332 46 332 46 402 130 c 1,40,-1
 421 271 l 1,28,-1
EndSplineSet
EndChar

StartChar: aogonek
Encoding: 261 261 231
Width: 558
GlyphClass: 2
Flags: W
AnchorPoint: "Anchor-10" 0 0 basechar 0
AnchorPoint: "Anchor-9" 297 550 basechar 0
AnchorPoint: "Anchor-8" 446 10 basechar 0
AnchorPoint: "Anchor-7" 222 0 basechar 0
LayerCount: 2
Fore
SplineSet
438 137 m 2,0,1
 434 110 434 110 434 87 c 0,2,3
 434 63 434 63 439 47.5 c 128,-1,4
 444 32 444 32 455 17 c 1,5,-1
 446 10 l 1,6,-1
 446 10 l 1,7,8
 408 -13 408 -13 382.5 -46 c 128,-1,9
 357 -79 357 -79 357 -108 c 0,10,11
 357 -132 357 -132 368 -144 c 128,-1,12
 379 -156 379 -156 403 -156 c 0,13,14
 432 -156 432 -156 457 -146 c 1,15,16
 461 -154 461 -154 461 -166 c 0,17,18
 459 -180 459 -180 439.5 -190 c 128,-1,19
 420 -200 420 -200 387 -200 c 0,20,21
 344 -200 344 -200 319 -179.5 c 128,-1,22
 294 -159 294 -159 294 -125 c 0,23,24
 294 -50 294 -50 386 0 c 1,25,26
 361 18 361 18 364 81 c 1,27,28
 329 41 329 41 278.5 15.5 c 128,-1,29
 228 -10 228 -10 169 -10 c 0,30,31
 98 -10 98 -10 54.5 27.5 c 128,-1,32
 11 65 11 65 11 133 c 0,33,34
 11 231 11 231 110.5 282.5 c 128,-1,35
 210 334 210 334 399 341 c 1,36,-1
 403 373 l 2,37,38
 405 384 405 384 405 404 c 0,39,40
 405 454 405 454 376 479 c 128,-1,41
 347 504 347 504 287 504 c 0,42,43
 235 504 235 504 196 483.5 c 128,-1,44
 157 463 157 463 113 424 c 0,45,46
 105 418 105 418 97 418 c 0,47,48
 87 418 87 418 76 427 c 128,-1,49
 65 436 65 436 57 451 c 1,50,51
 164 560 164 560 297 560 c 0,52,53
 380 560 380 560 426.5 519 c 128,-1,54
 473 478 473 478 473 406 c 0,55,56
 473 384 473 384 471 373 c 2,57,-1
 438 137 l 2,0,1
282 76 m 128,-1,59
 331 106 331 106 373 160 c 1,60,-1
 391 286 l 1,61,62
 229 279 229 279 155 242.5 c 128,-1,63
 81 206 81 206 81 134 c 0,64,65
 81 46 81 46 182 46 c 0,66,58
 233 46 233 46 282 76 c 128,-1,59
EndSplineSet
EndChar

StartChar: ae
Encoding: 230 230 235
Width: 913
GlyphClass: 2
Flags: W
AnchorPoint: "Anchor-10" 0 0 basechar 0
AnchorPoint: "Anchor-9" 469 550 basechar 0
AnchorPoint: "Anchor-8" 0 0 basechar 0
AnchorPoint: "Anchor-7" 392 0 basechar 0
LayerCount: 2
Fore
SplineSet
458 268 m 1,0,1
 455 240 455 240 455 210 c 0,2,3
 455 129 455 129 491 87.5 c 128,-1,4
 527 46 527 46 597 46 c 0,5,6
 651 46 651 46 690 67 c 128,-1,7
 729 88 729 88 764 134 c 0,8,9
 775 148 775 148 786 148 c 0,10,11
 799 148 799 148 828 128 c 1,12,13
 799 62 799 62 738 25 c 128,-1,14
 677 -12 677 -12 589 -12 c 0,15,16
 523 -12 523 -12 476.5 13.5 c 128,-1,17
 430 39 430 39 406 91 c 1,18,19
 360 39 360 39 304 13.5 c 128,-1,20
 248 -12 248 -12 172 -12 c 0,21,22
 126 -12 126 -12 89 6.5 c 128,-1,23
 52 25 52 25 31.5 57.5 c 128,-1,24
 11 90 11 90 11 131 c 0,25,26
 11 209 11 209 60 250.5 c 128,-1,27
 109 292 109 292 191.5 306.5 c 128,-1,28
 274 321 274 321 396 322 c 1,29,30
 405 390 405 390 405 404 c 0,31,32
 405 454 405 454 376 479 c 128,-1,33
 347 504 347 504 287 504 c 0,34,35
 232 504 232 504 189.5 485.5 c 128,-1,36
 147 467 147 467 111 434 c 0,37,38
 105 428 105 428 95 428 c 0,39,40
 77 428 77 428 57 465 c 1,41,42
 159 560 159 560 292 560 c 0,43,44
 357 560 357 560 401.5 534.5 c 128,-1,45
 446 509 446 509 463 464 c 1,46,47
 499 510 499 510 551 535 c 128,-1,48
 603 560 603 560 668 560 c 0,49,50
 769 560 769 560 815.5 508.5 c 128,-1,51
 862 457 862 457 862 355 c 0,52,53
 862 318 862 318 850 268 c 1,54,-1
 458 268 l 1,0,1
533 456 m 128,-1,56
 485 406 485 406 467 322 c 1,57,-1
 794 322 l 1,58,59
 797 345 797 345 797 364 c 0,60,61
 797 430 797 430 763.5 468 c 128,-1,62
 730 506 730 506 658 506 c 0,63,55
 581 506 581 506 533 456 c 128,-1,56
303 72 m 128,-1,65
 352 100 352 100 388 156 c 1,66,67
 384 177 384 177 384 207 c 0,68,69
 384 238 384 238 387 266 c 1,70,71
 290 266 290 266 226 257.5 c 128,-1,72
 162 249 162 249 122 221 c 128,-1,73
 82 193 82 193 82 137 c 0,74,75
 82 98 82 98 109 71 c 128,-1,76
 136 44 136 44 180 44 c 0,77,64
 254 44 254 44 303 72 c 128,-1,65
EndSplineSet
EndChar

StartChar: b
Encoding: 98 98 237
Width: 610
Flags: W
LayerCount: 2
Fore
SplineSet
500 500 m 128,-1,1
 557 440 557 440 557 337 c 0,2,3
 557 239 557 239 527 160.5 c 128,-1,4
 497 82 497 82 435.5 36 c 128,-1,5
 374 -10 374 -10 284 -10 c 0,6,7
 230 -10 230 -10 187.5 6.5 c 128,-1,8
 145 23 145 23 118 55 c 1,9,10
 110 30 110 30 99 15 c 128,-1,11
 88 0 88 0 75 0 c 0,12,13
 44 0 44 0 26 12 c 1,14,15
 51 53 51 53 62 132 c 2,16,-1
 155 791 l 1,17,-1
 225 791 l 1,18,-1
 186 514 l 1,19,20
 260 560 260 560 349 560 c 0,21,0
 443 560 443 560 500 500 c 128,-1,1
395.5 87.5 m 128,-1,23
 442 127 442 127 464.5 192.5 c 128,-1,24
 487 258 487 258 487 337 c 0,25,26
 487 418 487 418 445 461 c 128,-1,27
 403 504 403 504 337 504 c 0,28,29
 257 504 257 504 177 447 c 1,30,-1
 131 123 l 1,31,32
 156 87 156 87 194 67.5 c 128,-1,33
 232 48 232 48 282 48 c 0,34,22
 349 48 349 48 395.5 87.5 c 128,-1,23
EndSplineSet
EndChar

StartChar: c
Encoding: 99 99 238
Width: 547
GlyphClass: 2
Flags: W
AnchorPoint: "Anchor-10" 0 0 basechar 0
AnchorPoint: "Anchor-9" 307 550 basechar 0
AnchorPoint: "Anchor-8" 0 0 basechar 0
AnchorPoint: "Anchor-7" 230 0 basechar 0
LayerCount: 2
Fore
SplineSet
80 54 m 128,-1,1
 17 118 17 118 17 227 c 0,2,3
 17 325 17 325 52.5 401 c 128,-1,4
 88 477 88 477 153 518.5 c 128,-1,5
 218 560 218 560 302 560 c 0,6,7
 396 560 396 560 449.5 513 c 128,-1,8
 503 466 503 466 500 387 c 1,9,10
 489 382 489 382 475.5 378.5 c 128,-1,11
 462 375 462 375 453 375 c 0,12,13
 445 375 445 375 439 382 c 128,-1,14
 433 389 433 389 433 404 c 0,15,16
 433 453 433 453 396.5 479.5 c 128,-1,17
 360 506 360 506 295 506 c 0,18,19
 234 506 234 506 187 472 c 128,-1,20
 140 438 140 438 114 376 c 128,-1,21
 88 314 88 314 88 232 c 0,22,23
 88 148 88 148 132 97 c 128,-1,24
 176 46 176 46 248 46 c 0,25,26
 307 46 307 46 346.5 71.5 c 128,-1,27
 386 97 386 97 419 157 c 1,28,29
 436 157 436 157 445.5 147.5 c 128,-1,30
 455 138 455 138 455 121 c 0,31,32
 455 85 455 85 428 55 c 128,-1,33
 401 25 401 25 353.5 7.5 c 128,-1,34
 306 -10 306 -10 249 -10 c 0,35,0
 143 -10 143 -10 80 54 c 128,-1,1
EndSplineSet
EndChar

StartChar: ccedilla
Encoding: 231 231 241
Width: 547
GlyphClass: 2
Flags: W
AnchorPoint: "Anchor-10" 0 0 basechar 0
AnchorPoint: "Anchor-9" 0 0 basechar 0
AnchorPoint: "Anchor-8" 0 0 basechar 0
AnchorPoint: "Anchor-7" 200 -214 basechar 0
LayerCount: 2
Fore
SplineSet
187 472 m 128,-1,1
 140 438 140 438 114 376 c 128,-1,2
 88 314 88 314 88 232 c 0,3,4
 88 148 88 148 132 97 c 128,-1,5
 176 46 176 46 248 46 c 0,6,7
 307 46 307 46 346.5 71.5 c 128,-1,8
 386 97 386 97 419 157 c 1,9,10
 436 157 436 157 445.5 147.5 c 128,-1,11
 455 138 455 138 455 121 c 0,12,13
 455 85 455 85 428.5 55.5 c 128,-1,14
 402 26 402 26 356.5 8.5 c 128,-1,15
 311 -9 311 -9 256 -10 c 1,16,-1
 212 -55 l 1,17,-1
 219 -55 l 2,18,19
 257 -55 257 -55 280 -73 c 128,-1,20
 303 -91 303 -91 303 -123 c 0,21,22
 303 -173 303 -173 263 -201 c 128,-1,23
 223 -229 223 -229 168 -229 c 0,24,25
 125 -229 125 -229 102.5 -219.5 c 128,-1,26
 80 -210 80 -210 80 -192 c 0,27,28
 80 -185 80 -185 85 -173 c 1,29,30
 126 -184 126 -184 168 -184 c 0,31,32
 200 -184 200 -184 219 -170 c 128,-1,33
 238 -156 238 -156 238 -133 c 0,34,35
 238 -120 238 -120 226.5 -110 c 128,-1,36
 215 -100 215 -100 193 -100 c 0,37,38
 174 -100 174 -100 152 -107 c 1,39,-1
 139 -75 l 1,40,-1
 201 -6 l 1,41,42
 115 8 115 8 66 69.5 c 128,-1,43
 17 131 17 131 17 227 c 0,44,45
 17 325 17 325 52.5 401 c 128,-1,46
 88 477 88 477 153 518.5 c 128,-1,47
 218 560 218 560 302 560 c 0,48,49
 396 560 396 560 449.5 513 c 128,-1,50
 503 466 503 466 500 387 c 1,51,52
 489 382 489 382 475.5 378.5 c 128,-1,53
 462 375 462 375 453 375 c 0,54,55
 445 375 445 375 439 382 c 128,-1,56
 433 389 433 389 433 404 c 0,57,58
 433 453 433 453 396.5 479.5 c 128,-1,59
 360 506 360 506 295 506 c 0,60,0
 234 506 234 506 187 472 c 128,-1,1
EndSplineSet
EndChar

StartChar: d
Encoding: 100 100 244
Width: 598
GlyphClass: 2
Flags: W
AnchorPoint: "Anchor-10" 598 550 basechar 0
AnchorPoint: "Anchor-9" 347 750 basechar 0
AnchorPoint: "Anchor-8" 0 0 basechar 0
AnchorPoint: "Anchor-7" 242 0 basechar 0
LayerCount: 2
Fore
SplineSet
468 128 m 2,0,1
 462 85 462 85 462 52 c 0,2,3
 462 30 462 30 465 8 c 1,4,5
 440 -4 440 -4 417 -4 c 0,6,7
 393 -4 393 -4 393 50 c 2,8,-1
 393 61 l 1,9,10
 353 24 353 24 310 7 c 128,-1,11
 267 -10 267 -10 214 -10 c 0,12,13
 121 -10 121 -10 68.5 47.5 c 128,-1,14
 16 105 16 105 16 207 c 0,15,16
 16 312 16 312 53 392 c 128,-1,17
 90 472 90 472 157 516 c 128,-1,18
 224 560 224 560 313 560 c 0,19,20
 350 560 350 560 390 546.5 c 128,-1,21
 430 533 430 533 454 513 c 1,22,-1
 493 791 l 1,23,-1
 561 791 l 1,24,-1
 468 128 l 2,0,1
401 136 m 1,26,-1
 444 447 l 1,27,28
 425 472 425 472 386 489 c 128,-1,29
 347 506 347 506 306 506 c 0,30,31
 240 506 240 506 190 469.5 c 128,-1,32
 140 433 140 433 113 366.5 c 128,-1,33
 86 300 86 300 86 212 c 0,34,35
 86 130 86 130 120 88 c 128,-1,36
 154 46 154 46 221 46 c 0,37,25
 324 46 324 46 401 136 c 1,26,-1
EndSplineSet
EndChar

StartChar: eth
Encoding: 240 240 245
Width: 547
Flags: W
LayerCount: 2
Fore
SplineSet
496 357 m 0,1,2
 496 180 496 180 434.5 84 c 128,-1,3
 373 -12 373 -12 235 -12 c 0,4,5
 162 -12 162 -12 113 19.5 c 128,-1,6
 64 51 64 51 40 103 c 128,-1,7
 16 155 16 155 16 217 c 0,8,9
 16 316 16 316 46 393.5 c 128,-1,10
 76 471 76 471 138.5 515.5 c 128,-1,11
 201 560 201 560 293 560 c 0,12,13
 356 560 356 560 395 534 c 1,14,15
 371 601 371 601 327 654 c 1,16,-1
 221 595 l 1,17,-1
 192 646 l 1,18,-1
 284 697 l 1,19,20
 251 727 251 727 220 747 c 1,21,-1
 272 794 l 1,22,23
 311 765 311 765 345 731 c 1,24,-1
 460 795 l 1,25,-1
 488 743 l 1,26,-1
 385 686 l 1,27,0
 496 547 496 547 496 357 c 0,1,2
377.5 123 m 128,-1,29
 423 204 423 204 423 334 c 0,30,31
 423 413 423 413 390.5 459.5 c 128,-1,32
 358 506 358 506 288 506 c 0,33,34
 183 506 183 506 134 427 c 128,-1,35
 85 348 85 348 85 217 c 0,36,37
 85 136 85 136 123 89 c 128,-1,38
 161 42 161 42 233 42 c 0,39,28
 332 42 332 42 377.5 123 c 128,-1,29
EndSplineSet
EndChar

StartChar: dcroat
Encoding: 273 273 247
Width: 602
GlyphClass: 2
Flags: W
AnchorPoint: "Anchor-10" 598 550 basechar 0
AnchorPoint: "Anchor-9" 347 750 basechar 0
AnchorPoint: "Anchor-8" 0 0 basechar 0
AnchorPoint: "Anchor-7" 242 0 basechar 0
LayerCount: 2
Fore
SplineSet
636 650 m 1,0,-1
 541 650 l 1,1,-1
 468 128 l 2,2,3
 462 85 462 85 462 52 c 0,4,5
 462 30 462 30 465 8 c 1,6,7
 440 -4 440 -4 417 -4 c 0,8,9
 393 -4 393 -4 393 50 c 2,10,-1
 393 61 l 1,11,12
 353 24 353 24 310 7 c 128,-1,13
 267 -10 267 -10 214 -10 c 0,14,15
 121 -10 121 -10 68.5 47.5 c 128,-1,16
 16 105 16 105 16 207 c 0,17,18
 16 312 16 312 53 392 c 128,-1,19
 90 472 90 472 157 516 c 128,-1,20
 224 560 224 560 313 560 c 0,21,22
 350 560 350 560 390 546.5 c 128,-1,23
 430 533 430 533 454 513 c 1,24,-1
 473 650 l 1,25,-1
 325 650 l 1,26,-1
 332 700 l 1,27,-1
 480 700 l 1,28,-1
 493 791 l 1,29,-1
 561 791 l 1,30,-1
 548 700 l 1,31,-1
 643 700 l 1,32,-1
 636 650 l 1,0,-1
401 136 m 1,34,-1
 444 447 l 1,35,36
 425 472 425 472 386 489 c 128,-1,37
 347 506 347 506 306 506 c 0,38,39
 240 506 240 506 190 469.5 c 128,-1,40
 140 433 140 433 113 366.5 c 128,-1,41
 86 300 86 300 86 212 c 0,42,43
 86 130 86 130 120 88 c 128,-1,44
 154 46 154 46 221 46 c 0,45,33
 324 46 324 46 401 136 c 1,34,-1
EndSplineSet
EndChar

StartChar: e
Encoding: 101 101 250
Width: 560
GlyphClass: 2
Flags: W
AnchorPoint: "Anchor-10" 0 0 basechar 0
AnchorPoint: "Anchor-9" 306 550 basechar 0
AnchorPoint: "Anchor-8" 335 10 basechar 0
AnchorPoint: "Anchor-7" 233 0 basechar 0
LayerCount: 2
Fore
SplineSet
99 268 m 1,0,1
 97 238 97 238 97 222 c 0,2,3
 97 139 97 139 137 93.5 c 128,-1,4
 177 48 177 48 249 48 c 0,5,6
 311 48 311 48 350 67.5 c 128,-1,7
 389 87 389 87 416 132 c 0,8,9
 424 146 424 146 438 146 c 0,10,11
 453 146 453 146 480 126 c 1,12,13
 450 60 450 60 389.5 25 c 128,-1,14
 329 -10 329 -10 246 -10 c 0,15,16
 144 -10 144 -10 85 51.5 c 128,-1,17
 26 113 26 113 26 219 c 0,18,19
 26 380 26 380 100 470 c 128,-1,20
 174 560 174 560 306 560 c 0,21,22
 403 560 403 560 454.5 509.5 c 128,-1,23
 506 459 506 459 506 365 c 0,24,25
 506 318 506 318 498 268 c 1,26,-1
 99 268 l 1,0,1
173 459 m 128,-1,28
 123 412 123 412 106 322 c 1,29,-1
 438 322 l 1,30,31
 441 342 441 342 441 369 c 0,32,33
 441 437 441 437 405.5 471.5 c 128,-1,34
 370 506 370 506 301 506 c 0,35,27
 223 506 223 506 173 459 c 128,-1,28
EndSplineSet
EndChar

StartChar: eogonek
Encoding: 281 281 266
Width: 560
GlyphClass: 2
Flags: W
AnchorPoint: "Anchor-10" 0 0 basechar 0
AnchorPoint: "Anchor-9" 306 550 basechar 0
AnchorPoint: "Anchor-8" 335 10 basechar 0
AnchorPoint: "Anchor-7" 233 0 basechar 0
LayerCount: 2
Fore
SplineSet
99 268 m 1,0,1
 97 238 97 238 97 222 c 0,2,3
 97 139 97 139 137 93.5 c 128,-1,4
 177 48 177 48 249 48 c 0,5,6
 311 48 311 48 350 67.5 c 128,-1,7
 389 87 389 87 416 132 c 0,8,9
 424 146 424 146 438 146 c 0,10,11
 453 146 453 146 480 126 c 1,12,13
 457 74 457 74 415 41.5 c 128,-1,14
 373 9 373 9 315 -3 c 1,15,16
 284 -26 284 -26 265 -54 c 128,-1,17
 246 -82 246 -82 246 -108 c 0,18,19
 246 -132 246 -132 257 -144 c 128,-1,20
 268 -156 268 -156 292 -156 c 0,21,22
 321 -156 321 -156 346 -146 c 1,23,24
 350 -154 350 -154 350 -166 c 0,25,26
 348 -180 348 -180 328 -190 c 128,-1,27
 308 -200 308 -200 276 -200 c 0,28,29
 233 -200 233 -200 208 -179.5 c 128,-1,30
 183 -159 183 -159 183 -125 c 0,31,32
 183 -56 183 -56 257 -10 c 1,33,-1
 246 -10 l 2,34,35
 144 -10 144 -10 85 51.5 c 128,-1,36
 26 113 26 113 26 219 c 0,37,38
 26 380 26 380 100 470 c 128,-1,39
 174 560 174 560 306 560 c 0,40,41
 403 560 403 560 454.5 509.5 c 128,-1,42
 506 459 506 459 506 365 c 0,43,44
 506 318 506 318 498 268 c 1,45,-1
 99 268 l 1,0,1
173 459 m 128,-1,47
 123 412 123 412 106 322 c 1,48,-1
 438 322 l 1,49,50
 441 342 441 342 441 369 c 0,51,52
 441 437 441 437 405.5 471.5 c 128,-1,53
 370 506 370 506 301 506 c 0,54,46
 223 506 223 506 173 459 c 128,-1,47
EndSplineSet
EndChar

StartChar: uni0259
Encoding: 601 601 268
Width: 560
GlyphClass: 2
Flags: W
AnchorPoint: "Anchor-10" 0 0 basechar 0
AnchorPoint: "Anchor-9" 327 550 basechar 0
AnchorPoint: "Anchor-8" 225 540 basechar 0
AnchorPoint: "Anchor-7" 254 0 basechar 0
LayerCount: 2
Fore
SplineSet
475 498.5 m 128,-1,1
 534 437 534 437 534 331 c 0,2,3
 534 170 534 170 460 80 c 128,-1,4
 386 -10 386 -10 254 -10 c 0,5,6
 157 -10 157 -10 105.5 40.5 c 128,-1,7
 54 91 54 91 54 185 c 0,8,9
 54 232 54 232 62 282 c 1,10,-1
 461 282 l 1,11,12
 463 312 463 312 463 328 c 0,13,14
 463 411 463 411 423 456.5 c 128,-1,15
 383 502 383 502 311 502 c 0,16,17
 249 502 249 502 210 482.5 c 128,-1,18
 171 463 171 463 144 418 c 0,19,20
 136 404 136 404 122 404 c 0,21,22
 107 404 107 404 80 424 c 1,23,24
 110 490 110 490 170.5 525 c 128,-1,25
 231 560 231 560 314 560 c 0,26,0
 416 560 416 560 475 498.5 c 128,-1,1
387 91 m 128,-1,28
 437 138 437 138 454 228 c 1,29,-1
 122 228 l 1,30,31
 119 209 119 209 119 181 c 0,32,33
 119 113 119 113 154.5 78.5 c 128,-1,34
 190 44 190 44 259 44 c 0,35,27
 337 44 337 44 387 91 c 128,-1,28
EndSplineSet
EndChar

StartChar: f
Encoding: 102 102 269
Width: 335
Flags: W
LayerCount: 2
Fore
SplineSet
397 739 m 0,1,2
 397 728 397 728 391 718.5 c 128,-1,3
 385 709 385 709 380 709 c 0,4,5
 353 724 353 724 313 724 c 0,6,7
 271 724 271 724 246 698.5 c 128,-1,8
 221 673 221 673 213 623 c 2,9,-1
 203 550 l 1,10,-1
 327 550 l 1,11,-1
 320 498 l 1,12,-1
 196 498 l 1,13,-1
 126 0 l 1,14,-1
 58 0 l 1,15,-1
 127 498 l 1,16,-1
 25 498 l 1,17,-1
 32 550 l 1,18,-1
 135 550 l 1,19,-1
 145 624 l 2,20,21
 156 696 156 696 200.5 739 c 128,-1,22
 245 782 245 782 309 782 c 0,23,0
 397 782 397 782 397 739 c 0,1,2
EndSplineSet
EndChar

StartChar: g
Encoding: 103 103 270
Width: 585
GlyphClass: 2
Flags: W
AnchorPoint: "Anchor-10" 0 0 basechar 0
AnchorPoint: "Anchor-9" 313 550 basechar 0
AnchorPoint: "Anchor-8" 0 0 basechar 0
AnchorPoint: "Anchor-7" 209 -191 basechar 0
LayerCount: 2
Fore
SplineSet
578 515 m 1,1,2
 500 515 500 515 468 492 c 1,3,4
 498 454 498 454 498 403 c 0,5,6
 498 184 498 184 253 184 c 0,7,8
 111 184 111 184 111 141 c 0,9,10
 111 120 111 120 149 110 c 128,-1,11
 187 100 187 100 266 100 c 0,12,13
 370 100 370 100 426.5 66.5 c 128,-1,14
 483 33 483 33 483 -28 c 0,15,16
 483 -111 483 -111 412 -156.5 c 128,-1,17
 341 -202 341 -202 210 -202 c 0,18,19
 100 -202 100 -202 41.5 -168 c 128,-1,20
 -17 -134 -17 -134 -17 -70 c 0,21,22
 -17 -22 -17 -22 16.5 13 c 128,-1,23
 50 48 50 48 105 57 c 1,24,-1
 105 60 l 1,25,26
 79 67 79 67 64.5 85 c 128,-1,27
 50 103 50 103 50 128 c 0,28,29
 50 159 50 159 75 182.5 c 128,-1,30
 100 206 100 206 141 214 c 1,31,32
 105 236 105 236 84.5 271 c 128,-1,33
 64 306 64 306 64 347 c 0,34,35
 64 452 64 452 125 506 c 128,-1,36
 186 560 186 560 305 560 c 0,37,38
 381 560 381 560 432 526 c 1,39,40
 461 550 461 550 493.5 564.5 c 128,-1,41
 526 579 526 579 554 579 c 0,42,43
 585 579 585 579 585 550 c 0,44,0
 585 535 585 535 578 515 c 1,1,2
387 279.5 m 128,-1,46
 427 319 427 319 427 403 c 0,47,48
 427 456 427 456 395.5 481 c 128,-1,49
 364 506 364 506 298 506 c 0,50,51
 215 506 215 506 175 467.5 c 128,-1,52
 135 429 135 429 135 350 c 0,53,54
 135 240 135 240 261 240 c 0,55,45
 347 240 347 240 387 279.5 c 128,-1,46
102.5 12 m 128,-1,57
 55 -14 55 -14 55 -64 c 0,58,59
 55 -106 55 -106 94 -126 c 128,-1,60
 133 -146 133 -146 213 -146 c 0,61,62
 311 -146 311 -146 361 -118.5 c 128,-1,63
 411 -91 411 -91 411 -37 c 0,64,65
 411 3 411 3 371 20.5 c 128,-1,66
 331 38 331 38 241 38 c 0,67,56
 150 38 150 38 102.5 12 c 128,-1,57
EndSplineSet
EndChar

StartChar: h
Encoding: 104 104 277
Width: 630
GlyphClass: 2
Flags: W
AnchorPoint: "Anchor-10" 0 0 basechar 0
AnchorPoint: "Anchor-9" 167 710 basechar 0
AnchorPoint: "Anchor-8" 0 0 basechar 0
AnchorPoint: "Anchor-7" 258 0 basechar 0
LayerCount: 2
Fore
SplineSet
494 519.5 m 128,-1,1
 537 479 537 479 537 408 c 0,2,3
 537 398 537 398 535 376 c 2,4,-1
 482 0 l 1,5,-1
 414 0 l 1,6,-1
 466 369 l 2,7,8
 468 391 468 391 468 399 c 0,9,10
 468 450 468 450 440.5 477 c 128,-1,11
 413 504 413 504 361 504 c 0,12,13
 316 504 316 504 261.5 483.5 c 128,-1,14
 207 463 207 463 162 429 c 1,15,-1
 102 0 l 1,16,-1
 34 0 l 1,17,-1
 145 791 l 1,18,-1
 213 791 l 1,19,-1
 171 494 l 1,20,21
 219 526 219 526 271.5 543 c 128,-1,22
 324 560 324 560 374 560 c 0,23,0
 451 560 451 560 494 519.5 c 128,-1,1
EndSplineSet
EndChar

StartChar: hbar
Encoding: 295 295 278
Width: 640
GlyphClass: 2
Flags: W
AnchorPoint: "Anchor-10" 0 0 basechar 0
AnchorPoint: "Anchor-9" 177 710 basechar 0
AnchorPoint: "Anchor-8" 0 0 basechar 0
AnchorPoint: "Anchor-7" 268 0 basechar 0
LayerCount: 2
Fore
SplineSet
504 519.5 m 128,-1,1
 547 479 547 479 547 408 c 0,2,3
 547 398 547 398 545 376 c 2,4,-1
 492 0 l 1,5,-1
 424 0 l 1,6,-1
 476 369 l 2,7,8
 478 391 478 391 478 399 c 0,9,10
 478 450 478 450 450.5 477 c 128,-1,11
 423 504 423 504 371 504 c 0,12,13
 326 504 326 504 271.5 483.5 c 128,-1,14
 217 463 217 463 172 429 c 1,15,-1
 112 0 l 1,16,-1
 44 0 l 1,17,-1
 135 649 l 1,18,-1
 44 649 l 1,19,-1
 52 704 l 1,20,-1
 143 704 l 1,21,-1
 155 791 l 1,22,-1
 223 791 l 1,23,-1
 211 704 l 1,24,-1
 351 704 l 1,25,-1
 343 649 l 1,26,-1
 203 649 l 1,27,-1
 181 494 l 1,28,29
 229 526 229 526 281.5 543 c 128,-1,30
 334 560 334 560 384 560 c 0,31,0
 461 560 461 560 504 519.5 c 128,-1,1
EndSplineSet
EndChar

StartChar: dotlessi
Encoding: 305 305 283
Width: 288
GlyphClass: 2
Flags: W
AnchorPoint: "Anchor-10" 0 0 basechar 0
AnchorPoint: "Anchor-9" 164 550 basechar 0
AnchorPoint: "Anchor-8" 121 0 basechar 0
AnchorPoint: "Anchor-7" 87 0 basechar 0
LayerCount: 2
Fore
SplineSet
130 550 m 1,0,-1
 198 550 l 1,1,-1
 121 0 l 1,2,-1
 53 0 l 1,3,-1
 130 550 l 1,0,-1
EndSplineSet
EndChar

StartChar: uni0237
Encoding: 567 567 297
Width: 270
GlyphClass: 2
Flags: W
AnchorPoint: "Anchor-10" 0 0 basechar 0
AnchorPoint: "Anchor-9" 154 550 basechar 0
AnchorPoint: "Anchor-8" 0 0 basechar 0
AnchorPoint: "Anchor-7" -50 -192 basechar 0
LayerCount: 2
Fore
SplineSet
-93.5 -186 m 128,-1,1
 -117 -180 -117 -180 -127 -169 c 0,2,3
 -133 -162 -133 -162 -133 -152 c 0,4,5
 -133 -140 -133 -140 -126 -128.5 c 128,-1,6
 -119 -117 -119 -117 -113 -117 c 0,7,8
 -82 -134 -82 -134 -39 -134 c 0,9,10
 -9 -134 -9 -134 10 -116 c 128,-1,11
 29 -98 29 -98 34 -62 c 2,12,-1
 120 550 l 1,13,-1
 188 550 l 1,14,-1
 103 -53 l 2,15,16
 93 -121 93 -121 53.5 -156.5 c 128,-1,17
 14 -192 14 -192 -50 -192 c 0,18,0
 -70 -192 -70 -192 -93.5 -186 c 128,-1,1
EndSplineSet
EndChar

StartChar: k
Encoding: 107 107 299
Width: 547
Flags: W
LayerCount: 2
Fore
SplineSet
340 259 m 2,1,-1
 472 0 l 1,2,3
 456 0 456 0 432 -2 c 0,4,5
 414 -4 414 -4 410 -4 c 0,6,7
 391 -4 391 -4 383 12 c 2,8,-1
 284 220 l 2,9,10
 261 267 261 267 185 264 c 2,11,-1
 139 262 l 1,12,-1
 102 0 l 1,13,-1
 34 0 l 1,14,-1
 145 791 l 1,15,-1
 213 791 l 1,16,-1
 148 324 l 1,17,-1
 186 325 l 2,18,19
 208 326 208 326 223.5 333.5 c 128,-1,20
 239 341 239 341 254 357 c 2,21,-1
 431 550 l 1,22,-1
 515 550 l 1,23,-1
 306 332 l 2,24,25
 287 313 287 313 276 307 c 1,26,0
 323 294 323 294 340 259 c 2,1,-1
EndSplineSet
EndChar

StartChar: kgreenlandic
Encoding: 312 312 301
Width: 591
Flags: W
LayerCount: 2
Fore
SplineSet
337 239 m 2,1,-1
 466 15 l 1,2,3
 432 0 432 0 410 0 c 0,4,5
 390 0 390 0 382 15 c 2,6,-1
 280 200 l 2,7,8
 267 223 267 223 243.5 234 c 128,-1,9
 220 245 220 245 182 245 c 2,10,-1
 136 242 l 1,11,-1
 102 0 l 1,12,-1
 34 0 l 1,13,-1
 111 550 l 1,14,-1
 179 550 l 1,15,-1
 144 304 l 1,16,-1
 184 305 l 2,17,18
 206 306 206 306 222 313.5 c 128,-1,19
 238 321 238 321 251 337 c 2,20,-1
 431 550 l 1,21,-1
 515 550 l 1,22,-1
 295 304 l 1,23,24
 295 304 295 304 278 287 c 1,25,0
 319 273 319 273 337 239 c 2,1,-1
EndSplineSet
EndChar

StartChar: l
Encoding: 108 108 302
Width: 268
GlyphClass: 2
Flags: W
AnchorPoint: "Anchor-10" 268 550 basechar 0
AnchorPoint: "Anchor-9" 182 750 basechar 0
AnchorPoint: "Anchor-8" 0 0 basechar 0
AnchorPoint: "Anchor-7" 77 0 basechar 0
LayerCount: 2
Fore
SplineSet
154 791 m 1,0,-1
 222 791 l 1,1,-1
 111 0 l 1,2,-1
 43 0 l 1,3,-1
 154 791 l 1,0,-1
EndSplineSet
EndChar

StartChar: lslash
Encoding: 322 322 310
Width: 268
GlyphClass: 2
Flags: W
AnchorPoint: "Anchor-10" 268 550 basechar 0
AnchorPoint: "Anchor-9" 182 750 basechar 0
AnchorPoint: "Anchor-8" 0 0 basechar 0
AnchorPoint: "Anchor-7" 77 0 basechar 0
LayerCount: 2
Fore
SplineSet
273 445 m 1,0,-1
 167 398 l 1,1,-1
 111 0 l 1,2,-1
 43 0 l 1,3,-1
 94 367 l 1,4,-1
 -12 320 l 1,5,-1
 -2 390 l 1,6,-1
 104 436 l 1,7,-1
 154 791 l 1,8,-1
 222 791 l 1,9,-1
 177 468 l 1,10,-1
 283 514 l 1,11,-1
 273 445 l 1,0,-1
EndSplineSet
EndChar

StartChar: m
Encoding: 109 109 311
Width: 912
GlyphClass: 2
Flags: W
AnchorPoint: "Anchor-10" 0 0 basechar 0
AnchorPoint: "Anchor-9" 476 550 basechar 0
AnchorPoint: "Anchor-8" 0 0 basechar 0
AnchorPoint: "Anchor-7" 399 0 basechar 0
LayerCount: 2
Fore
SplineSet
783.5 523 m 128,-1,1
 821 486 821 486 821 424 c 0,2,3
 821 415 821 415 819 395 c 2,4,-1
 764 0 l 1,5,-1
 695 0 l 1,6,-1
 750 392 l 2,7,8
 752 412 752 412 752 421 c 0,9,10
 752 506 752 506 661 506 c 0,11,12
 575 506 575 506 492 428 c 1,13,14
 492 420 492 420 490 404 c 2,15,-1
 434 0 l 1,16,-1
 366 0 l 1,17,-1
 422 402 l 2,18,19
 423 408 423 408 423 421 c 0,20,21
 423 460 423 460 399 483 c 128,-1,22
 375 506 375 506 333 506 c 0,23,24
 290 506 290 506 248.5 486.5 c 128,-1,25
 207 467 207 467 163 427 c 1,26,-1
 103 0 l 1,27,-1
 35 0 l 1,28,-1
 86 363 l 2,29,30
 100 466 100 466 100 518 c 0,31,32
 100 535 100 535 99 539 c 1,33,34
 132 554 132 554 152 554 c 0,35,36
 175 554 175 554 175 517 c 0,37,38
 175 512 175 512 173 496 c 2,39,-1
 173 493 l 1,40,41
 215 529 215 529 257.5 544.5 c 128,-1,42
 300 560 300 560 352 560 c 0,43,44
 399 560 399 560 433 538.5 c 128,-1,45
 467 517 467 517 482 480 c 1,46,47
 530 522 530 522 577.5 541 c 128,-1,48
 625 560 625 560 682 560 c 0,49,0
 746 560 746 560 783.5 523 c 128,-1,1
EndSplineSet
EndChar

StartChar: n
Encoding: 110 110 313
Width: 610
GlyphClass: 2
Flags: W
AnchorPoint: "Anchor-10" 0 0 basechar 0
AnchorPoint: "Anchor-9" 325 550 basechar 0
AnchorPoint: "Anchor-8" 0 0 basechar 0
AnchorPoint: "Anchor-7" 248 0 basechar 0
LayerCount: 2
Fore
SplineSet
519 420 m 0,1,2
 519 406 519 406 515 372 c 2,3,-1
 481 128 l 2,4,5
 470 58 470 58 470 33 c 0,6,7
 470 19 470 19 473 7 c 1,8,9
 448 -5 448 -5 419 -5 c 0,10,11
 410 -5 410 -5 406 2 c 128,-1,12
 402 9 402 9 402 27 c 0,13,14
 402 54 402 54 409 102 c 2,15,-1
 447 373 l 2,16,17
 450 396 450 396 450 413 c 0,18,19
 450 462 450 462 427.5 484 c 128,-1,20
 405 506 405 506 356 506 c 0,21,22
 266 506 266 506 160 417 c 1,23,-1
 101 0 l 1,24,-1
 33 0 l 1,25,-1
 84 363 l 2,26,27
 98 466 98 466 98 518 c 0,28,29
 98 534 98 534 97 539 c 1,30,31
 130 554 130 554 150 554 c 0,32,33
 173 554 173 554 173 517 c 0,34,35
 173 512 173 512 171 496 c 2,36,-1
 170 487 l 1,37,38
 220 525 220 525 269 542.5 c 128,-1,39
 318 560 318 560 370 560 c 0,40,0
 519 560 519 560 519 420 c 0,1,2
EndSplineSet
EndChar

StartChar: eng
Encoding: 331 331 320
Width: 609
Flags: W
LayerCount: 2
Fore
SplineSet
519 420 m 0,1,2
 519 406 519 406 515 372 c 2,3,-1
 463 0 l 1,4,-1
 458 -33 l 2,5,6
 448 -109 448 -109 401 -150.5 c 128,-1,7
 354 -192 354 -192 282 -192 c 0,8,9
 252 -192 252 -192 225.5 -181.5 c 128,-1,10
 199 -171 199 -171 199 -151 c 0,11,12
 199 -139 199 -139 206 -128.5 c 128,-1,13
 213 -118 213 -118 219 -118 c 0,14,15
 255 -134 255 -134 298 -134 c 0,16,17
 334 -134 334 -134 358 -110 c 128,-1,18
 382 -86 382 -86 389 -42 c 2,19,-1
 395 0 l 1,20,-1
 447 373 l 2,21,22
 450 396 450 396 450 413 c 0,23,24
 450 462 450 462 427.5 484 c 128,-1,25
 405 506 405 506 356 506 c 0,26,27
 263 506 263 506 160 417 c 1,28,-1
 101 0 l 1,29,-1
 33 0 l 1,30,-1
 84 363 l 2,31,32
 98 461 98 461 98 509 c 0,33,34
 98 522 98 522 96 534 c 1,35,36
 129 549 129 549 149 549 c 0,37,38
 172 549 172 549 172 513 c 0,39,40
 172 507 172 507 170 491 c 2,41,-1
 169 487 l 1,42,43
 215 522 215 522 264 541 c 128,-1,44
 313 560 313 560 370 560 c 0,45,0
 519 560 519 560 519 420 c 0,1,2
EndSplineSet
EndChar

StartChar: o
Encoding: 111 111 323
Width: 548
GlyphClass: 2
Flags: W
AnchorPoint: "Anchor-10" 422 474 basechar 0
AnchorPoint: "Anchor-9" 294 550 basechar 0
AnchorPoint: "Anchor-8" 303 10 basechar 0
AnchorPoint: "Anchor-7" 217 0 basechar 0
LayerCount: 2
Fore
SplineSet
15 200 m 0,1,2
 15 312 15 312 48.5 393 c 128,-1,3
 82 474 82 474 145 517 c 128,-1,4
 208 560 208 560 295 560 c 0,5,6
 495 560 495 560 495 353 c 0,7,8
 495 240 495 240 461.5 158.5 c 128,-1,9
 428 77 428 77 365 33.5 c 128,-1,10
 302 -10 302 -10 215 -10 c 0,11,0
 15 -10 15 -10 15 200 c 0,1,2
372 125.5 m 128,-1,13
 425 205 425 205 425 350 c 0,14,15
 425 428 425 428 391 466 c 128,-1,16
 357 504 357 504 288 504 c 0,17,18
 192 504 192 504 138.5 425 c 128,-1,19
 85 346 85 346 85 202 c 0,20,21
 85 122 85 122 119 84 c 128,-1,22
 153 46 153 46 223 46 c 0,23,12
 319 46 319 46 372 125.5 c 128,-1,13
EndSplineSet
Substitution2: "Single Substitution lookup 20 subtable" ordmasculine
Substitution2: "'aalt' Access All Alternates lookup 0 subtable" ordmasculine
EndChar

StartChar: ohorn
Encoding: 417 417 337
Width: 548
GlyphClass: 2
Flags: W
AnchorPoint: "Anchor-10" 422 474 basechar 0
AnchorPoint: "Anchor-9" 294 550 basechar 0
AnchorPoint: "Anchor-8" 303 10 basechar 0
AnchorPoint: "Anchor-7" 217 0 basechar 0
LayerCount: 2
Fore
SplineSet
557 638.5 m 128,-1,1
 570 624 570 624 570 596 c 0,2,3
 570 584 570 584 569 578 c 0,4,5
 563 535 563 535 538.5 506 c 128,-1,6
 514 477 514 477 475 462 c 1,7,8
 495 417 495 417 495 353 c 0,9,10
 495 240 495 240 461.5 158.5 c 128,-1,11
 428 77 428 77 365 33.5 c 128,-1,12
 302 -10 302 -10 215 -10 c 0,13,14
 15 -10 15 -10 15 200 c 0,15,16
 15 312 15 312 48.5 393 c 128,-1,17
 82 474 82 474 145 517 c 128,-1,18
 208 560 208 560 295 560 c 0,19,20
 398 560 398 560 449 504 c 1,21,22
 469 511 469 511 483 528 c 128,-1,23
 497 545 497 545 501 568 c 0,24,25
 505 599 505 599 479 620 c 1,26,27
 484 633 484 633 496 643 c 128,-1,28
 508 653 508 653 522 653 c 0,29,0
 544 653 544 653 557 638.5 c 128,-1,1
372 125.5 m 128,-1,31
 425 205 425 205 425 350 c 0,32,33
 425 428 425 428 391 466 c 128,-1,34
 357 504 357 504 288 504 c 0,35,36
 192 504 192 504 138.5 425 c 128,-1,37
 85 346 85 346 85 202 c 0,38,39
 85 122 85 122 119 84 c 128,-1,40
 153 46 153 46 223 46 c 0,41,30
 319 46 319 46 372 125.5 c 128,-1,31
EndSplineSet
EndChar

StartChar: oslash
Encoding: 248 248 345
Width: 548
GlyphClass: 2
Flags: W
AnchorPoint: "Anchor-10" 422 474 basechar 0
AnchorPoint: "Anchor-9" 294 550 basechar 0
AnchorPoint: "Anchor-8" 303 10 basechar 0
AnchorPoint: "Anchor-7" 217 0 basechar 0
LayerCount: 2
Fore
SplineSet
469 475 m 1,0,1
 495 426 495 426 495 353 c 0,2,3
 495 240 495 240 461.5 158.5 c 128,-1,4
 428 77 428 77 365 33.5 c 128,-1,5
 302 -10 302 -10 215 -10 c 0,6,7
 121 -10 121 -10 71 37 c 1,8,-1
 37 0 l 1,9,-1
 -27 0 l 1,10,-1
 41 75 l 1,11,12
 15 125 15 125 15 200 c 0,13,14
 15 312 15 312 48.5 393 c 128,-1,15
 82 474 82 474 145 517 c 128,-1,16
 208 560 208 560 295 560 c 0,17,18
 390 560 390 560 440 513 c 1,19,-1
 474 550 l 1,20,-1
 538 550 l 1,21,-1
 469 475 l 1,0,1
94 132 m 1,23,-1
 394 463 l 1,24,25
 362 504 362 504 288 504 c 0,26,27
 192 504 192 504 138.5 425 c 128,-1,28
 85 346 85 346 85 202 c 0,29,22
 85 162 85 162 94 132 c 1,23,-1
417 417 m 1,31,-1
 116 87 l 1,32,33
 150 46 150 46 223 46 c 0,34,35
 319 46 319 46 372 125.5 c 128,-1,36
 425 205 425 205 425 350 c 0,37,30
 425 387 425 387 417 417 c 1,31,-1
EndSplineSet
EndChar

StartChar: oe
Encoding: 339 339 348
Width: 950
GlyphClass: 2
Flags: W
AnchorPoint: "Anchor-10" 422 474 basechar 0
AnchorPoint: "Anchor-9" 696 550 basechar 0
AnchorPoint: "Anchor-8" 725 10 basechar 0
AnchorPoint: "Anchor-7" 623 0 basechar 0
LayerCount: 2
Fore
SplineSet
488 256 m 2,0,1
 487 245 487 245 487 222 c 0,2,3
 487 139 487 139 527 93.5 c 128,-1,4
 567 48 567 48 639 48 c 0,5,6
 701 48 701 48 740 67.5 c 128,-1,7
 779 87 779 87 806 132 c 0,8,9
 814 146 814 146 828 146 c 0,10,11
 843 146 843 146 870 126 c 1,12,13
 840 60 840 60 779.5 25 c 128,-1,14
 719 -10 719 -10 636 -10 c 0,15,16
 564 -10 564 -10 512.5 21.5 c 128,-1,17
 461 53 461 53 437 110 c 1,18,19
 401 51 401 51 344.5 20.5 c 128,-1,20
 288 -10 288 -10 215 -10 c 0,21,22
 15 -10 15 -10 15 200 c 0,23,24
 15 312 15 312 48.5 393 c 128,-1,25
 82 474 82 474 145 517 c 128,-1,26
 208 560 208 560 295 560 c 0,27,28
 438 560 438 560 478 455 c 1,29,30
 514 506 514 506 569.5 533 c 128,-1,31
 625 560 625 560 696 560 c 0,32,33
 793 560 793 560 844.5 509.5 c 128,-1,34
 896 459 896 459 896 365 c 0,35,36
 896 318 896 318 888 268 c 1,37,-1
 490 268 l 1,38,-1
 488 256 l 2,0,1
563 459 m 128,-1,40
 513 412 513 412 496 322 c 1,41,-1
 828 322 l 1,42,43
 831 342 831 342 831 369 c 0,44,45
 831 437 831 437 795.5 471.5 c 128,-1,46
 760 506 760 506 691 506 c 0,47,39
 613 506 613 506 563 459 c 128,-1,40
350 98 m 128,-1,49
 400 150 400 150 417 246 c 1,50,51
 419 287 419 287 424 318 c 0,52,53
 425 328 425 328 425 350 c 0,54,55
 425 428 425 428 391 466 c 128,-1,56
 357 504 357 504 288 504 c 0,57,58
 192 504 192 504 138.5 425 c 128,-1,59
 85 346 85 346 85 202 c 0,60,61
 85 122 85 122 119 84 c 128,-1,62
 153 46 153 46 223 46 c 0,63,48
 300 46 300 46 350 98 c 128,-1,49
EndSplineSet
EndChar

StartChar: p
Encoding: 112 112 349
Width: 598
Flags: W
LayerCount: 2
Fore
SplineSet
492.5 502 m 128,-1,1
 545 444 545 444 545 338 c 0,2,3
 545 233 545 233 509 154.5 c 128,-1,4
 473 76 473 76 406.5 33 c 128,-1,5
 340 -10 340 -10 252 -10 c 0,6,7
 211 -10 211 -10 172 -3 c 128,-1,8
 133 4 133 4 105 17 c 1,9,-1
 72 -220 l 1,10,-1
 4 -220 l 1,11,-1
 86 363 l 2,12,13
 100 466 100 466 100 514 c 0,14,15
 100 523 100 523 98 539 c 1,16,17
 131 554 131 554 151 554 c 0,18,19
 174 554 174 554 174 518 c 0,20,21
 174 508 174 508 172 496 c 1,22,23
 245 560 245 560 344 560 c 0,24,0
 440 560 440 560 492.5 502 c 128,-1,1
371 81 m 128,-1,26
 420 116 420 116 446.5 181.5 c 128,-1,27
 473 247 473 247 473 336 c 0,28,29
 473 419 473 419 438.5 461.5 c 128,-1,30
 404 504 404 504 337 504 c 0,31,32
 245 504 245 504 162 423 c 1,33,-1
 113 76 l 1,34,35
 170 46 170 46 255 46 c 0,36,25
 322 46 322 46 371 81 c 128,-1,26
EndSplineSet
EndChar

StartChar: thorn
Encoding: 254 254 350
Width: 609
Flags: W
LayerCount: 2
Fore
SplineSet
491.5 510.5 m 128,-1,1
 546 461 546 461 546 353 c 0,2,3
 546 325 546 325 541 285 c 0,4,5
 528 192 528 192 486.5 125 c 128,-1,6
 445 58 445 58 382.5 23 c 128,-1,7
 320 -12 320 -12 246 -12 c 0,8,9
 164 -12 164 -12 107 14 c 1,10,-1
 74 -220 l 1,11,-1
 4 -220 l 1,12,-1
 146 791 l 1,13,-1
 216 791 l 1,14,-1
 175 499 l 1,15,16
 248 560 248 560 344 560 c 0,17,0
 437 560 437 560 491.5 510.5 c 128,-1,1
474 352 m 0,19,20
 474 431 474 431 439.5 467.5 c 128,-1,21
 405 504 405 504 337 504 c 0,22,23
 244 504 244 504 165 430 c 1,24,-1
 115 73 l 1,25,26
 142 59 142 59 178.5 51.5 c 128,-1,27
 215 44 215 44 254 44 c 0,28,29
 338 44 338 44 395.5 106.5 c 128,-1,30
 453 169 453 169 469 285 c 0,31,18
 474 325 474 325 474 352 c 0,19,20
EndSplineSet
EndChar

StartChar: q
Encoding: 113 113 351
Width: 608
Flags: W
LayerCount: 2
Fore
SplineSet
545 539 m 1,1,2
 535 521 535 521 522 467 c 128,-1,3
 509 413 509 413 501 362 c 2,4,-1
 419 -220 l 1,5,-1
 351 -220 l 1,6,-1
 386 30 l 1,7,8
 353 9 353 9 317.5 -0.5 c 128,-1,9
 282 -10 282 -10 238 -10 c 0,10,11
 172 -10 172 -10 122 19 c 128,-1,12
 72 48 72 48 44.5 101 c 128,-1,13
 17 154 17 154 17 225 c 0,14,15
 17 326 17 326 51 402 c 128,-1,16
 85 478 85 478 148 519 c 128,-1,17
 211 560 211 560 294 560 c 0,18,19
 399 560 399 560 458 504 c 1,20,21
 475 554 475 554 499 554 c 0,22,0
 526 554 526 554 545 539 c 1,1,2
442 430 m 1,23,-1
 443 434 l 1,24,25
 417 470 417 470 378.5 488.5 c 128,-1,26
 340 507 340 507 292 507 c 0,27,28
 230 507 230 507 184 473 c 128,-1,29
 138 439 138 439 113 376 c 128,-1,30
 88 313 88 313 88 227 c 256,31,32
 88 141 88 141 131.5 91.5 c 128,-1,33
 175 42 175 42 251 42 c 0,34,35
 332 42 332 42 395 91 c 1,36,-1
 442 430 l 1,23,-1
EndSplineSet
EndChar

StartChar: r
Encoding: 114 114 352
Width: 400
GlyphClass: 2
Flags: W
AnchorPoint: "Anchor-10" 0 0 basechar 0
AnchorPoint: "Anchor-9" 220 550 basechar 0
AnchorPoint: "Anchor-8" 0 0 basechar 0
AnchorPoint: "Anchor-7" 62 0 basechar 0
LayerCount: 2
Fore
SplineSet
393 517 m 0,1,2
 393 498 393 498 377 482 c 1,3,4
 354 495 354 495 313 495 c 0,5,6
 247 495 247 495 199 442 c 128,-1,7
 151 389 151 389 138 303 c 2,8,-1
 96 0 l 1,9,-1
 28 0 l 1,10,-1
 105 550 l 1,11,-1
 173 550 l 1,12,-1
 159 451 l 1,13,14
 189 498 189 498 235 527.5 c 128,-1,15
 281 557 281 557 327 557 c 0,16,0
 393 557 393 557 393 517 c 0,1,2
EndSplineSet
EndChar

StartChar: s
Encoding: 115 115 359
Width: 485
GlyphClass: 2
Flags: W
AnchorPoint: "Anchor-10" 0 0 basechar 0
AnchorPoint: "Anchor-9" 263 550 basechar 0
AnchorPoint: "Anchor-8" 0 0 basechar 0
AnchorPoint: "Anchor-7" 186 0 basechar 0
LayerCount: 2
Fore
SplineSet
97 4 m 128,-1,1
 51 18 51 18 23.5 41.5 c 128,-1,2
 -4 65 -4 65 -4 92 c 0,3,4
 -4 127 -4 127 32 136 c 1,5,6
 54 95 54 95 97 70.5 c 128,-1,7
 140 46 140 46 198 46 c 0,8,9
 264 46 264 46 303 74 c 128,-1,10
 342 102 342 102 342 154 c 0,11,12
 342 180 342 180 325.5 198.5 c 128,-1,13
 309 217 309 217 284 228.5 c 128,-1,14
 259 240 259 240 216 256 c 0,15,16
 163 275 163 275 130 291.5 c 128,-1,17
 97 308 97 308 74 337.5 c 128,-1,18
 51 367 51 367 51 413 c 0,19,20
 51 484 51 484 107.5 522 c 128,-1,21
 164 560 164 560 246 560 c 0,22,23
 316 560 316 560 365.5 535 c 128,-1,24
 415 510 415 510 438 462 c 1,25,26
 410 437 410 437 393 437 c 0,27,28
 381 437 381 437 370 451 c 0,29,30
 350 479 350 479 320.5 492.5 c 128,-1,31
 291 506 291 506 246 506 c 0,32,33
 189 506 189 506 154.5 482 c 128,-1,34
 120 458 120 458 120 417 c 0,35,36
 120 377 120 377 152 355 c 128,-1,37
 184 333 184 333 249 309 c 0,38,39
 301 290 301 290 333.5 273 c 128,-1,40
 366 256 366 256 388.5 227 c 128,-1,41
 411 198 411 198 411 155 c 0,42,43
 411 79 411 79 353 34.5 c 128,-1,44
 295 -10 295 -10 196 -10 c 0,45,0
 143 -10 143 -10 97 4 c 128,-1,1
EndSplineSet
EndChar

StartChar: scedilla
Encoding: 351 351 362
Width: 485
GlyphClass: 2
Flags: W
AnchorPoint: "Anchor-10" 0 0 basechar 0
AnchorPoint: "Anchor-9" 0 0 basechar 0
AnchorPoint: "Anchor-8" 0 0 basechar 0
AnchorPoint: "Anchor-7" 156 -214 basechar 0
LayerCount: 2
Fore
SplineSet
152 355 m 128,-1,1
 184 333 184 333 249 309 c 0,2,3
 301 290 301 290 333.5 273 c 128,-1,4
 366 256 366 256 388.5 227 c 128,-1,5
 411 198 411 198 411 155 c 0,6,7
 411 82 411 82 357.5 38 c 128,-1,8
 304 -6 304 -6 212 -10 c 1,9,-1
 168 -55 l 1,10,-1
 175 -55 l 2,11,12
 213 -55 213 -55 236 -73 c 128,-1,13
 259 -91 259 -91 259 -123 c 0,14,15
 259 -173 259 -173 219 -201 c 128,-1,16
 179 -229 179 -229 124 -229 c 0,17,18
 81 -229 81 -229 58.5 -219.5 c 128,-1,19
 36 -210 36 -210 36 -192 c 0,20,21
 36 -185 36 -185 41 -173 c 1,22,23
 82 -184 82 -184 124 -184 c 0,24,25
 156 -184 156 -184 175 -170 c 128,-1,26
 194 -156 194 -156 194 -133 c 0,27,28
 194 -120 194 -120 182.5 -110 c 128,-1,29
 171 -100 171 -100 149 -100 c 0,30,31
 130 -100 130 -100 108 -107 c 1,32,-1
 95 -75 l 1,33,-1
 156 -8 l 1,34,35
 88 0 88 0 42 28 c 128,-1,36
 -4 56 -4 56 -4 92 c 0,37,38
 -4 127 -4 127 32 136 c 1,39,40
 54 95 54 95 97 70.5 c 128,-1,41
 140 46 140 46 198 46 c 0,42,43
 264 46 264 46 303 74 c 128,-1,44
 342 102 342 102 342 154 c 0,45,46
 342 180 342 180 325.5 198.5 c 128,-1,47
 309 217 309 217 284 228.5 c 128,-1,48
 259 240 259 240 216 256 c 0,49,50
 163 275 163 275 130 291.5 c 128,-1,51
 97 308 97 308 74 337.5 c 128,-1,52
 51 367 51 367 51 413 c 0,53,54
 51 484 51 484 107.5 522 c 128,-1,55
 164 560 164 560 246 560 c 0,56,57
 316 560 316 560 365.5 535 c 128,-1,58
 415 510 415 510 438 462 c 1,59,60
 410 437 410 437 393 437 c 0,61,62
 381 437 381 437 370 451 c 0,63,64
 350 479 350 479 320.5 492.5 c 128,-1,65
 291 506 291 506 246 506 c 0,66,67
 189 506 189 506 154.5 482 c 128,-1,68
 120 458 120 458 120 417 c 0,69,0
 120 377 120 377 152 355 c 128,-1,1
EndSplineSet
Substitution2: "'locl' Localized Forms in Latin lookup 7 subtable" uni0219
Substitution2: "'locl' Localized Forms in Latin lookup 6 subtable" uni0219
Substitution2: "'aalt' Access All Alternates lookup 0 subtable" uni0219
EndChar

StartChar: germandbls
Encoding: 223 223 367
Width: 617
Flags: W
LayerCount: 2
Fore
SplineSet
498 305.5 m 128,-1,1
 526 267 526 267 526 210 c 0,2,3
 526 143 526 143 497 92 c 128,-1,4
 468 41 468 41 415 13.5 c 128,-1,5
 362 -14 362 -14 293 -14 c 0,6,7
 237 -14 237 -14 190.5 3.5 c 128,-1,8
 144 21 144 21 144 51 c 0,9,10
 144 77 144 77 167 83 c 1,11,12
 195 60 195 60 224 51 c 128,-1,13
 253 42 253 42 295 42 c 0,14,15
 373 42 373 42 416.5 87.5 c 128,-1,16
 460 133 460 133 460 209 c 0,17,18
 460 269 460 269 427 300.5 c 128,-1,19
 394 332 394 332 329 332 c 0,20,21
 321 332 321 332 301 330 c 2,22,-1
 277 329 l 2,23,24
 264 329 264 329 255 346 c 128,-1,25
 246 363 246 363 246 377 c 0,26,27
 246 386 246 386 255 386 c 2,28,-1
 328 386 l 2,29,30
 393 386 393 386 436.5 429 c 128,-1,31
 480 472 480 472 480 549 c 0,32,33
 480 610 480 610 442 643.5 c 128,-1,34
 404 677 404 677 339 677 c 0,35,36
 266 677 266 677 222.5 638 c 128,-1,37
 179 599 179 599 168 522 c 2,38,-1
 95 0 l 1,39,-1
 27 0 l 1,40,-1
 100 522 l 2,41,42
 114 623 114 623 179.5 677 c 128,-1,43
 245 731 245 731 348 731 c 0,44,45
 406 731 406 731 451 707.5 c 128,-1,46
 496 684 496 684 521 642 c 128,-1,47
 546 600 546 600 546 548 c 0,48,49
 546 482 546 482 512.5 431.5 c 128,-1,50
 479 381 479 381 421 359 c 1,51,0
 470 344 470 344 498 305.5 c 128,-1,1
EndSplineSet
EndChar

StartChar: t
Encoding: 116 116 368
Width: 374
GlyphClass: 2
Flags: W
AnchorPoint: "Anchor-10" 359 630 basechar 0
AnchorPoint: "Anchor-9" 185 660 basechar 0
AnchorPoint: "Anchor-8" 0 0 basechar 0
AnchorPoint: "Anchor-7" 192 0 basechar 0
LayerCount: 2
Fore
SplineSet
145 134 m 2,0,1
 143 118 143 118 143 113 c 0,2,3
 143 50 143 50 205 50 c 0,4,5
 248 50 248 50 294 67 c 1,6,7
 305 59 305 59 305 40 c 0,8,9
 305 27 305 27 300.5 19.5 c 128,-1,10
 296 12 296 12 285 6 c 0,11,12
 255 -10 255 -10 200 -10 c 0,13,14
 141 -10 141 -10 107 19.5 c 128,-1,15
 73 49 73 49 73 99 c 0,16,17
 73 107 73 107 75 121 c 2,18,-1
 128 496 l 1,19,-1
 24 496 l 1,20,-1
 32 550 l 1,21,-1
 136 550 l 1,22,-1
 157 700 l 1,23,-1
 225 700 l 1,24,-1
 204 550 l 1,25,-1
 348 550 l 1,26,-1
 340 496 l 1,27,-1
 196 496 l 1,28,-1
 145 134 l 2,0,1
EndSplineSet
EndChar

StartChar: tbar
Encoding: 359 359 369
Width: 397
GlyphClass: 2
Flags: W
AnchorPoint: "Anchor-10" 359 630 basechar 0
AnchorPoint: "Anchor-9" 185 660 basechar 0
AnchorPoint: "Anchor-8" 0 0 basechar 0
AnchorPoint: "Anchor-7" 192 0 basechar 0
LayerCount: 2
Fore
SplineSet
196 496 m 1,0,-1
 174 340 l 1,1,-1
 318 340 l 1,2,-1
 311 286 l 1,3,-1
 166 286 l 1,4,-1
 145 134 l 2,5,6
 143 118 143 118 143 113 c 0,7,8
 143 50 143 50 205 50 c 0,9,10
 248 50 248 50 294 67 c 1,11,12
 305 59 305 59 305 40 c 0,13,14
 305 27 305 27 300.5 19.5 c 128,-1,15
 296 12 296 12 285 6 c 0,16,17
 255 -10 255 -10 200 -10 c 0,18,19
 141 -10 141 -10 107 19.5 c 128,-1,20
 73 49 73 49 73 99 c 0,21,22
 73 107 73 107 75 121 c 2,23,-1
 98 286 l 1,24,-1
 -5 286 l 1,25,-1
 2 340 l 1,26,-1
 106 340 l 1,27,-1
 128 496 l 1,28,-1
 24 496 l 1,29,-1
 32 550 l 1,30,-1
 136 550 l 1,31,-1
 157 700 l 1,32,-1
 225 700 l 1,33,-1
 204 550 l 1,34,-1
 348 550 l 1,35,-1
 340 496 l 1,36,-1
 196 496 l 1,0,-1
EndSplineSet
EndChar

StartChar: uni0163
Encoding: 355 355 371
Width: 374
GlyphClass: 2
Flags: W
AnchorPoint: "Anchor-10" 359 630 basechar 0
AnchorPoint: "Anchor-9" 0 0 basechar 0
AnchorPoint: "Anchor-8" 0 0 basechar 0
AnchorPoint: "Anchor-7" 162 -214 basechar 0
LayerCount: 2
Fore
SplineSet
145 134 m 2,0,1
 143 118 143 118 143 113 c 0,2,3
 143 50 143 50 205 50 c 0,4,5
 248 50 248 50 294 67 c 1,6,7
 305 59 305 59 305 40 c 0,8,9
 305 27 305 27 300.5 19.5 c 128,-1,10
 296 12 296 12 285 6 c 0,11,12
 258 -8 258 -8 218 -9 c 1,13,-1
 174 -55 l 1,14,-1
 181 -55 l 2,15,16
 219 -55 219 -55 242 -73 c 128,-1,17
 265 -91 265 -91 265 -123 c 0,18,19
 265 -173 265 -173 225 -201 c 128,-1,20
 185 -229 185 -229 130 -229 c 0,21,22
 87 -229 87 -229 64.5 -219.5 c 128,-1,23
 42 -210 42 -210 42 -192 c 0,24,25
 42 -185 42 -185 47 -173 c 1,26,27
 88 -184 88 -184 130 -184 c 0,28,29
 162 -184 162 -184 181 -170 c 128,-1,30
 200 -156 200 -156 200 -133 c 0,31,32
 200 -120 200 -120 188.5 -110 c 128,-1,33
 177 -100 177 -100 155 -100 c 0,34,35
 136 -100 136 -100 114 -107 c 1,36,-1
 101 -75 l 1,37,-1
 163 -7 l 1,38,39
 120 2 120 2 97 29.5 c 128,-1,40
 74 57 74 57 74 100 c 0,41,42
 74 114 74 114 75 121 c 2,43,-1
 128 496 l 1,44,-1
 24 496 l 1,45,-1
 32 550 l 1,46,-1
 136 550 l 1,47,-1
 157 700 l 1,48,-1
 225 700 l 1,49,-1
 204 550 l 1,50,-1
 348 550 l 1,51,-1
 340 496 l 1,52,-1
 196 496 l 1,53,-1
 145 134 l 2,0,1
EndSplineSet
Substitution2: "'locl' Localized Forms in Latin lookup 7 subtable" uni021B
Substitution2: "'locl' Localized Forms in Latin lookup 6 subtable" uni021B
Substitution2: "'aalt' Access All Alternates lookup 0 subtable" uni021B
EndChar

StartChar: u
Encoding: 117 117 376
Width: 610
GlyphClass: 2
Flags: W
AnchorPoint: "Anchor-10" 523 523 basechar 0
AnchorPoint: "Anchor-9" 324 550 basechar 0
AnchorPoint: "Anchor-8" 476 7 basechar 0
AnchorPoint: "Anchor-7" 247 0 basechar 0
LayerCount: 2
Fore
SplineSet
476 113 m 2,0,1
 471 76 471 76 471 54 c 256,2,3
 471 32 471 32 476 7 c 1,4,5
 452 -5 452 -5 431 -5 c 0,6,7
 413 -5 413 -5 406.5 4.5 c 128,-1,8
 400 14 400 14 400 41 c 0,9,10
 400 60 400 60 401 72 c 1,11,12
 369 32 369 32 322 11 c 128,-1,13
 275 -10 275 -10 220 -10 c 0,14,15
 141 -10 141 -10 98 30 c 128,-1,16
 55 70 55 70 55 143 c 0,17,18
 55 161 55 161 58 182 c 2,19,-1
 110 550 l 1,20,-1
 178 550 l 1,21,-1
 126 182 l 2,22,23
 123 163 123 163 123 147 c 0,24,25
 123 44 123 44 230 44 c 0,26,27
 281 44 281 44 327.5 69.5 c 128,-1,28
 374 95 374 95 411 144 c 1,29,-1
 468 550 l 1,30,-1
 537 550 l 1,31,-1
 476 113 l 2,0,1
EndSplineSet
EndChar

StartChar: uhorn
Encoding: 432 432 389
Width: 609
GlyphClass: 2
Flags: W
AnchorPoint: "Anchor-10" 523 523 basechar 0
AnchorPoint: "Anchor-9" 324 550 basechar 0
AnchorPoint: "Anchor-8" 476 7 basechar 0
AnchorPoint: "Anchor-7" 247 0 basechar 0
LayerCount: 2
Fore
SplineSet
658 687.5 m 128,-1,1
 671 673 671 673 671 645 c 0,2,3
 671 633 671 633 670 627 c 0,4,5
 662 572 662 572 624.5 539.5 c 128,-1,6
 587 507 587 507 530 501 c 1,7,-1
 476 113 l 2,8,9
 471 76 471 76 471 54 c 256,10,11
 471 32 471 32 476 7 c 1,12,13
 452 -5 452 -5 431 -5 c 0,14,15
 413 -5 413 -5 406.5 4.5 c 128,-1,16
 400 14 400 14 400 41 c 0,17,18
 400 60 400 60 401 72 c 1,19,20
 369 32 369 32 322 11 c 128,-1,21
 275 -10 275 -10 220 -10 c 0,22,23
 141 -10 141 -10 98 30 c 128,-1,24
 55 70 55 70 55 143 c 0,25,26
 55 161 55 161 58 182 c 2,27,-1
 110 550 l 1,28,-1
 178 550 l 1,29,-1
 126 182 l 2,30,31
 123 163 123 163 123 147 c 0,32,33
 123 44 123 44 230 44 c 0,34,35
 281 44 281 44 327.5 69.5 c 128,-1,36
 374 95 374 95 411 144 c 1,37,-1
 468 550 l 1,38,-1
 527 550 l 2,39,40
 555 550 555 550 576.5 568.5 c 128,-1,41
 598 587 598 587 602 617 c 0,42,43
 606 648 606 648 580 669 c 1,44,45
 585 682 585 682 597 692 c 128,-1,46
 609 702 609 702 623 702 c 0,47,0
 645 702 645 702 658 687.5 c 128,-1,1
EndSplineSet
EndChar

StartChar: uogonek
Encoding: 371 371 397
Width: 609
GlyphClass: 2
Flags: W
AnchorPoint: "Anchor-10" 523 523 basechar 0
AnchorPoint: "Anchor-9" 324 550 basechar 0
AnchorPoint: "Anchor-8" 476 7 basechar 0
AnchorPoint: "Anchor-7" 247 0 basechar 0
LayerCount: 2
Fore
SplineSet
487 -149 m 1,1,2
 491 -157 491 -157 491 -169 c 0,3,4
 489 -183 489 -183 469.5 -193 c 128,-1,5
 450 -203 450 -203 417 -203 c 0,6,7
 374 -203 374 -203 349 -182.5 c 128,-1,8
 324 -162 324 -162 324 -128 c 0,9,10
 324 -53 324 -53 416 -3 c 1,11,12
 400 4 400 4 400 42 c 0,13,14
 400 61 400 61 401 72 c 1,15,16
 369 32 369 32 322 11 c 128,-1,17
 275 -10 275 -10 220 -10 c 0,18,19
 141 -10 141 -10 98 30 c 128,-1,20
 55 70 55 70 55 143 c 0,21,22
 55 161 55 161 58 182 c 2,23,-1
 110 550 l 1,24,-1
 178 550 l 1,25,-1
 126 182 l 2,26,27
 123 163 123 163 123 147 c 0,28,29
 123 44 123 44 230 44 c 0,30,31
 281 44 281 44 327.5 69.5 c 128,-1,32
 374 95 374 95 411 144 c 1,33,-1
 468 550 l 1,34,-1
 537 550 l 1,35,-1
 476 113 l 2,36,37
 471 76 471 76 471 54 c 256,38,39
 471 32 471 32 476 7 c 1,40,41
 438 -16 438 -16 412.5 -49 c 128,-1,42
 387 -82 387 -82 387 -111 c 0,43,44
 387 -135 387 -135 398 -147 c 128,-1,45
 409 -159 409 -159 433 -159 c 0,46,0
 462 -159 462 -159 487 -149 c 1,1,2
EndSplineSet
EndChar

StartChar: v
Encoding: 118 118 400
Width: 485
Flags: W
LayerCount: 2
Fore
SplineSet
489 550 m 1,0,1
 455 396 455 396 389.5 262.5 c 128,-1,2
 324 129 324 129 218 0 c 1,3,-1
 153 0 l 1,4,5
 92 112 92 112 62.5 227 c 128,-1,6
 33 342 33 342 33 471 c 0,7,8
 33 510 33 510 36 550 c 1,9,-1
 104 550 l 1,10,11
 102 502 102 502 102 481 c 0,12,13
 102 362 102 362 124.5 264.5 c 128,-1,14
 147 167 147 167 196 74 c 1,15,16
 280 179 280 179 333.5 292.5 c 128,-1,17
 387 406 387 406 421 550 c 1,18,-1
 489 550 l 1,0,1
EndSplineSet
EndChar

StartChar: w
Encoding: 119 119 401
Width: 760
GlyphClass: 2
Flags: W
AnchorPoint: "Anchor-10" 0 0 basechar 0
AnchorPoint: "Anchor-9" 400 550 basechar 0
AnchorPoint: "Anchor-8" 0 0 basechar 0
AnchorPoint: "Anchor-7" 323 0 basechar 0
LayerCount: 2
Fore
SplineSet
742 550 m 1,0,1
 660 247 660 247 513 0 c 1,2,-1
 451 0 l 1,3,4
 415 112 415 112 397.5 206 c 128,-1,5
 380 300 380 300 377 404 c 1,6,7
 344 301 344 301 300 207 c 128,-1,8
 256 113 256 113 189 0 c 1,9,-1
 125 0 l 1,10,11
 87 114 87 114 70 245 c 128,-1,12
 53 376 53 376 53 550 c 1,13,-1
 121 550 l 1,14,15
 120 523 120 523 120 473 c 0,16,17
 120 359 120 359 132 266.5 c 128,-1,18
 144 174 144 174 170 91 c 1,19,20
 289 280 289 280 364 550 c 1,21,-1
 430 550 l 1,22,23
 427 281 427 281 494 89 c 1,24,25
 607 292 607 292 662 550 c 1,26,-1
 742 550 l 1,0,1
EndSplineSet
EndChar

StartChar: x
Encoding: 120 120 406
Width: 484
Flags: W
LayerCount: 2
Fore
SplineSet
408 419 m 128,-1,1
 357 359 357 359 269 284 c 1,2,3
 316 232 316 232 346 191.5 c 128,-1,4
 376 151 376 151 394.5 102.5 c 128,-1,5
 413 54 413 54 411 0 c 1,6,-1
 337 0 l 1,7,8
 340 64 340 64 309 119 c 128,-1,9
 278 174 278 174 219 241 c 1,10,11
 140 173 140 173 94 118.5 c 128,-1,12
 48 64 48 64 33 0 c 1,13,-1
 -41 0 l 1,14,15
 -29 54 -29 54 3.5 102.5 c 128,-1,16
 36 151 36 151 76.5 191 c 128,-1,17
 117 231 117 231 180 285 c 1,18,19
 113 361 113 361 79 420 c 128,-1,20
 45 479 45 479 48 550 c 1,21,-1
 122 550 l 1,22,23
 120 493 120 493 148.5 441 c 128,-1,24
 177 389 177 389 230 328 c 1,25,26
 301 388 301 388 344.5 440 c 128,-1,27
 388 492 388 492 402 550 c 1,28,-1
 476 550 l 1,29,0
 459 479 459 479 408 419 c 128,-1,1
EndSplineSet
EndChar

StartChar: y
Encoding: 121 121 407
Width: 485
GlyphClass: 2
Flags: W
AnchorPoint: "Anchor-10" 0 0 basechar 0
AnchorPoint: "Anchor-9" 263 550 basechar 0
AnchorPoint: "Anchor-8" 0 0 basechar 0
AnchorPoint: "Anchor-7" 291 0 basechar 0
LayerCount: 2
Fore
SplineSet
494 550 m 1,0,-1
 198 -42 l 2,1,2
 157 -124 157 -124 112 -159 c 128,-1,3
 67 -194 67 -194 4 -194 c 0,4,5
 -33 -194 -33 -194 -54.5 -182.5 c 128,-1,6
 -76 -171 -76 -171 -76 -151 c 0,7,8
 -76 -132 -76 -132 -56 -120 c 1,9,10
 -46 -127 -46 -127 -27 -132 c 128,-1,11
 -8 -137 -8 -137 12 -137 c 0,12,13
 93 -137 93 -137 154 9 c 1,14,-1
 34 550 l 1,15,-1
 104 550 l 1,16,-1
 201 107 l 1,17,-1
 420 550 l 1,18,-1
 494 550 l 1,0,-1
EndSplineSet
EndChar

StartChar: z
Encoding: 122 122 416
Width: 500
GlyphClass: 2
Flags: W
AnchorPoint: "Anchor-10" 0 0 basechar 0
AnchorPoint: "Anchor-9" 270 550 basechar 0
AnchorPoint: "Anchor-8" 0 0 basechar 0
AnchorPoint: "Anchor-7" 193 0 basechar 0
LayerCount: 2
Fore
SplineSet
475 503 m 1,0,-1
 83 58 l 1,1,-1
 421 58 l 1,2,-1
 413 0 l 1,3,-1
 -27 0 l 1,4,-1
 -21 48 l 1,5,-1
 373 492 l 1,6,-1
 68 492 l 1,7,-1
 76 550 l 1,8,-1
 482 550 l 1,9,-1
 475 503 l 1,0,-1
EndSplineSet
EndChar

StartChar: ordfeminine
Encoding: 170 170 423
Width: 380
Flags: W
LayerCount: 2
Fore
SplineSet
348 500 m 0,1,2
 336 428 336 428 336 403 c 0,3,4
 336 383 336 383 341 370 c 1,5,6
 328 360 328 360 304 360 c 0,7,8
 278 360 278 360 278 399 c 0,9,10
 278 409 278 409 279 415 c 1,11,12
 255 389 255 389 226.5 374 c 128,-1,13
 198 359 198 359 154 359 c 0,14,15
 109 359 109 359 80 383 c 128,-1,16
 51 407 51 407 51 449 c 0,17,18
 51 502 51 502 85 529.5 c 128,-1,19
 119 557 119 557 172.5 566.5 c 128,-1,20
 226 576 226 576 303 577 c 1,21,22
 304 586 304 586 304 603 c 0,23,24
 304 667 304 667 233 667 c 0,25,26
 180 667 180 667 143 639 c 0,27,28
 131 630 131 630 125.5 627.5 c 128,-1,29
 120 625 120 625 112 625 c 0,30,31
 100 625 100 625 93 632.5 c 128,-1,32
 86 640 86 640 85 652 c 1,33,34
 116 682 116 682 154.5 697 c 128,-1,35
 193 712 193 712 246 712 c 0,36,37
 293 712 293 712 326.5 684.5 c 128,-1,38
 360 657 360 657 360 605 c 0,39,0
 360 574 360 574 348 500 c 0,1,2
232.5 423.5 m 128,-1,41
 269 444 269 444 287 472 c 1,42,43
 291 490 291 490 297 535 c 1,44,45
 206 534 206 534 156 518.5 c 128,-1,46
 106 503 106 503 106 451 c 0,47,48
 106 430 106 430 120.5 416.5 c 128,-1,49
 135 403 135 403 161 403 c 0,50,40
 196 403 196 403 232.5 423.5 c 128,-1,41
EndSplineSet
EndChar

StartChar: ordmasculine
Encoding: 186 186 424
Width: 380
Flags: W
LayerCount: 2
Fore
SplineSet
85 394 m 128,-1,1
 51 431 51 431 51 494 c 0,2,3
 51 554 51 554 72.5 603.5 c 128,-1,4
 94 653 94 653 135.5 681.5 c 128,-1,5
 177 710 177 710 233 710 c 0,6,7
 298 710 298 710 331.5 672 c 128,-1,8
 365 634 365 634 365 570 c 0,9,10
 365 511 365 511 343 462.5 c 128,-1,11
 321 414 321 414 280 385.5 c 128,-1,12
 239 357 239 357 184 357 c 0,13,0
 119 357 119 357 85 394 c 128,-1,1
280 450.5 m 128,-1,15
 309 499 309 499 309 572 c 0,16,17
 309 665 309 665 227 665 c 0,18,19
 166 665 166 665 136.5 616 c 128,-1,20
 107 567 107 567 107 495 c 0,21,22
 107 402 107 402 190 402 c 0,23,14
 251 402 251 402 280 450.5 c 128,-1,15
EndSplineSet
EndChar

StartChar: uni207F
Encoding: 8319 8319 425
Width: 380
Flags: W
LayerCount: 2
Fore
SplineSet
339 437 m 2,0,1
 336 409 336 409 336 395 c 0,2,3
 336 383 336 383 340 369 c 1,4,5
 313 360 313 360 294 360 c 0,6,7
 279 360 279 360 279 390 c 0,8,9
 279 402 279 402 282 421 c 2,10,-1
 307 602 l 2,11,12
 309 616 309 616 309 621 c 0,13,14
 309 647 309 647 294.5 659.5 c 128,-1,15
 280 672 280 672 249 672 c 0,16,17
 191 672 191 672 127 617 c 1,18,-1
 92 363 l 1,19,-1
 37 363 l 1,20,-1
 69 593 l 2,21,22
 77 661 77 661 77 682 c 0,23,24
 77 695 77 695 76 699 c 1,25,26
 85 703 85 703 98 706 c 128,-1,27
 111 709 111 709 119 709 c 0,28,29
 126 709 126 709 131 703 c 128,-1,30
 136 697 136 697 136 685 c 0,31,32
 136 677 136 677 135 673 c 2,33,-1
 135 671 l 1,34,35
 196 716 196 716 259 716 c 0,36,37
 309 716 309 716 336.5 693.5 c 128,-1,38
 364 671 364 671 364 626 c 0,39,40
 364 618 364 618 362 602 c 2,41,-1
 339 437 l 2,0,1
EndSplineSet
EndChar

StartChar: uni0394
Encoding: 916 916 426
Width: 546
Flags: W
LayerCount: 2
Fore
SplineSet
493 30 m 1,0,-1
 489 0 l 1,1,-1
 -57 0 l 1,2,-1
 -53 30 l 1,3,-1
 281 700 l 1,4,-1
 347 700 l 1,5,-1
 493 30 l 1,0,-1
418 58 m 1,6,-1
 302 614 l 1,7,-1
 30 58 l 1,8,-1
 418 58 l 1,6,-1
EndSplineSet
EndChar

StartChar: uni03A9
Encoding: 937 937 427
Width: 676
Flags: W
LayerCount: 2
Fore
SplineSet
1 58 m 1,0,-1
 171 58 l 1,1,-1
 183 147 l 1,2,3
 122 168 122 168 84.5 234 c 128,-1,4
 47 300 47 300 47 385 c 0,5,6
 47 476 47 476 88 550 c 128,-1,7
 129 624 129 624 204 667 c 128,-1,8
 279 710 279 710 378 710 c 0,9,10
 459 710 459 710 516 676 c 128,-1,11
 573 642 573 642 601.5 582.5 c 128,-1,12
 630 523 630 523 630 447 c 0,13,14
 630 380 630 380 603 317.5 c 128,-1,15
 576 255 576 255 528 209.5 c 128,-1,16
 480 164 480 164 419 147 c 1,17,-1
 407 58 l 1,18,-1
 577 58 l 1,19,-1
 569 0 l 1,20,-1
 339 0 l 1,21,-1
 365 187 l 1,22,23
 424 199 424 199 469.5 236 c 128,-1,24
 515 273 515 273 540.5 328.5 c 128,-1,25
 566 384 566 384 566 447 c 0,26,27
 566 536 566 536 515.5 593.5 c 128,-1,28
 465 651 465 651 373 651 c 0,29,30
 296 651 296 651 237 619.5 c 128,-1,31
 178 588 178 588 145.5 529 c 128,-1,32
 113 470 113 470 113 392 c 0,33,34
 113 343 113 343 131 299 c 128,-1,35
 149 255 149 255 180.5 225 c 128,-1,36
 212 195 212 195 250 187 c 1,37,-1
 224 0 l 1,38,-1
 -7 0 l 1,39,-1
 1 58 l 1,0,-1
EndSplineSet
EndChar

StartChar: uni03BC
Encoding: 956 956 428
Width: 610
GlyphClass: 2
Flags: W
AnchorPoint: "Anchor-6" 533 523 basechar 0
AnchorPoint: "Anchor-5" 324 550 basechar 0
AnchorPoint: "Anchor-4" 501 10 basechar 0
AnchorPoint: "Anchor-3" 247 0 basechar 0
LayerCount: 2
Fore
SplineSet
476 113 m 2,0,1
 471 82 471 82 471 53 c 0,2,3
 471 35 471 35 476 7 c 1,4,5
 451 -5 451 -5 431 -5 c 0,6,7
 413 -5 413 -5 406 6 c 128,-1,8
 399 17 399 17 399 42 c 0,9,10
 399 50 399 50 401 72 c 1,11,12
 369 32 369 32 321.5 10 c 128,-1,13
 274 -12 274 -12 220 -12 c 0,14,15
 146 -12 146 -12 103 23 c 1,16,-1
 69 -220 l 1,17,-1
 2 -220 l 1,18,-1
 110 550 l 1,19,-1
 178 550 l 1,20,-1
 126 180 l 2,21,22
 123 161 123 161 123 145 c 0,23,24
 123 42 123 42 230 42 c 0,25,26
 281 42 281 42 327.5 68.5 c 128,-1,27
 374 95 374 95 411 144 c 1,28,-1
 468 550 l 1,29,-1
 537 550 l 1,30,-1
 476 113 l 2,0,1
EndSplineSet
EndChar

StartChar: pi
Encoding: 960 960 429
Width: 640
Flags: W
LayerCount: 2
Fore
SplineSet
392 15 m 128,-1,1
 369 40 369 40 369 82 c 0,2,3
 369 90 369 90 371 106 c 2,4,-1
 425 490 l 1,5,-1
 213 490 l 1,6,-1
 144 0 l 1,7,-1
 79 0 l 1,8,-1
 148 490 l 1,9,-1
 41 490 l 1,10,-1
 49 550 l 1,11,-1
 617 550 l 1,12,-1
 609 490 l 1,13,-1
 490 490 l 1,14,-1
 436 110 l 2,15,16
 435 104 435 104 435 94 c 0,17,18
 435 67 435 67 449.5 56.5 c 128,-1,19
 464 46 464 46 490 46 c 0,20,21
 510 46 510 46 531 51 c 128,-1,22
 552 56 552 56 565 64 c 1,23,-1
 558 13 l 1,24,25
 534 0 534 0 511.5 -5 c 128,-1,26
 489 -10 489 -10 461 -10 c 0,27,0
 415 -10 415 -10 392 15 c 128,-1,1
EndSplineSet
EndChar

StartChar: uni0E01
Encoding: 3585 3585 430
Width: 605
GlyphClass: 2
Flags: W
AnchorPoint: "Anchor-12" 545 550 basechar 0
AnchorPoint: "Anchor-11" 468 0 basechar 0
LayerCount: 2
Fore
SplineSet
465 542.5 m 128,-1,1
 524 499 524 499 524 418 c 0,2,3
 524 401 524 401 521 383 c 2,4,-1
 468 0 l 1,5,-1
 403 0 l 1,6,-1
 456 383 l 2,7,8
 458 395 458 395 458 415 c 0,9,10
 458 475 458 475 419.5 504.5 c 128,-1,11
 381 534 381 534 313 534 c 0,12,13
 263 534 263 534 219 519.5 c 128,-1,14
 175 505 175 505 149 483.5 c 128,-1,15
 123 462 123 462 123 444 c 256,16,17
 123 426 123 426 144 408 c 128,-1,18
 165 390 165 390 180 390 c 0,19,20
 189 390 189 390 214 399 c 0,21,22
 234 407 234 407 242 407 c 0,23,24
 249 407 249 407 257.5 392 c 128,-1,25
 266 377 266 377 266 366 c 0,26,27
 266 358 266 358 260 358 c 0,28,29
 198 358 198 358 169.5 324.5 c 128,-1,30
 141 291 141 291 131 222 c 2,31,-1
 100 0 l 1,32,-1
 35 0 l 1,33,-1
 66 222 l 2,34,35
 73 270 73 270 87.5 302 c 128,-1,36
 102 334 102 334 127 355 c 1,37,38
 102 367 102 367 80.5 391 c 128,-1,39
 59 415 59 415 59 441 c 0,40,41
 59 474 59 474 92 508 c 128,-1,42
 125 542 125 542 184 564 c 128,-1,43
 243 586 243 586 318 586 c 0,44,0
 406 586 406 586 465 542.5 c 128,-1,1
EndSplineSet
EndChar

StartChar: uni0E02
Encoding: 3586 3586 431
Width: 570
GlyphClass: 2
Flags: W
AnchorPoint: "Anchor-12" 510 550 basechar 0
AnchorPoint: "Anchor-11" 433 0 basechar 0
LayerCount: 2
Fore
SplineSet
131.5 24.5 m 128,-1,1
 89 58 89 58 89 122 c 0,2,3
 89 133 89 133 92.5 161.5 c 128,-1,4
 96 190 96 190 105 249 c 0,5,6
 108 268 108 268 121 275 c 0,7,8
 178 306 178 306 212 330 c 128,-1,9
 246 354 246 354 268 385.5 c 128,-1,10
 290 417 290 417 290 458 c 0,11,12
 290 498 290 498 265 519 c 128,-1,13
 240 540 240 540 204 540 c 0,14,15
 161 540 161 540 131.5 518 c 128,-1,16
 102 496 102 496 102 454 c 0,17,18
 102 428 102 428 115 414.5 c 128,-1,19
 128 401 128 401 149 401 c 0,20,21
 172 401 172 401 185 414.5 c 128,-1,22
 198 428 198 428 198 450 c 0,23,24
 198 466 198 466 191 477 c 128,-1,25
 184 488 184 488 173 491 c 1,26,27
 182 508 182 508 198 508 c 0,28,29
 213 508 213 508 228 492.5 c 128,-1,30
 243 477 243 477 243 450 c 0,31,32
 243 407 243 407 216 382 c 128,-1,33
 189 357 189 357 146 357 c 0,34,35
 108 357 108 357 82 384 c 128,-1,36
 56 411 56 411 56 453 c 0,37,38
 56 514 56 514 99.5 549 c 128,-1,39
 143 584 143 584 210 584 c 0,40,41
 269 584 269 584 308 552 c 128,-1,42
 347 520 347 520 347 463 c 0,43,44
 347 409 347 409 321 369 c 128,-1,45
 295 329 295 329 262 304.5 c 128,-1,46
 229 280 229 280 169 242 c 1,47,48
 167 227 167 227 165 211 c 128,-1,49
 163 195 163 195 160 180 c 0,50,51
 154 130 154 130 154 127 c 0,52,53
 154 83 154 83 180 63 c 128,-1,54
 206 43 206 43 256 43 c 0,55,56
 301 43 301 43 327.5 53 c 128,-1,57
 354 63 354 63 368.5 88 c 128,-1,58
 383 113 383 113 390 159 c 2,59,-1
 449 576 l 1,60,-1
 514 576 l 1,61,-1
 456 163 l 2,62,63
 443 70 443 70 392 30.5 c 128,-1,64
 341 -9 341 -9 247 -9 c 0,65,0
 174 -9 174 -9 131.5 24.5 c 128,-1,1
EndSplineSet
EndChar

StartChar: uni0E03
Encoding: 3587 3587 432
Width: 596
GlyphClass: 2
Flags: W
AnchorPoint: "Anchor-12" 536 550 basechar 0
AnchorPoint: "Anchor-11" 459 0 basechar 0
LayerCount: 2
Fore
SplineSet
146 23 m 128,-1,1
 103 55 103 55 103 125 c 0,2,3
 103 149 103 149 115 229 c 0,4,5
 121 270 121 270 145.5 298 c 128,-1,6
 170 326 170 326 216 363 c 256,7,8
 262 400 262 400 284.5 427 c 128,-1,9
 307 454 307 454 307 493 c 0,10,11
 307 511 307 511 297.5 520.5 c 128,-1,12
 288 530 288 530 271 530 c 0,13,14
 235 530 235 530 204 487 c 1,15,16
 192 512 192 512 181 523 c 128,-1,17
 170 534 170 534 148 534 c 0,18,19
 123 534 123 534 106 517.5 c 128,-1,20
 89 501 89 501 89 472 c 0,21,22
 89 451 89 451 101.5 439.5 c 128,-1,23
 114 428 114 428 133 428 c 0,24,25
 171 428 171 428 192 466 c 1,26,27
 205 458 205 458 204 443 c 0,28,29
 200 418 200 418 177 401 c 128,-1,30
 154 384 154 384 126 384 c 0,31,32
 88 384 88 384 65.5 405.5 c 128,-1,33
 43 427 43 427 43 464 c 0,34,35
 43 500 43 500 59 526 c 128,-1,36
 75 552 75 552 99.5 566 c 128,-1,37
 124 580 124 580 149 580 c 256,38,39
 174 580 174 580 189 570.5 c 128,-1,40
 204 561 204 561 213 541 c 1,41,42
 243 580 243 580 291 580 c 0,43,44
 325 580 325 580 346.5 560.5 c 128,-1,45
 368 541 368 541 368 502 c 0,46,47
 368 465 368 465 353.5 435.5 c 128,-1,48
 339 406 339 406 319 385.5 c 128,-1,49
 299 365 299 365 264 336 c 0,50,51
 224 303 224 303 204 279.5 c 128,-1,52
 184 256 184 256 179 225 c 0,53,54
 168 141 168 141 168 134 c 0,55,56
 168 45 168 45 273 45 c 0,57,58
 340 45 340 45 374 71.5 c 128,-1,59
 408 98 408 98 416 159 c 2,60,-1
 475 576 l 1,61,-1
 540 576 l 1,62,-1
 481 159 l 2,63,64
 470 79 470 79 412.5 35 c 128,-1,65
 355 -9 355 -9 264 -9 c 0,66,0
 189 -9 189 -9 146 23 c 128,-1,1
EndSplineSet
EndChar

StartChar: uni0E04
Encoding: 3588 3588 433
Width: 624
GlyphClass: 2
Flags: W
AnchorPoint: "Anchor-12" 564 550 basechar 0
AnchorPoint: "Anchor-11" 487 0 basechar 0
LayerCount: 2
Fore
SplineSet
488 538 m 128,-1,1
 540 490 540 490 540 406 c 0,2,3
 540 384 540 384 537 360 c 2,4,-1
 487 0 l 1,5,-1
 422 0 l 1,6,-1
 472 355 l 2,7,8
 475 378 475 378 475 398 c 0,9,10
 475 534 475 534 332 534 c 0,11,12
 231 534 231 534 179 474 c 128,-1,13
 127 414 127 414 127 310 c 0,14,15
 127 278 127 278 133 252 c 1,16,17
 167 312 167 312 213.5 347.5 c 128,-1,18
 260 383 260 383 317 383 c 0,19,20
 354 383 354 383 378.5 361.5 c 128,-1,21
 403 340 403 340 403 303 c 0,22,23
 403 254 403 254 372 225 c 128,-1,24
 341 196 341 196 295 196 c 0,25,26
 270 196 270 196 252.5 208.5 c 128,-1,27
 235 221 235 221 235 241 c 0,28,29
 235 265 235 265 252 273 c 1,30,31
 260 256 260 256 271.5 248 c 128,-1,32
 283 240 283 240 301 240 c 0,33,34
 326 240 326 240 340 255.5 c 128,-1,35
 354 271 354 271 354 297 c 0,36,37
 354 315 354 315 342 325 c 128,-1,38
 330 335 330 335 308 335 c 0,39,40
 265 335 265 335 225 292.5 c 128,-1,41
 185 250 185 250 154 174 c 128,-1,42
 123 98 123 98 107 0 c 1,43,-1
 56 0 l 2,44,45
 40 0 40 0 44 20 c 0,46,47
 48 51 48 51 61.5 89 c 128,-1,48
 75 127 75 127 77 133 c 0,49,50
 90 166 90 166 90 173 c 0,51,52
 90 178 90 178 83 199 c 0,53,54
 61 255 61 255 61 309 c 0,55,56
 61 391 61 391 93.5 453.5 c 128,-1,57
 126 516 126 516 188 551 c 128,-1,58
 250 586 250 586 334 586 c 0,59,0
 436 586 436 586 488 538 c 128,-1,1
EndSplineSet
EndChar

StartChar: uni0E05
Encoding: 3589 3589 434
Width: 640
GlyphClass: 2
Flags: W
AnchorPoint: "Anchor-12" 580 550 basechar 0
AnchorPoint: "Anchor-11" 503 0 basechar 0
LayerCount: 2
Fore
SplineSet
528 525.5 m 128,-1,1
 559 486 559 486 559 421 c 0,2,3
 559 406 559 406 555 370 c 2,4,-1
 503 0 l 1,5,-1
 438 0 l 1,6,-1
 490 370 l 2,7,8
 494 395 494 395 494 420 c 0,9,10
 494 464 494 464 476 488.5 c 128,-1,11
 458 513 458 513 419 526 c 1,12,13
 389 502 389 502 328 466 c 1,14,15
 271 504 271 504 250 526 c 1,16,17
 128 478 128 478 128 316 c 0,18,19
 128 283 128 283 134 254 c 1,20,21
 168 313 168 313 214 348 c 128,-1,22
 260 383 260 383 317 383 c 0,23,24
 354 383 354 383 378.5 361.5 c 128,-1,25
 403 340 403 340 403 303 c 0,26,27
 403 254 403 254 372 225 c 128,-1,28
 341 196 341 196 295 196 c 0,29,30
 270 196 270 196 252.5 208.5 c 128,-1,31
 235 221 235 221 235 241 c 0,32,33
 235 265 235 265 252 273 c 1,34,35
 260 256 260 256 271.5 248 c 128,-1,36
 283 240 283 240 301 240 c 0,37,38
 326 240 326 240 340 255.5 c 128,-1,39
 354 271 354 271 354 297 c 0,40,41
 354 315 354 315 342 325 c 128,-1,42
 330 335 330 335 308 335 c 0,43,44
 265 335 265 335 225 292.5 c 128,-1,45
 185 250 185 250 154 174 c 128,-1,46
 123 98 123 98 107 0 c 1,47,-1
 56 0 l 2,48,49
 40 0 40 0 44 20 c 0,50,51
 48 51 48 51 61.5 89 c 128,-1,52
 75 127 75 127 77 133 c 0,53,54
 90 166 90 166 90 173 c 0,55,56
 90 179 90 179 83 202 c 0,57,58
 61 268 61 268 61 321 c 0,59,60
 61 419 61 419 111 485.5 c 128,-1,61
 161 552 161 552 258 586 c 1,62,63
 304 554 304 554 336 520 c 1,64,65
 373 551 373 551 429 586 c 1,66,0
 497 565 497 565 528 525.5 c 128,-1,1
EndSplineSet
EndChar

StartChar: uni0E06
Encoding: 3590 3590 435
Width: 650
GlyphClass: 2
Flags: W
AnchorPoint: "Anchor-12" 572 550 basechar 0
AnchorPoint: "Anchor-11" 495 0 basechar 0
LayerCount: 2
Fore
SplineSet
576 576 m 1,0,-1
 510 111 l 2,1,2
 506 87 506 87 504 40 c 0,3,4
 504 21 504 21 503 15 c 0,5,6
 500 0 500 0 487 0 c 2,7,-1
 433 0 l 1,8,9
 418 86 418 86 361 138 c 128,-1,10
 304 190 304 190 222 202 c 1,11,12
 218 172 218 172 214 129 c 0,13,14
 210 64 210 64 186.5 27.5 c 128,-1,15
 163 -9 163 -9 108 -9 c 0,16,17
 68 -9 68 -9 44 18.5 c 128,-1,18
 20 46 20 46 20 96 c 0,19,20
 20 170 20 170 61.5 210.5 c 128,-1,21
 103 251 103 251 168 256 c 1,22,23
 179 286 179 286 196.5 309 c 128,-1,24
 214 332 214 332 245 364 c 0,25,26
 279 398 279 398 298 428 c 128,-1,27
 317 458 317 458 317 492 c 0,28,29
 317 528 317 528 281 528 c 0,30,31
 262 528 262 528 246.5 518.5 c 128,-1,32
 231 509 231 509 216 488 c 1,33,34
 200 534 200 534 158 534 c 0,35,36
 134 534 134 534 116.5 517.5 c 128,-1,37
 99 501 99 501 99 474 c 0,38,39
 99 454 99 454 112 443 c 128,-1,40
 125 432 125 432 145 432 c 0,41,42
 188 432 188 432 200 473 c 1,43,44
 208 472 208 472 212.5 467 c 128,-1,45
 217 462 217 462 217 454 c 0,46,47
 217 427 217 427 194.5 407.5 c 128,-1,48
 172 388 172 388 142 388 c 0,49,50
 103 388 103 388 78 411.5 c 128,-1,51
 53 435 53 435 53 472 c 0,52,53
 53 521 53 521 82 550.5 c 128,-1,54
 111 580 111 580 155 580 c 0,55,56
 203 580 203 580 222 541 c 1,57,58
 243 578 243 578 297 578 c 0,59,60
 333 578 333 578 355.5 556.5 c 128,-1,61
 378 535 378 535 378 495 c 0,62,63
 378 448 378 448 356.5 413.5 c 128,-1,64
 335 379 335 379 292 334 c 0,65,66
 269 310 269 310 255 292 c 128,-1,67
 241 274 241 274 233 254 c 1,68,69
 308 243 308 243 365 203.5 c 128,-1,70
 422 164 422 164 446 113 c 1,71,-1
 511 576 l 1,72,-1
 576 576 l 1,0,-1
136 59.5 m 128,-1,74
 143 76 143 76 145.5 99.5 c 128,-1,75
 148 123 148 123 149 132 c 0,76,77
 150 137 150 137 151 145 c 128,-1,78
 152 153 152 153 153 163 c 0,79,80
 154 180 154 180 158 204 c 1,81,82
 77 194 77 194 77 98 c 0,83,84
 77 71 77 71 85 57 c 128,-1,85
 93 43 93 43 108 43 c 0,86,73
 129 43 129 43 136 59.5 c 128,-1,74
EndSplineSet
EndChar

StartChar: uni0E07
Encoding: 3591 3591 436
Width: 520
GlyphClass: 2
Flags: W
AnchorPoint: "Anchor-12" 461 550 basechar 0
AnchorPoint: "Anchor-11" 364 0 basechar 0
LayerCount: 2
Fore
SplineSet
146 4 m 128,-1,1
 108 12 108 12 108 22 c 0,2,3
 105 143 105 143 87 218.5 c 128,-1,4
 69 294 69 294 33 359 c 1,5,6
 54 380 54 380 81 380 c 0,7,8
 92 380 92 380 98.5 374.5 c 128,-1,9
 105 369 105 369 112 354 c 0,10,11
 136 304 136 304 151 229.5 c 128,-1,12
 166 155 166 155 166 61 c 0,13,14
 166 54 166 54 183 50 c 128,-1,15
 200 46 200 46 229 46 c 256,16,17
 258 46 258 46 277 50 c 128,-1,18
 296 54 296 54 298 63 c 0,19,20
 301 76 301 76 320 144 c 0,21,22
 356 275 356 275 375 355.5 c 128,-1,23
 394 436 394 436 394 479 c 0,24,25
 394 532 394 532 346 532 c 0,26,27
 322 532 322 532 307.5 519.5 c 128,-1,28
 293 507 293 507 293 485 c 0,29,30
 293 468 293 468 304 457.5 c 128,-1,31
 315 447 315 447 333 447 c 0,32,33
 352 447 352 447 368 454 c 1,34,35
 371 450 371 450 371 442 c 0,36,37
 371 428 371 428 358.5 417 c 128,-1,38
 346 406 346 406 320 406 c 0,39,40
 286 406 286 406 263.5 427 c 128,-1,41
 241 448 241 448 241 481 c 0,42,43
 241 528 241 528 273 555 c 128,-1,44
 305 582 305 582 355 582 c 0,45,46
 404 582 404 582 431.5 555.5 c 128,-1,47
 459 529 459 529 459 482 c 0,48,49
 459 433 459 433 438.5 350.5 c 128,-1,50
 418 268 418 268 374 108 c 2,51,-1
 349 21 l 2,52,53
 345 10 345 10 309.5 3 c 128,-1,54
 274 -4 274 -4 230 -4 c 0,55,0
 184 -4 184 -4 146 4 c 128,-1,1
EndSplineSet
EndChar

StartChar: uni0E08
Encoding: 3592 3592 437
Width: 588
GlyphClass: 2
Flags: W
AnchorPoint: "Anchor-12" 535 550 basechar 0
AnchorPoint: "Anchor-11" 428 0 basechar 0
LayerCount: 2
Fore
SplineSet
240 -1 m 128,-1,1
 210 7 210 7 211 18 c 0,2,3
 219 115 219 115 219 219 c 0,4,5
 219 264 219 264 209 285 c 128,-1,6
 199 306 199 306 171 306 c 0,7,8
 149 306 149 306 135.5 293.5 c 128,-1,9
 122 281 122 281 122 261 c 0,10,11
 122 242 122 242 132 231 c 128,-1,12
 142 220 142 220 160 220 c 0,13,14
 174 220 174 220 191 230 c 1,15,16
 196 223 196 223 196 213 c 0,17,18
 196 199 196 199 183 188.5 c 128,-1,19
 170 178 170 178 147 178 c 0,20,21
 113 178 113 178 91.5 200 c 128,-1,22
 70 222 70 222 70 257 c 0,23,24
 70 299 70 299 98 326.5 c 128,-1,25
 126 354 126 354 171 354 c 0,26,27
 224 354 224 354 251 323.5 c 128,-1,28
 278 293 278 293 278 232 c 0,29,30
 278 209 278 209 276 145 c 0,31,32
 273 94 273 94 273 48 c 0,33,34
 273 43 273 43 285 40 c 128,-1,35
 297 37 297 37 314 37 c 0,36,37
 351 37 351 37 354 49 c 0,38,39
 359 67 359 67 379 118 c 0,40,41
 408 194 408 194 425 255 c 128,-1,42
 442 316 442 316 442 377 c 0,43,44
 442 455 442 455 399.5 493.5 c 128,-1,45
 357 532 357 532 286 532 c 0,46,47
 230 532 230 532 190.5 515 c 128,-1,48
 151 498 151 498 108 465 c 0,49,50
 102 460 102 460 97 457 c 128,-1,51
 92 454 92 454 85 454 c 0,52,53
 75 454 75 454 64.5 465.5 c 128,-1,54
 54 477 54 477 46 493 c 1,55,56
 97 535 97 535 150.5 560.5 c 128,-1,57
 204 586 204 586 290 586 c 0,58,59
 385 586 385 586 446.5 534.5 c 128,-1,60
 508 483 508 483 508 382 c 0,61,62
 508 323 508 323 488.5 256.5 c 128,-1,63
 469 190 469 190 435 97 c 0,64,65
 414 43 414 43 407 18 c 0,66,67
 404 7 404 7 376 -1 c 128,-1,68
 348 -9 348 -9 309 -9 c 256,69,0
 270 -9 270 -9 240 -1 c 128,-1,1
EndSplineSet
EndChar

StartChar: uni0E09
Encoding: 3593 3593 438
Width: 631
GlyphClass: 2
Flags: W
AnchorPoint: "Anchor-12" 574 550 basechar 0
AnchorPoint: "Anchor-11" 497 0 basechar 0
LayerCount: 2
Fore
SplineSet
553 107 m 0,1,2
 553 60 553 60 520 28 c 128,-1,3
 487 -4 487 -4 441 -4 c 0,4,5
 401 -4 401 -4 369.5 23.5 c 128,-1,6
 338 51 338 51 338 93 c 0,7,8
 338 142 338 142 374 178 c 1,9,10
 310 174 310 174 256 122 c 128,-1,11
 202 70 202 70 179 0 c 1,12,-1
 140 0 l 2,13,14
 130 0 130 0 126.5 3.5 c 128,-1,15
 123 7 123 7 124 15 c 2,16,-1
 137 112 l 2,17,18
 140 139 140 139 152 184 c 0,19,20
 165 240 165 240 165 264 c 0,21,22
 165 286 165 286 152.5 300 c 128,-1,23
 140 314 140 314 119 314 c 0,24,25
 95 314 95 314 78.5 301.5 c 128,-1,26
 62 289 62 289 62 265 c 0,27,28
 62 242 62 242 74.5 230 c 128,-1,29
 87 218 87 218 108 218 c 0,30,31
 127 218 127 218 139 228 c 1,32,33
 142 221 142 221 142 214 c 0,34,35
 142 199 142 199 128 188.5 c 128,-1,36
 114 178 114 178 91 178 c 0,37,38
 60 178 60 178 37 200 c 128,-1,39
 14 222 14 222 14 262 c 0,40,41
 14 306 14 306 45.5 334 c 128,-1,42
 77 362 77 362 127 362 c 0,43,44
 170 362 170 362 200 333.5 c 128,-1,45
 230 305 230 305 230 265 c 0,46,47
 230 236 230 236 214 168 c 0,48,49
 211 157 211 157 207 137 c 1,50,51
 243 179 243 179 291.5 202.5 c 128,-1,52
 340 226 340 226 392 226 c 0,53,54
 411 226 411 226 429 223 c 1,55,56
 448 239 448 239 458.5 252.5 c 128,-1,57
 469 266 469 266 472 283 c 2,58,-1
 480 341 l 2,59,60
 483 368 483 368 483 377 c 0,61,62
 483 454 483 454 435.5 493 c 128,-1,63
 388 532 388 532 316 532 c 0,64,65
 258 532 258 532 207.5 513.5 c 128,-1,66
 157 495 157 495 118 465 c 0,67,68
 112 460 112 460 107 457 c 128,-1,69
 102 454 102 454 95 454 c 0,70,71
 85 454 85 454 74.5 465.5 c 128,-1,72
 64 477 64 477 56 493 c 1,73,74
 102 531 102 531 167.5 558.5 c 128,-1,75
 233 586 233 586 320 586 c 0,76,77
 382 586 382 586 434 563.5 c 128,-1,78
 486 541 486 541 517.5 495 c 128,-1,79
 549 449 549 449 549 382 c 0,80,81
 549 367 549 367 545 341 c 2,82,-1
 535 273 l 2,83,84
 532 253 532 253 521 236.5 c 128,-1,85
 510 220 510 220 492 204 c 1,86,0
 553 173 553 173 553 107 c 0,1,2
482.5 65.5 m 128,-1,88
 498 83 498 83 498 107 c 0,89,90
 498 129 498 129 484.5 145 c 128,-1,91
 471 161 471 161 447 169 c 1,92,93
 422 149 422 149 408.5 132 c 128,-1,94
 395 115 395 115 395 93 c 0,95,96
 395 74 395 74 407.5 61 c 128,-1,97
 420 48 420 48 441 48 c 0,98,87
 467 48 467 48 482.5 65.5 c 128,-1,88
EndSplineSet
EndChar

StartChar: uni0E0A
Encoding: 3594 3594 439
Width: 615
GlyphClass: 2
Flags: W
AnchorPoint: "Anchor-12" 534 550 basechar 0
AnchorPoint: "Anchor-11" 457 0 basechar 0
LayerCount: 2
Fore
SplineSet
534.5 501.5 m 128,-1,1
 502 465 502 465 460 449 c 1,2,3
 507 424 507 424 507 364 c 0,4,5
 507 357 507 357 505 339 c 2,6,-1
 481 163 l 2,7,8
 472 98 472 98 449 61 c 128,-1,9
 426 24 426 24 383.5 7.5 c 128,-1,10
 341 -9 341 -9 271 -9 c 0,11,12
 190 -9 190 -9 142 25 c 128,-1,13
 94 59 94 59 94 125 c 0,14,15
 94 133 94 133 96 151 c 2,16,-1
 110 249 l 2,17,18
 113 267 113 267 126 275 c 0,19,20
 182 312 182 312 208.5 332 c 128,-1,21
 235 352 235 352 255 383.5 c 128,-1,22
 275 415 275 415 275 457 c 0,23,24
 275 493 275 493 252.5 513 c 128,-1,25
 230 533 230 533 194 533 c 0,26,27
 154 533 154 533 132 514 c 128,-1,28
 110 495 110 495 110 463 c 0,29,30
 110 442 110 442 122 429.5 c 128,-1,31
 134 417 134 417 153 417 c 0,32,33
 177 417 177 417 188.5 429.5 c 128,-1,34
 200 442 200 442 200 464 c 0,35,36
 200 474 200 474 196.5 484 c 128,-1,37
 193 494 193 494 188 501 c 1,38,39
 194 504 194 504 204 504 c 0,40,41
 218 504 218 504 229 492 c 128,-1,42
 240 480 240 480 240 462 c 0,43,44
 240 423 240 423 215.5 397 c 128,-1,45
 191 371 191 371 148 371 c 0,46,47
 113 371 113 371 86.5 397 c 128,-1,48
 60 423 60 423 60 461 c 0,49,50
 60 512 60 512 97 545.5 c 128,-1,51
 134 579 134 579 195 579 c 0,52,53
 254 579 254 579 291.5 545 c 128,-1,54
 329 511 329 511 329 458 c 0,55,56
 329 389 329 389 286.5 338.5 c 128,-1,57
 244 288 244 288 174 243 c 1,58,-1
 161 152 l 1,59,-1
 159 127 l 2,60,61
 159 81 159 81 185.5 62 c 128,-1,62
 212 43 212 43 271 43 c 0,63,64
 339 43 339 43 372.5 68 c 128,-1,65
 406 93 406 93 415 159 c 2,66,-1
 440 339 l 2,67,68
 442 357 442 357 442 364 c 0,69,70
 442 392 442 392 429.5 408 c 128,-1,71
 417 424 417 424 404 424 c 0,72,73
 399 424 399 424 388.5 422 c 128,-1,74
 378 420 378 420 372 420 c 0,75,76
 364 420 364 420 354.5 433 c 128,-1,77
 345 446 345 446 345 454 c 0,78,79
 345 463 345 463 352 464 c 0,80,81
 419 476 419 476 460 512 c 128,-1,82
 501 548 501 548 520 611 c 1,83,84
 541 611 541 611 554 602 c 128,-1,85
 567 593 567 593 567 576 c 0,86,0
 567 538 567 538 534.5 501.5 c 128,-1,1
EndSplineSet
EndChar

StartChar: uni0E0B
Encoding: 3595 3595 440
Width: 615
GlyphClass: 2
Flags: W
AnchorPoint: "Anchor-12" 545 550 basechar 0
AnchorPoint: "Anchor-11" 468 0 basechar 0
LayerCount: 2
Fore
SplineSet
544.5 505.5 m 128,-1,1
 511 472 511 472 469 456 c 1,2,3
 492 447 492 447 505.5 427.5 c 128,-1,4
 519 408 519 408 519 377 c 0,5,6
 519 357 519 357 517 346 c 2,7,-1
 491 159 l 2,8,9
 480 79 480 79 418.5 35 c 128,-1,10
 357 -9 357 -9 264 -9 c 0,11,12
 187 -9 187 -9 140 24 c 128,-1,13
 93 57 93 57 93 128 c 0,14,15
 93 137 93 137 95 159 c 2,16,-1
 105 236 l 2,17,18
 110 277 110 277 135.5 305.5 c 128,-1,19
 161 334 161 334 207 369 c 0,20,21
 252 403 252 403 274.5 430 c 128,-1,22
 297 457 297 457 297 494 c 0,23,24
 297 512 297 512 287.5 521 c 128,-1,25
 278 530 278 530 261 530 c 0,26,27
 225 530 225 530 194 487 c 1,28,29
 182 512 182 512 171 523 c 128,-1,30
 160 534 160 534 138 534 c 0,31,32
 113 534 113 534 96.5 519.5 c 128,-1,33
 80 505 80 505 80 478 c 0,34,35
 80 456 80 456 92.5 444 c 128,-1,36
 105 432 105 432 125 432 c 0,37,38
 164 432 164 432 181 468 c 1,39,40
 194 462 194 462 194 447 c 0,41,42
 194 422 194 422 171.5 405 c 128,-1,43
 149 388 149 388 118 388 c 0,44,45
 80 388 80 388 56.5 411 c 128,-1,46
 33 434 33 434 33 472 c 0,47,48
 33 521 33 521 62.5 550.5 c 128,-1,49
 92 580 92 580 136 580 c 0,50,51
 162 580 162 580 176.5 570.5 c 128,-1,52
 191 561 191 561 203 541 c 1,53,54
 228 580 228 580 278 580 c 0,55,56
 312 580 312 580 335 560.5 c 128,-1,57
 358 541 358 541 358 503 c 0,58,59
 358 466 358 466 343.5 437.5 c 128,-1,60
 329 409 329 409 309 388.5 c 128,-1,61
 289 368 289 368 254 340 c 0,62,63
 213 307 213 307 193 284 c 128,-1,64
 173 261 173 261 169 230 c 2,65,-1
 160 159 l 2,66,67
 159 152 159 152 159 138 c 0,68,69
 159 90 159 90 189.5 67.5 c 128,-1,70
 220 45 220 45 273 45 c 0,71,72
 341 45 341 45 379.5 72 c 128,-1,73
 418 99 418 99 426 159 c 2,74,-1
 452 346 l 1,75,-1
 454 374 l 2,76,77
 454 403 454 403 444 417 c 128,-1,78
 434 431 434 431 421 431 c 0,79,80
 415 431 415 431 404.5 428.5 c 128,-1,81
 394 426 394 426 387 426 c 0,82,83
 381 426 381 426 372.5 438 c 128,-1,84
 364 450 364 450 364 458 c 0,85,86
 364 467 364 467 372 469 c 0,87,88
 435 482 435 482 472 515.5 c 128,-1,89
 509 549 509 549 531 611 c 1,90,91
 550 610 550 610 564 600.5 c 128,-1,92
 578 591 578 591 578 572 c 0,93,0
 578 539 578 539 544.5 505.5 c 128,-1,1
EndSplineSet
EndChar

StartChar: uni0E0C
Encoding: 3596 3596 441
Width: 920
GlyphClass: 2
Flags: W
AnchorPoint: "Anchor-12" 843 550 basechar 0
AnchorPoint: "Anchor-11" 766 0 basechar 0
LayerCount: 2
Fore
SplineSet
847 576 m 1,0,-1
 785 138 l 2,1,2
 778 77 778 77 776 44 c 0,3,4
 774 18 774 18 774 20 c 1,5,6
 771 0 771 0 756 0 c 2,7,-1
 703 0 l 1,8,9
 679 79 679 79 627.5 122.5 c 128,-1,10
 576 166 576 166 502 175 c 1,11,-1
 499 150 l 2,12,13
 496 134 496 134 492 100 c 0,14,15
 484 39 484 39 462.5 15 c 128,-1,16
 441 -9 441 -9 393 -9 c 0,17,18
 356 -9 356 -9 332.5 14.5 c 128,-1,19
 309 38 309 38 309 78 c 0,20,21
 309 139 309 139 347 179 c 128,-1,22
 385 219 385 219 445 227 c 1,23,-1
 466 378 l 2,24,25
 469 399 469 399 469 416 c 0,26,27
 469 475 469 475 428.5 505 c 128,-1,28
 388 535 388 535 314 535 c 0,29,30
 254 535 254 535 211 520.5 c 128,-1,31
 168 506 168 506 145.5 485 c 128,-1,32
 123 464 123 464 123 446 c 0,33,34
 123 423 123 423 143 405.5 c 128,-1,35
 163 388 163 388 183 388 c 0,36,37
 199 388 199 388 223 394 c 0,38,39
 241 398 241 398 248 398 c 256,40,41
 255 398 255 398 265.5 383 c 128,-1,42
 276 368 276 368 276 357 c 0,43,44
 276 349 276 349 270 349 c 0,45,46
 206 349 206 349 173 317.5 c 128,-1,47
 140 286 140 286 131 221 c 2,48,-1
 116 119 l 2,49,50
 115 111 115 111 115 97 c 0,51,52
 115 70 115 70 129 55.5 c 128,-1,53
 143 41 143 41 169 41 c 0,54,55
 194 41 194 41 207.5 54.5 c 128,-1,56
 221 68 221 68 221 93 c 0,57,58
 221 114 221 114 210.5 125.5 c 128,-1,59
 200 137 200 137 181 137 c 0,60,61
 160 137 160 137 142 131 c 1,62,63
 141 134 141 134 141 140 c 0,64,65
 141 156 141 156 154.5 167.5 c 128,-1,66
 168 179 168 179 193 179 c 0,67,68
 226 179 226 179 248.5 158 c 128,-1,69
 271 137 271 137 271 98 c 0,70,71
 271 50 271 50 241 21.5 c 128,-1,72
 211 -7 211 -7 162 -7 c 256,73,74
 113 -7 113 -7 81.5 21.5 c 128,-1,75
 50 50 50 50 50 96 c 0,76,77
 50 103 50 103 52 123 c 2,78,-1
 66 221 l 2,79,80
 72 267 72 267 88 298.5 c 128,-1,81
 104 330 104 330 131 352 c 1,82,83
 104 364 104 364 81.5 389 c 128,-1,84
 59 414 59 414 59 441 c 0,85,86
 59 474 59 474 90 507.5 c 128,-1,87
 121 541 121 541 178.5 563.5 c 128,-1,88
 236 586 236 586 311 586 c 0,89,90
 415 586 415 586 474.5 543.5 c 128,-1,91
 534 501 534 501 534 418 c 0,92,93
 534 401 534 401 531 383 c 2,94,-1
 510 226 l 1,95,96
 575 219 575 219 628.5 190.5 c 128,-1,97
 682 162 682 162 717 114 c 1,98,-1
 782 576 l 1,99,-1
 847 576 l 1,0,-1
419.5 57.5 m 128,-1,101
 426 72 426 72 432 112 c 0,102,103
 434 128 434 128 439 175 c 1,104,105
 403 170 403 170 384.5 147.5 c 128,-1,106
 366 125 366 125 366 85 c 0,107,108
 366 65 366 65 374 54 c 128,-1,109
 382 43 382 43 398 43 c 0,110,100
 413 43 413 43 419.5 57.5 c 128,-1,101
EndSplineSet
EndChar

StartChar: uni0E240E45
Encoding: 65537 -1 442
Width: 945
Flags: W
LayerCount: 2
Fore
SplineSet
466 378 m 2,0,1
 469 399 469 399 469 416 c 0,2,3
 469 475 469 475 428.5 505 c 128,-1,4
 388 535 388 535 314 535 c 0,5,6
 254 535 254 535 211 520.5 c 128,-1,7
 168 506 168 506 145.5 485 c 128,-1,8
 123 464 123 464 123 446 c 0,9,10
 123 423 123 423 143 405.5 c 128,-1,11
 163 388 163 388 183 388 c 0,12,13
 199 388 199 388 223 394 c 0,14,15
 241 398 241 398 248 398 c 256,16,17
 255 398 255 398 265.5 383 c 128,-1,18
 276 368 276 368 276 357 c 0,19,20
 276 349 276 349 270 349 c 0,21,22
 206 349 206 349 173.5 318 c 128,-1,23
 141 287 141 287 131 221 c 2,24,-1
 116 119 l 2,25,26
 115 111 115 111 115 97 c 0,27,28
 115 70 115 70 129 55.5 c 128,-1,29
 143 41 143 41 169 41 c 0,30,31
 194 41 194 41 207.5 54.5 c 128,-1,32
 221 68 221 68 221 93 c 0,33,34
 221 114 221 114 210.5 125.5 c 128,-1,35
 200 137 200 137 181 137 c 0,36,37
 160 137 160 137 142 131 c 1,38,39
 141 134 141 134 141 140 c 0,40,41
 141 156 141 156 154.5 167.5 c 128,-1,42
 168 179 168 179 193 179 c 0,43,44
 226 179 226 179 248.5 158 c 128,-1,45
 271 137 271 137 271 98 c 0,46,47
 271 50 271 50 241 21.5 c 128,-1,48
 211 -7 211 -7 162 -7 c 256,49,50
 113 -7 113 -7 81.5 21.5 c 128,-1,51
 50 50 50 50 50 96 c 0,52,53
 50 103 50 103 52 123 c 2,54,-1
 66 221 l 2,55,56
 72 267 72 267 88 298.5 c 128,-1,57
 104 330 104 330 131 352 c 1,58,59
 104 364 104 364 81.5 389 c 128,-1,60
 59 414 59 414 59 441 c 0,61,62
 59 474 59 474 90 507.5 c 128,-1,63
 121 541 121 541 178.5 563.5 c 128,-1,64
 236 586 236 586 311 586 c 0,65,66
 377 586 377 586 426 569 c 128,-1,67
 475 552 475 552 502 518 c 1,68,69
 582 586 582 586 690 586 c 0,70,71
 770 586 770 586 818 544 c 128,-1,72
 866 502 866 502 866 428 c 0,73,74
 866 407 866 407 864 395 c 2,75,-1
 778 -216 l 1,76,-1
 713 -216 l 1,77,-1
 799 395 l 2,78,79
 801 415 801 415 801 424 c 0,80,81
 801 477 801 477 769.5 504.5 c 128,-1,82
 738 532 738 532 682 532 c 0,83,84
 594 532 594 532 527 468 c 1,85,86
 534 447 534 447 534 418 c 0,87,88
 534 401 534 401 531 383 c 2,89,-1
 447 -220 l 1,90,-1
 382 -220 l 1,91,-1
 466 378 l 2,0,1
EndSplineSet
Ligature2: "'liga' Standard Ligatures lookup 13 subtable" uni0E24 uni0E45
EndChar

StartChar: uni0E260E45
Encoding: 65538 -1 443
Width: 955
Flags: W
LayerCount: 2
Fore
SplineSet
479 366 m 2,0,1
 482 390 482 390 482 410 c 0,2,3
 482 481 482 481 443 508 c 128,-1,4
 404 535 404 535 332 535 c 0,5,6
 281 535 281 535 235.5 520 c 128,-1,7
 190 505 190 505 162.5 483.5 c 128,-1,8
 135 462 135 462 135 445 c 0,9,10
 135 433 135 433 146 420 c 128,-1,11
 157 407 157 407 171 398 c 128,-1,12
 185 389 185 389 191 389 c 0,13,14
 201 389 201 389 224 398 c 0,15,16
 228 399 228 399 240 403 c 128,-1,17
 252 407 252 407 259 407 c 0,18,19
 267 407 267 407 277 393.5 c 128,-1,20
 287 380 287 380 287 370 c 0,21,22
 287 361 287 361 281 361 c 0,23,24
 232 361 232 361 196.5 331 c 128,-1,25
 161 301 161 301 161 247 c 2,26,-1
 163 185 l 1,27,-1
 165 110 l 2,28,29
 165 51 165 51 132.5 21.5 c 128,-1,30
 100 -8 100 -8 49 -8 c 0,31,32
 13 -8 13 -8 -9 14 c 128,-1,33
 -31 36 -31 36 -31 70 c 0,34,35
 -31 111 -31 111 -5 132.5 c 128,-1,36
 21 154 21 154 53 154 c 0,37,38
 70 154 70 154 79 144.5 c 128,-1,39
 88 135 88 135 86 120 c 1,40,-1
 67 120 l 2,41,42
 44 120 44 120 30 108.5 c 128,-1,43
 16 97 16 97 16 78 c 0,44,45
 16 38 16 38 55 38 c 0,46,47
 85 38 85 38 97 61 c 128,-1,48
 109 84 109 84 109 124 c 0,49,50
 109 139 109 139 107 175 c 0,51,52
 105 213 105 213 105 231 c 0,53,54
 105 314 105 314 149 351 c 1,55,56
 118 361 118 361 93 387.5 c 128,-1,57
 68 414 68 414 68 445 c 0,58,59
 68 473 68 473 101 506.5 c 128,-1,60
 134 540 134 540 193.5 563 c 128,-1,61
 253 586 253 586 329 586 c 0,62,63
 387 586 387 586 435.5 570 c 128,-1,64
 484 554 484 554 512 519 c 1,65,66
 594 586 594 586 700 586 c 0,67,68
 780 586 780 586 828 544 c 128,-1,69
 876 502 876 502 876 428 c 0,70,71
 876 407 876 407 874 395 c 2,72,-1
 788 -216 l 1,73,-1
 723 -216 l 1,74,-1
 809 395 l 2,75,76
 811 415 811 415 811 424 c 0,77,78
 811 477 811 477 779.5 504.5 c 128,-1,79
 748 532 748 532 692 532 c 0,80,81
 604 532 604 532 539 470 c 1,82,83
 547 441 547 441 547 411 c 0,84,85
 547 390 547 390 544 366 c 2,86,-1
 462 -220 l 1,87,-1
 397 -220 l 1,88,-1
 479 366 l 2,0,1
EndSplineSet
Ligature2: "'liga' Standard Ligatures lookup 13 subtable" uni0E26 uni0E45
EndChar

StartChar: uni0E0D
Encoding: 3597 3597 444
Width: 940
GlyphClass: 2
Flags: W
AnchorPoint: "Anchor-12" 880 550 basechar 0
AnchorPoint: "Anchor-11" 736 -228 basechar 0
LayerCount: 2
Fore
SplineSet
468 23 m 128,-1,1
 424 55 424 55 424 127 c 0,2,3
 424 146 424 146 427 170 c 2,4,-1
 456 378 l 2,5,6
 459 399 459 399 459 416 c 0,7,8
 459 475 459 475 418.5 505 c 128,-1,9
 378 535 378 535 305 535 c 0,10,11
 245 535 245 535 204 520.5 c 128,-1,12
 163 506 163 506 143 485.5 c 128,-1,13
 123 465 123 465 123 446 c 0,14,15
 123 423 123 423 143 405.5 c 128,-1,16
 163 388 163 388 183 388 c 0,17,18
 199 388 199 388 223 394 c 0,19,20
 241 398 241 398 248 398 c 256,21,22
 255 398 255 398 265.5 383 c 128,-1,23
 276 368 276 368 276 357 c 0,24,25
 276 349 276 349 270 349 c 0,26,27
 206 349 206 349 173 317.5 c 128,-1,28
 140 286 140 286 131 221 c 2,29,-1
 116 119 l 2,30,31
 115 111 115 111 115 97 c 0,32,33
 115 70 115 70 129 55.5 c 128,-1,34
 143 41 143 41 169 41 c 0,35,36
 194 41 194 41 207.5 54.5 c 128,-1,37
 221 68 221 68 221 93 c 0,38,39
 221 114 221 114 210.5 125.5 c 128,-1,40
 200 137 200 137 181 137 c 0,41,42
 160 137 160 137 142 131 c 1,43,44
 141 134 141 134 141 140 c 0,45,46
 141 156 141 156 154.5 167.5 c 128,-1,47
 168 179 168 179 193 179 c 0,48,49
 226 179 226 179 248.5 158 c 128,-1,50
 271 137 271 137 271 98 c 0,51,52
 271 50 271 50 241 21.5 c 128,-1,53
 211 -7 211 -7 162 -7 c 256,54,55
 113 -7 113 -7 81.5 21.5 c 128,-1,56
 50 50 50 50 50 96 c 0,57,58
 50 103 50 103 52 123 c 2,59,-1
 66 221 l 2,60,61
 72 267 72 267 88 298.5 c 128,-1,62
 104 330 104 330 131 352 c 1,63,64
 104 364 104 364 81.5 389 c 128,-1,65
 59 414 59 414 59 441 c 0,66,67
 59 474 59 474 88 508 c 128,-1,68
 117 542 117 542 172 564 c 128,-1,69
 227 586 227 586 302 586 c 0,70,71
 406 586 406 586 465 543.5 c 128,-1,72
 524 501 524 501 524 418 c 0,73,74
 524 401 524 401 521 383 c 2,75,-1
 492 172 l 2,76,77
 489 151 489 151 489 133 c 0,78,79
 489 83 489 83 516.5 64.5 c 128,-1,80
 544 46 544 46 609 46 c 0,81,82
 662 46 662 46 692.5 57 c 128,-1,83
 723 68 723 68 739 94.5 c 128,-1,84
 755 121 755 121 762 170 c 2,85,-1
 819 576 l 1,86,-1
 884 576 l 1,87,-1
 827 170 l 2,88,89
 813 72 813 72 758 31.5 c 128,-1,90
 703 -9 703 -9 601 -9 c 0,91,0
 512 -9 512 -9 468 23 c 128,-1,1
442.5 -202.5 m 128,-1,93
 405 -177 405 -177 405 -129 c 0,94,95
 405 -92 405 -92 430.5 -70.5 c 128,-1,96
 456 -49 456 -49 496 -49 c 0,97,98
 525 -49 525 -49 542 -65.5 c 128,-1,99
 559 -82 559 -82 559 -105 c 0,100,101
 559 -126 559 -126 548 -140 c 128,-1,102
 537 -154 537 -154 521 -154 c 0,103,104
 515 -154 515 -154 507 -151 c 1,105,106
 513 -144 513 -144 514.5 -137.5 c 128,-1,107
 516 -131 516 -131 516 -121 c 0,108,109
 516 -109 516 -109 508.5 -101 c 128,-1,110
 501 -93 501 -93 489 -93 c 0,111,112
 454 -93 454 -93 454 -126 c 0,113,114
 454 -149 454 -149 478 -164.5 c 128,-1,115
 502 -180 502 -180 547 -180 c 0,116,117
 606 -180 606 -180 639 -159.5 c 128,-1,118
 672 -139 672 -139 693 -89 c 0,119,120
 703 -66 703 -66 725 -66 c 0,121,122
 742 -66 742 -66 767 -78 c 1,123,124
 744 -152 744 -152 682 -190 c 128,-1,125
 620 -228 620 -228 541 -228 c 0,126,92
 480 -228 480 -228 442.5 -202.5 c 128,-1,93
EndSplineSet
Substitution2: "Single Substitution lookup 14 subtable" yoYingthai.less
Substitution2: "'aalt' Access All Alternates lookup 0 subtable" yoYingthai.less
EndChar

StartChar: yoYingthai.less
Encoding: 65539 -1 445
Width: 940
GlyphClass: 2
Flags: W
AnchorPoint: "Anchor-12" 880 550 basechar 0
AnchorPoint: "Anchor-11" 803 0 basechar 0
LayerCount: 2
Fore
SplineSet
468 23 m 128,-1,1
 424 55 424 55 424 127 c 0,2,3
 424 146 424 146 427 170 c 2,4,-1
 456 378 l 2,5,6
 459 399 459 399 459 416 c 0,7,8
 459 475 459 475 418.5 505 c 128,-1,9
 378 535 378 535 305 535 c 0,10,11
 245 535 245 535 204 520.5 c 128,-1,12
 163 506 163 506 143 485.5 c 128,-1,13
 123 465 123 465 123 446 c 0,14,15
 123 423 123 423 143 405.5 c 128,-1,16
 163 388 163 388 183 388 c 0,17,18
 199 388 199 388 223 394 c 0,19,20
 241 398 241 398 248 398 c 256,21,22
 255 398 255 398 265.5 383 c 128,-1,23
 276 368 276 368 276 357 c 0,24,25
 276 349 276 349 270 349 c 0,26,27
 206 349 206 349 173 317.5 c 128,-1,28
 140 286 140 286 131 221 c 2,29,-1
 116 119 l 2,30,31
 115 111 115 111 115 97 c 0,32,33
 115 70 115 70 129 55.5 c 128,-1,34
 143 41 143 41 169 41 c 0,35,36
 194 41 194 41 207.5 54.5 c 128,-1,37
 221 68 221 68 221 93 c 0,38,39
 221 114 221 114 210.5 125.5 c 128,-1,40
 200 137 200 137 181 137 c 0,41,42
 160 137 160 137 142 131 c 1,43,44
 141 134 141 134 141 140 c 0,45,46
 141 156 141 156 154.5 167.5 c 128,-1,47
 168 179 168 179 193 179 c 0,48,49
 226 179 226 179 248.5 158 c 128,-1,50
 271 137 271 137 271 98 c 0,51,52
 271 50 271 50 241 21.5 c 128,-1,53
 211 -7 211 -7 162 -7 c 256,54,55
 113 -7 113 -7 81.5 21.5 c 128,-1,56
 50 50 50 50 50 96 c 0,57,58
 50 103 50 103 52 123 c 2,59,-1
 66 221 l 2,60,61
 72 267 72 267 88 298.5 c 128,-1,62
 104 330 104 330 131 352 c 1,63,64
 104 364 104 364 81.5 389 c 128,-1,65
 59 414 59 414 59 441 c 0,66,67
 59 474 59 474 88 508 c 128,-1,68
 117 542 117 542 172 564 c 128,-1,69
 227 586 227 586 302 586 c 0,70,71
 406 586 406 586 465 543.5 c 128,-1,72
 524 501 524 501 524 418 c 0,73,74
 524 401 524 401 521 383 c 2,75,-1
 492 172 l 2,76,77
 489 151 489 151 489 133 c 0,78,79
 489 83 489 83 516.5 64.5 c 128,-1,80
 544 46 544 46 609 46 c 0,81,82
 662 46 662 46 692.5 57 c 128,-1,83
 723 68 723 68 739 94.5 c 128,-1,84
 755 121 755 121 762 170 c 2,85,-1
 819 576 l 1,86,-1
 884 576 l 1,87,-1
 827 170 l 2,88,89
 813 72 813 72 758 31.5 c 128,-1,90
 703 -9 703 -9 601 -9 c 0,91,0
 512 -9 512 -9 468 23 c 128,-1,1
EndSplineSet
EndChar

StartChar: uni0E0E
Encoding: 3598 3598 446
Width: 629
GlyphClass: 2
Flags: W
AnchorPoint: "Anchor-12" 570 550 basechar 0
AnchorPoint: "Anchor-11" 458 -245 basechar 0
LayerCount: 2
Fore
SplineSet
485 544.5 m 128,-1,1
 547 503 547 503 547 411 c 0,2,3
 547 390 547 390 544 366 c 2,4,-1
 458 -245 l 1,5,-1
 392 -245 l 1,6,7
 377 -219 377 -219 352 -193.5 c 128,-1,8
 327 -168 327 -168 297 -148 c 1,9,10
 266 -194 266 -194 217 -221.5 c 128,-1,11
 168 -249 168 -249 116 -249 c 0,12,13
 68 -249 68 -249 37 -226 c 128,-1,14
 6 -203 6 -203 6 -168 c 0,15,16
 6 -140 6 -140 28.5 -115 c 128,-1,17
 51 -90 51 -90 89 -74.5 c 128,-1,18
 127 -59 127 -59 171 -59 c 0,19,20
 220 -59 220 -59 268 -75 c 1,21,22
 276 -54 276 -54 285 -13 c 1,23,24
 310 -13 310 -13 322 -22.5 c 128,-1,25
 334 -32 334 -32 334 -47 c 0,26,27
 334 -71 334 -71 322 -100 c 1,28,29
 372 -128 372 -128 403 -169 c 1,30,-1
 479 366 l 2,31,32
 482 390 482 390 482 410 c 0,33,34
 482 481 482 481 443 508 c 128,-1,35
 404 535 404 535 332 535 c 0,36,37
 281 535 281 535 235.5 520 c 128,-1,38
 190 505 190 505 162.5 483.5 c 128,-1,39
 135 462 135 462 135 445 c 0,40,41
 135 433 135 433 146 420 c 128,-1,42
 157 407 157 407 171 398 c 128,-1,43
 185 389 185 389 191 389 c 0,44,45
 201 389 201 389 224 398 c 0,46,47
 228 399 228 399 240 403 c 128,-1,48
 252 407 252 407 259 407 c 0,49,50
 267 407 267 407 277 393.5 c 128,-1,51
 287 380 287 380 287 370 c 0,52,53
 287 361 287 361 281 361 c 0,54,55
 232 361 232 361 196.5 331 c 128,-1,56
 161 301 161 301 161 247 c 2,57,-1
 163 185 l 1,58,-1
 165 110 l 2,59,60
 165 51 165 51 132.5 21.5 c 128,-1,61
 100 -8 100 -8 49 -8 c 0,62,63
 13 -8 13 -8 -9 14 c 128,-1,64
 -31 36 -31 36 -31 70 c 0,65,66
 -31 111 -31 111 -5 132.5 c 128,-1,67
 21 154 21 154 53 154 c 0,68,69
 70 154 70 154 79 144.5 c 128,-1,70
 88 135 88 135 86 120 c 1,71,-1
 67 120 l 2,72,73
 44 120 44 120 30 108.5 c 128,-1,74
 16 97 16 97 16 78 c 0,75,76
 16 38 16 38 55 38 c 0,77,78
 85 38 85 38 97 61 c 128,-1,79
 109 84 109 84 109 124 c 0,80,81
 109 139 109 139 107 175 c 0,82,83
 105 213 105 213 105 231 c 0,84,85
 105 312 105 312 149 351 c 1,86,87
 118 361 118 361 93 387.5 c 128,-1,88
 68 414 68 414 68 445 c 0,89,90
 68 473 68 473 101 506.5 c 128,-1,91
 134 540 134 540 193.5 563 c 128,-1,92
 253 586 253 586 329 586 c 0,93,0
 423 586 423 586 485 544.5 c 128,-1,1
191 -180 m 128,-1,95
 223 -160 223 -160 246 -121 c 1,96,97
 206 -106 206 -106 171 -106 c 0,98,99
 123 -106 123 -106 94.5 -123.5 c 128,-1,100
 66 -141 66 -141 66 -163 c 0,101,102
 66 -180 66 -180 81.5 -190 c 128,-1,103
 97 -200 97 -200 122 -200 c 0,104,94
 159 -200 159 -200 191 -180 c 128,-1,95
EndSplineSet
Substitution2: "Single Substitution lookup 14 subtable" doChadathai.short
Substitution2: "'aalt' Access All Alternates lookup 0 subtable" doChadathai.short
EndChar

StartChar: doChadathai.short
Encoding: 65540 -1 447
Width: 629
GlyphClass: 2
Flags: W
AnchorPoint: "Anchor-12" 570 550 basechar 0
AnchorPoint: "Anchor-11" 464 -195 basechar 0
LayerCount: 2
Fore
SplineSet
485 544.5 m 128,-1,1
 547 503 547 503 547 411 c 0,2,3
 547 390 547 390 544 366 c 2,4,-1
 464 -195 l 1,5,-1
 398 -195 l 1,6,7
 383 -169 383 -169 358 -143.5 c 128,-1,8
 333 -118 333 -118 303 -98 c 1,9,10
 272 -144 272 -144 223 -171.5 c 128,-1,11
 174 -199 174 -199 122 -199 c 0,12,13
 74 -199 74 -199 43 -176 c 128,-1,14
 12 -153 12 -153 12 -118 c 0,15,16
 12 -90 12 -90 34.5 -65 c 128,-1,17
 57 -40 57 -40 95 -24.5 c 128,-1,18
 133 -9 133 -9 177 -9 c 0,19,20
 226 -9 226 -9 274 -25 c 1,21,22
 282 -4 282 -4 291 37 c 1,23,24
 316 37 316 37 328 27.5 c 128,-1,25
 340 18 340 18 340 3 c 0,26,27
 340 -21 340 -21 328 -50 c 1,28,29
 376 -77 376 -77 410 -119 c 1,30,-1
 479 366 l 2,31,32
 482 390 482 390 482 410 c 0,33,34
 482 481 482 481 443 508 c 128,-1,35
 404 535 404 535 332 535 c 0,36,37
 281 535 281 535 235.5 520 c 128,-1,38
 190 505 190 505 162.5 483.5 c 128,-1,39
 135 462 135 462 135 445 c 0,40,41
 135 433 135 433 146 420 c 128,-1,42
 157 407 157 407 171 398 c 128,-1,43
 185 389 185 389 191 389 c 0,44,45
 201 389 201 389 224 398 c 0,46,47
 228 399 228 399 240 403 c 128,-1,48
 252 407 252 407 259 407 c 0,49,50
 267 407 267 407 277 393.5 c 128,-1,51
 287 380 287 380 287 370 c 0,52,53
 287 361 287 361 281 361 c 0,54,55
 232 361 232 361 196.5 331 c 128,-1,56
 161 301 161 301 161 247 c 2,57,-1
 163 185 l 1,58,-1
 165 110 l 2,59,60
 165 51 165 51 132.5 21.5 c 128,-1,61
 100 -8 100 -8 49 -8 c 0,62,63
 13 -8 13 -8 -9 14 c 128,-1,64
 -31 36 -31 36 -31 70 c 0,65,66
 -31 111 -31 111 -5 132.5 c 128,-1,67
 21 154 21 154 53 154 c 0,68,69
 70 154 70 154 79 144.5 c 128,-1,70
 88 135 88 135 86 120 c 1,71,-1
 67 120 l 2,72,73
 44 120 44 120 30 108.5 c 128,-1,74
 16 97 16 97 16 78 c 0,75,76
 16 38 16 38 55 38 c 0,77,78
 85 38 85 38 97 61 c 128,-1,79
 109 84 109 84 109 124 c 0,80,81
 109 139 109 139 107 175 c 0,82,83
 105 213 105 213 105 231 c 0,84,85
 105 312 105 312 149 351 c 1,86,87
 118 361 118 361 93 387.5 c 128,-1,88
 68 414 68 414 68 445 c 0,89,90
 68 473 68 473 101 506.5 c 128,-1,91
 134 540 134 540 193.5 563 c 128,-1,92
 253 586 253 586 329 586 c 0,93,0
 423 586 423 586 485 544.5 c 128,-1,1
197 -130 m 128,-1,95
 229 -110 229 -110 252 -71 c 1,96,97
 212 -56 212 -56 177 -56 c 0,98,99
 129 -56 129 -56 100.5 -73.5 c 128,-1,100
 72 -91 72 -91 72 -113 c 0,101,102
 72 -130 72 -130 87.5 -140 c 128,-1,103
 103 -150 103 -150 128 -150 c 0,104,94
 165 -150 165 -150 197 -130 c 128,-1,95
EndSplineSet
EndChar

StartChar: uni0E0F
Encoding: 3599 3599 448
Width: 629
GlyphClass: 2
Flags: W
AnchorPoint: "Anchor-12" 570 550 basechar 0
AnchorPoint: "Anchor-11" 456 -250 basechar 0
LayerCount: 2
Fore
SplineSet
485 544.5 m 128,-1,1
 547 503 547 503 547 411 c 0,2,3
 547 390 547 390 544 366 c 2,4,-1
 456 -250 l 1,5,-1
 388 -250 l 1,6,-1
 323 -195 l 1,7,-1
 240 -247 l 1,8,-1
 202 -205 l 1,9,10
 179 -228 179 -228 148.5 -240.5 c 128,-1,11
 118 -253 118 -253 83 -253 c 0,12,13
 43 -253 43 -253 13 -231.5 c 128,-1,14
 -17 -210 -17 -210 -17 -175 c 0,15,16
 -17 -133 -17 -133 15 -108.5 c 128,-1,17
 47 -84 47 -84 88 -84 c 0,18,19
 144 -84 144 -84 196 -128 c 1,20,21
 209 -87 209 -87 209 -36 c 1,22,23
 230 -36 230 -36 242.5 -47 c 128,-1,24
 255 -58 255 -58 255 -79 c 0,25,26
 255 -126 255 -126 233 -165 c 1,27,-1
 253 -187 l 1,28,-1
 332 -139 l 1,29,-1
 400 -195 l 1,30,-1
 479 366 l 2,31,32
 482 390 482 390 482 410 c 0,33,34
 482 481 482 481 443 508 c 128,-1,35
 404 535 404 535 332 535 c 0,36,37
 281 535 281 535 235.5 520 c 128,-1,38
 190 505 190 505 162.5 483.5 c 128,-1,39
 135 462 135 462 135 445 c 0,40,41
 135 433 135 433 146 420 c 128,-1,42
 157 407 157 407 171 398 c 128,-1,43
 185 389 185 389 191 389 c 0,44,45
 201 389 201 389 224 398 c 0,46,47
 228 399 228 399 240 403 c 128,-1,48
 252 407 252 407 259 407 c 0,49,50
 267 407 267 407 277 393.5 c 128,-1,51
 287 380 287 380 287 370 c 0,52,53
 287 361 287 361 281 361 c 0,54,55
 232 361 232 361 196.5 331 c 128,-1,56
 161 301 161 301 161 247 c 2,57,-1
 163 185 l 1,58,-1
 165 110 l 2,59,60
 165 51 165 51 132.5 21.5 c 128,-1,61
 100 -8 100 -8 49 -8 c 0,62,63
 13 -8 13 -8 -9 14 c 128,-1,64
 -31 36 -31 36 -31 70 c 0,65,66
 -31 111 -31 111 -5 132.5 c 128,-1,67
 21 154 21 154 53 154 c 0,68,69
 70 154 70 154 79 144.5 c 128,-1,70
 88 135 88 135 86 120 c 1,71,-1
 67 120 l 2,72,73
 44 120 44 120 30 108.5 c 128,-1,74
 16 97 16 97 16 78 c 0,75,76
 16 38 16 38 55 38 c 0,77,78
 85 38 85 38 97 61 c 128,-1,79
 109 84 109 84 109 124 c 0,80,81
 109 139 109 139 107 175 c 0,82,83
 105 213 105 213 105 231 c 0,84,85
 105 312 105 312 149 351 c 1,86,87
 118 361 118 361 93 387.5 c 128,-1,88
 68 414 68 414 68 445 c 0,89,90
 68 473 68 473 101 506.5 c 128,-1,91
 134 540 134 540 193.5 563 c 128,-1,92
 253 586 253 586 329 586 c 0,93,0
 423 586 423 586 485 544.5 c 128,-1,1
171 -172 m 1,95,96
 129 -128 129 -128 89 -128 c 0,97,98
 65 -128 65 -128 50 -139.5 c 128,-1,99
 35 -151 35 -151 35 -169 c 256,100,101
 35 -187 35 -187 51 -198 c 128,-1,102
 67 -209 67 -209 90 -209 c 0,103,94
 141 -209 141 -209 171 -172 c 1,95,96
EndSplineSet
Substitution2: "Single Substitution lookup 14 subtable" toPatakthai.short
Substitution2: "'aalt' Access All Alternates lookup 0 subtable" toPatakthai.short
EndChar

StartChar: toPatakthai.short
Encoding: 65541 -1 449
Width: 629
GlyphClass: 2
Flags: W
AnchorPoint: "Anchor-12" 570 550 basechar 0
AnchorPoint: "Anchor-11" 464 -197 basechar 0
LayerCount: 2
Fore
SplineSet
485 544.5 m 128,-1,1
 547 503 547 503 547 411 c 0,2,3
 547 390 547 390 544 366 c 2,4,-1
 464 -197 l 1,5,-1
 396 -197 l 1,6,-1
 331 -142 l 1,7,-1
 248 -194 l 1,8,-1
 210 -152 l 1,9,10
 187 -175 187 -175 156.5 -187.5 c 128,-1,11
 126 -200 126 -200 91 -200 c 0,12,13
 51 -200 51 -200 21 -178.5 c 128,-1,14
 -9 -157 -9 -157 -9 -122 c 0,15,16
 -9 -80 -9 -80 23 -55.5 c 128,-1,17
 55 -31 55 -31 96 -31 c 0,18,19
 152 -31 152 -31 204 -75 c 1,20,21
 217 -34 217 -34 217 17 c 1,22,23
 238 17 238 17 250.5 6 c 128,-1,24
 263 -5 263 -5 263 -26 c 0,25,26
 263 -73 263 -73 241 -112 c 1,27,-1
 261 -134 l 1,28,-1
 340 -86 l 1,29,-1
 408 -142 l 1,30,-1
 479 366 l 2,31,32
 482 390 482 390 482 410 c 0,33,34
 482 481 482 481 443 508 c 128,-1,35
 404 535 404 535 332 535 c 0,36,37
 281 535 281 535 235.5 520 c 128,-1,38
 190 505 190 505 162.5 483.5 c 128,-1,39
 135 462 135 462 135 445 c 0,40,41
 135 433 135 433 146 420 c 128,-1,42
 157 407 157 407 171 398 c 128,-1,43
 185 389 185 389 191 389 c 0,44,45
 201 389 201 389 224 398 c 0,46,47
 228 399 228 399 240 403 c 128,-1,48
 252 407 252 407 259 407 c 0,49,50
 267 407 267 407 277 393.5 c 128,-1,51
 287 380 287 380 287 370 c 0,52,53
 287 361 287 361 281 361 c 0,54,55
 232 361 232 361 196.5 331 c 128,-1,56
 161 301 161 301 161 247 c 2,57,-1
 163 185 l 1,58,-1
 165 110 l 2,59,60
 165 51 165 51 132.5 21.5 c 128,-1,61
 100 -8 100 -8 49 -8 c 0,62,63
 13 -8 13 -8 -9 14 c 128,-1,64
 -31 36 -31 36 -31 70 c 0,65,66
 -31 111 -31 111 -5 132.5 c 128,-1,67
 21 154 21 154 53 154 c 0,68,69
 70 154 70 154 79 144.5 c 128,-1,70
 88 135 88 135 86 120 c 1,71,-1
 67 120 l 2,72,73
 44 120 44 120 30 108.5 c 128,-1,74
 16 97 16 97 16 78 c 0,75,76
 16 38 16 38 55 38 c 0,77,78
 85 38 85 38 97 61 c 128,-1,79
 109 84 109 84 109 124 c 0,80,81
 109 139 109 139 107 175 c 0,82,83
 105 213 105 213 105 231 c 0,84,85
 105 312 105 312 149 351 c 1,86,87
 118 361 118 361 93 387.5 c 128,-1,88
 68 414 68 414 68 445 c 0,89,90
 68 473 68 473 101 506.5 c 128,-1,91
 134 540 134 540 193.5 563 c 128,-1,92
 253 586 253 586 329 586 c 0,93,0
 423 586 423 586 485 544.5 c 128,-1,1
179 -119 m 1,95,96
 137 -75 137 -75 97 -75 c 0,97,98
 73 -75 73 -75 58 -86.5 c 128,-1,99
 43 -98 43 -98 43 -116 c 256,100,101
 43 -134 43 -134 59 -145 c 128,-1,102
 75 -156 75 -156 98 -156 c 0,103,94
 149 -156 149 -156 179 -119 c 1,95,96
EndSplineSet
EndChar

StartChar: uni0E10
Encoding: 3600 3600 450
Width: 589
GlyphClass: 2
Flags: W
AnchorPoint: "Anchor-12" 524 550 basechar 0
AnchorPoint: "Anchor-11" 390 -282 basechar 0
LayerCount: 2
Fore
SplineSet
146 437 m 0,1,2
 146 418 146 418 153 406 c 1,3,-1
 178 408 l 2,4,5
 266 416 266 416 322 414 c 0,6,7
 396 411 396 411 436.5 377 c 128,-1,8
 477 343 477 343 477 281 c 0,9,10
 477 250 477 250 469 214.5 c 128,-1,11
 461 179 461 179 443 118 c 0,12,13
 421 44 421 44 415 18 c 0,14,15
 412 6 412 6 382.5 -1.5 c 128,-1,16
 353 -9 353 -9 313 -9 c 256,17,18
 273 -9 273 -9 243 0 c 128,-1,19
 213 9 213 9 215 20 c 0,20,21
 226 115 226 115 226 178 c 0,22,23
 226 208 226 208 213.5 224 c 128,-1,24
 201 240 201 240 180 240 c 256,25,26
 159 240 159 240 147 229.5 c 128,-1,27
 135 219 135 219 135 198 c 0,28,29
 135 180 135 180 145 169 c 128,-1,30
 155 158 155 158 172 158 c 0,31,32
 193 158 193 158 208 170 c 1,33,34
 211 164 211 164 211 157 c 0,35,36
 211 142 211 142 197 131 c 128,-1,37
 183 120 183 120 161 120 c 0,38,39
 126 120 126 120 104.5 140.5 c 128,-1,40
 83 161 83 161 83 198 c 0,41,42
 83 236 83 236 110.5 261 c 128,-1,43
 138 286 138 286 184 286 c 256,44,45
 230 286 230 286 256.5 258 c 128,-1,46
 283 230 283 230 284 180 c 0,47,48
 285 138 285 138 279 79 c 2,49,-1
 277 49 l 2,50,51
 277 44 277 44 288.5 40.5 c 128,-1,52
 300 37 300 37 317 37 c 0,53,54
 335 37 335 37 346.5 40.5 c 128,-1,55
 358 44 358 44 360 49 c 0,56,57
 368 81 368 81 380 125 c 0,58,59
 396 183 396 183 403.5 214.5 c 128,-1,60
 411 246 411 246 411 271 c 0,61,62
 411 312 411 312 385.5 335 c 128,-1,63
 360 358 360 358 304 360 c 0,64,65
 259 362 259 362 205.5 357 c 128,-1,66
 152 352 152 352 143 351 c 2,67,-1
 107 347 l 1,68,69
 81 390 81 390 81 438 c 0,70,71
 81 505 81 505 122 543.5 c 128,-1,72
 163 582 163 582 237 582 c 0,73,74
 273 582 273 582 341 572 c 0,75,76
 397 563 397 563 426 563 c 0,77,78
 468 563 468 563 494 569 c 128,-1,79
 520 575 520 575 534 589 c 1,80,81
 544 575 544 575 544 557 c 0,82,83
 544 529 544 529 519 517 c 128,-1,84
 494 505 494 505 440 505 c 0,85,86
 406 505 406 505 346 516 c 0,87,88
 276 528 276 528 239 528 c 0,89,0
 146 528 146 528 146 437 c 0,1,2
408.5 -79 m 128,-1,91
 429 -100 429 -100 429 -130 c 0,92,93
 429 -150 429 -150 423 -166 c 128,-1,94
 417 -182 417 -182 405 -203 c 0,95,96
 392 -229 392 -229 385.5 -244.5 c 128,-1,97
 379 -260 379 -260 376 -282 c 1,98,-1
 313 -282 l 1,99,-1
 266 -249 l 1,100,-1
 203 -285 l 1,101,-1
 164 -240 l 1,102,103
 143 -261 143 -261 117.5 -273 c 128,-1,104
 92 -285 92 -285 66 -285 c 0,105,106
 27 -285 27 -285 4.5 -263.5 c 128,-1,107
 -18 -242 -18 -242 -18 -207 c 0,108,109
 -18 -170 -18 -170 5.5 -149 c 128,-1,110
 29 -128 29 -128 69 -128 c 0,111,112
 117 -128 117 -128 159 -170 c 1,113,114
 170 -140 170 -140 171 -104 c 1,115,116
 195 -104 195 -104 203.5 -109 c 128,-1,117
 212 -114 212 -114 212 -129 c 0,118,119
 212 -168 212 -168 191 -205 c 1,120,-1
 216 -231 l 1,121,-1
 269 -203 l 1,122,-1
 332 -240 l 1,123,124
 335 -219 335 -219 356 -189 c 0,125,126
 368 -169 368 -169 374 -157 c 128,-1,127
 380 -145 380 -145 380 -131 c 0,128,129
 380 -116 380 -116 371 -107 c 128,-1,130
 362 -98 362 -98 349 -98 c 0,131,132
 334 -98 334 -98 323.5 -107 c 128,-1,133
 313 -116 313 -116 313 -130 c 0,134,135
 313 -146 313 -146 322 -156 c 128,-1,136
 331 -166 331 -166 347 -169 c 1,137,138
 345 -175 345 -175 338 -179 c 128,-1,139
 331 -183 331 -183 319 -183 c 0,140,141
 300 -183 300 -183 287 -167.5 c 128,-1,142
 274 -152 274 -152 274 -128 c 0,143,144
 274 -95 274 -95 296.5 -76.5 c 128,-1,145
 319 -58 319 -58 353 -58 c 0,146,90
 388 -58 388 -58 408.5 -79 c 128,-1,91
136 -210 m 1,148,149
 118 -190 118 -190 102.5 -180.5 c 128,-1,150
 87 -171 87 -171 69 -171 c 256,151,152
 51 -171 51 -171 39.5 -180 c 128,-1,153
 28 -189 28 -189 28 -207 c 0,154,155
 28 -223 28 -223 39.5 -232 c 128,-1,156
 51 -241 51 -241 69 -241 c 0,157,147
 110 -241 110 -241 136 -210 c 1,148,149
EndSplineSet
Substitution2: "Single Substitution lookup 14 subtable" thoThanthai.less
Substitution2: "'aalt' Access All Alternates lookup 0 subtable" thoThanthai.less
EndChar

StartChar: thoThanthai.less
Encoding: 65542 -1 451
Width: 575
GlyphClass: 2
Flags: W
AnchorPoint: "Anchor-12" 534 550 basechar 0
AnchorPoint: "Anchor-11" 429 0 basechar 0
LayerCount: 2
Fore
SplineSet
243 0 m 128,-1,1
 213 9 213 9 215 20 c 0,2,3
 226 115 226 115 226 178 c 0,4,5
 226 208 226 208 213.5 224 c 128,-1,6
 201 240 201 240 180 240 c 256,7,8
 159 240 159 240 147 229.5 c 128,-1,9
 135 219 135 219 135 198 c 0,10,11
 135 180 135 180 145 169 c 128,-1,12
 155 158 155 158 172 158 c 0,13,14
 193 158 193 158 208 170 c 1,15,16
 211 164 211 164 211 157 c 0,17,18
 211 142 211 142 197 131 c 128,-1,19
 183 120 183 120 161 120 c 0,20,21
 126 120 126 120 104.5 140.5 c 128,-1,22
 83 161 83 161 83 198 c 0,23,24
 83 236 83 236 110.5 261 c 128,-1,25
 138 286 138 286 184 286 c 256,26,27
 230 286 230 286 256.5 258 c 128,-1,28
 283 230 283 230 284 180 c 0,29,30
 285 138 285 138 279 79 c 2,31,-1
 277 49 l 2,32,33
 277 44 277 44 288.5 40.5 c 128,-1,34
 300 37 300 37 317 37 c 0,35,36
 335 37 335 37 346.5 40.5 c 128,-1,37
 358 44 358 44 360 49 c 0,38,39
 368 81 368 81 380 125 c 0,40,41
 396 183 396 183 403.5 214.5 c 128,-1,42
 411 246 411 246 411 271 c 0,43,44
 411 312 411 312 385.5 335 c 128,-1,45
 360 358 360 358 304 360 c 0,46,47
 259 362 259 362 205.5 357 c 128,-1,48
 152 352 152 352 143 351 c 2,49,-1
 107 347 l 1,50,51
 81 390 81 390 81 438 c 0,52,53
 81 505 81 505 122 543.5 c 128,-1,54
 163 582 163 582 237 582 c 0,55,56
 273 582 273 582 341 572 c 0,57,58
 397 563 397 563 426 563 c 0,59,60
 468 563 468 563 494 569 c 128,-1,61
 520 575 520 575 534 589 c 1,62,63
 544 575 544 575 544 557 c 0,64,65
 544 529 544 529 519 517 c 128,-1,66
 494 505 494 505 440 505 c 0,67,68
 406 505 406 505 346 516 c 0,69,70
 276 528 276 528 239 528 c 0,71,72
 146 528 146 528 146 437 c 0,73,74
 146 418 146 418 153 406 c 1,75,-1
 178 408 l 2,76,77
 266 416 266 416 322 414 c 0,78,79
 396 411 396 411 436.5 377 c 128,-1,80
 477 343 477 343 477 281 c 0,81,82
 477 250 477 250 469 214.5 c 128,-1,83
 461 179 461 179 443 118 c 0,84,85
 421 44 421 44 415 18 c 0,86,87
 412 6 412 6 382.5 -1.5 c 128,-1,88
 353 -9 353 -9 313 -9 c 256,89,0
 273 -9 273 -9 243 0 c 128,-1,1
EndSplineSet
EndChar

StartChar: uni0E11
Encoding: 3601 3601 452
Width: 655
GlyphClass: 2
Flags: W
AnchorPoint: "Anchor-12" 595 550 basechar 0
AnchorPoint: "Anchor-11" 518 0 basechar 0
LayerCount: 2
Fore
SplineSet
554 553.5 m 128,-1,1
 582 527 582 527 582 476 c 0,2,3
 582 456 582 456 580 445 c 2,4,-1
 518 0 l 1,5,-1
 453 0 l 1,6,-1
 514 439 l 2,7,8
 517 460 517 460 517 475 c 0,9,10
 517 503 517 503 505.5 514.5 c 128,-1,11
 494 526 494 526 469 526 c 0,12,13
 443 526 443 526 419 512.5 c 128,-1,14
 395 499 395 499 362 465.5 c 128,-1,15
 329 432 329 432 272 365 c 0,16,17
 235 322 235 322 214.5 290.5 c 128,-1,18
 194 259 194 259 189 222 c 2,19,-1
 157 0 l 1,20,-1
 108 0 l 2,21,22
 91 0 91 0 91 16 c 0,23,24
 91 29 91 29 97 51 c 0,25,26
 105 90 105 90 108 106 c 2,27,-1
 124 226 l 2,28,29
 129 261 129 261 144 290 c 128,-1,30
 159 319 159 319 174.5 337.5 c 128,-1,31
 190 356 190 356 224 393 c 0,32,33
 247 420 247 420 262.5 449 c 128,-1,34
 278 478 278 478 278 500 c 0,35,36
 278 514 278 514 271.5 522 c 128,-1,37
 265 530 265 530 253 530 c 0,38,39
 223 530 223 530 192 487 c 1,40,41
 180 513 180 513 169.5 523.5 c 128,-1,42
 159 534 159 534 138 534 c 0,43,44
 116 534 116 534 101 520 c 128,-1,45
 86 506 86 506 82 482 c 0,46,47
 79 459 79 459 90.5 445.5 c 128,-1,48
 102 432 102 432 123 432 c 0,49,50
 141 432 141 432 156 443 c 128,-1,51
 171 454 171 454 180 468 c 1,52,53
 192 462 192 462 192 449 c 0,54,55
 192 426 192 426 168 407 c 128,-1,56
 144 388 144 388 116 388 c 0,57,58
 79 388 79 388 57 408.5 c 128,-1,59
 35 429 35 429 35 464 c 0,60,61
 35 512 35 512 65.5 546 c 128,-1,62
 96 580 96 580 139 580 c 0,63,64
 164 580 164 580 177.5 570.5 c 128,-1,65
 191 561 191 561 201 541 c 1,66,67
 215 559 215 559 234 569.5 c 128,-1,68
 253 580 253 580 275 580 c 0,69,70
 303 580 303 580 319.5 562 c 128,-1,71
 336 544 336 544 338 512 c 1,72,73
 366 542 366 542 402 561 c 128,-1,74
 438 580 438 580 473 580 c 0,75,0
 526 580 526 580 554 553.5 c 128,-1,1
EndSplineSet
EndChar

StartChar: uni0E12
Encoding: 3602 3602 453
Width: 935
GlyphClass: 2
Flags: W
AnchorPoint: "Anchor-12" 858 550 basechar 0
AnchorPoint: "Anchor-11" 781 0 basechar 0
LayerCount: 2
Fore
SplineSet
862 576 m 1,0,-1
 798 126 l 2,1,2
 794 96 794 96 791 44 c 0,3,4
 789 18 789 18 789 20 c 1,5,6
 786 0 786 0 769 0 c 2,7,-1
 718 0 l 1,8,9
 679 78 679 78 629 119 c 128,-1,10
 579 160 579 160 517 169 c 1,11,-1
 509 104 l 2,12,13
 503 50 503 50 477 20.5 c 128,-1,14
 451 -9 451 -9 408 -9 c 0,15,16
 371 -9 371 -9 346.5 17 c 128,-1,17
 322 43 322 43 322 90 c 0,18,19
 322 141 322 141 361 177.5 c 128,-1,20
 400 214 400 214 460 222 c 1,21,-1
 480 370 l 2,22,23
 484 398 484 398 484 426 c 0,24,25
 484 470 484 470 467.5 493.5 c 128,-1,26
 451 517 451 517 414 526 c 1,27,28
 372 494 372 494 323 466 c 1,29,30
 273 499 273 499 245 526 c 1,31,32
 182 503 182 503 150 453.5 c 128,-1,33
 118 404 118 404 118 334 c 0,34,35
 118 275 118 275 132.5 236.5 c 128,-1,36
 147 198 147 198 170 169 c 1,37,38
 190 186 190 186 234 213 c 0,39,40
 273 237 273 237 282 244 c 0,41,42
 310 264 310 264 322 278 c 128,-1,43
 334 292 334 292 334 312 c 0,44,45
 334 335 334 335 322 347 c 128,-1,46
 310 359 310 359 289 359 c 0,47,48
 267 359 267 359 253 345.5 c 128,-1,49
 239 332 239 332 239 310 c 0,50,51
 239 281 239 281 270 258 c 1,52,53
 258 246 258 246 242 246 c 0,54,55
 220 246 220 246 205.5 265.5 c 128,-1,56
 191 285 191 285 191 312 c 0,57,58
 191 355 191 355 220.5 380.5 c 128,-1,59
 250 406 250 406 294 406 c 0,60,61
 337 406 337 406 361.5 380.5 c 128,-1,62
 386 355 386 355 386 317 c 256,63,64
 386 279 386 279 366 256 c 128,-1,65
 346 233 346 233 306 205 c 0,66,67
 286 191 286 191 276 185 c 0,68,69
 225 151 225 151 197 128.5 c 128,-1,70
 169 106 169 106 148.5 74.5 c 128,-1,71
 128 43 128 43 122 0 c 1,72,-1
 65 0 l 2,73,74
 60 0 60 0 57.5 2 c 128,-1,75
 55 4 55 4 55 11 c 0,76,77
 55 28 55 28 65.5 45.5 c 128,-1,78
 76 63 76 63 95 89 c 0,79,80
 104 101 104 101 111.5 112 c 128,-1,81
 119 123 119 123 119 129 c 0,82,83
 119 136 119 136 105 160 c 0,84,85
 83 197 83 197 69 237.5 c 128,-1,86
 55 278 55 278 55 334 c 0,87,88
 55 433 55 433 103 495 c 128,-1,89
 151 557 151 557 248 586 c 1,90,91
 294 554 294 554 326 520 c 1,92,93
 363 551 363 551 419 586 c 1,94,95
 485 569 485 569 517 529 c 128,-1,96
 549 489 549 489 549 425 c 0,97,98
 549 397 549 397 545 370 c 2,99,-1
 524 221 l 1,100,101
 650 204 650 204 731 95 c 1,102,-1
 797 576 l 1,103,-1
 862 576 l 1,0,-1
435 57 m 128,-1,105
 444 71 444 71 448 106 c 0,106,107
 456 174 456 174 455 170 c 0,108,109
 423 166 423 166 401 145.5 c 128,-1,110
 379 125 379 125 379 85 c 0,111,112
 379 65 379 65 387 54 c 128,-1,113
 395 43 395 43 411 43 c 0,114,104
 426 43 426 43 435 57 c 128,-1,105
EndSplineSet
EndChar

StartChar: uni0E13
Encoding: 3603 3603 454
Width: 937
GlyphClass: 2
Flags: W
AnchorPoint: "Anchor-12" 878 550 basechar 0
AnchorPoint: "Anchor-11" 801 0 basechar 0
LayerCount: 2
Fore
SplineSet
861 112 m 0,1,2
 861 59 861 59 828.5 27.5 c 128,-1,3
 796 -4 796 -4 746 -4 c 0,4,5
 699 -4 699 -4 670.5 22 c 128,-1,6
 642 48 642 48 642 91 c 0,7,8
 642 146 642 146 689 184 c 1,9,-1
 683 184 l 2,10,11
 637 184 637 184 589 158.5 c 128,-1,12
 541 133 541 133 507.5 90.5 c 128,-1,13
 474 48 474 48 468 0 c 1,14,-1
 420 0 l 2,15,16
 403 0 403 0 403 15 c 0,17,18
 403 16 403 16 407 40 c 0,19,20
 416 76 416 76 420 113 c 2,21,-1
 456 378 l 2,22,23
 459 399 459 399 459 416 c 0,24,25
 459 475 459 475 418.5 505 c 128,-1,26
 378 535 378 535 305 535 c 0,27,28
 245 535 245 535 204 520.5 c 128,-1,29
 163 506 163 506 143 485.5 c 128,-1,30
 123 465 123 465 123 446 c 0,31,32
 123 423 123 423 143 405.5 c 128,-1,33
 163 388 163 388 183 388 c 0,34,35
 199 388 199 388 223 394 c 0,36,37
 241 398 241 398 248 398 c 256,38,39
 255 398 255 398 265.5 383 c 128,-1,40
 276 368 276 368 276 357 c 0,41,42
 276 349 276 349 270 349 c 0,43,44
 206 349 206 349 173.5 318 c 128,-1,45
 141 287 141 287 131 221 c 2,46,-1
 116 119 l 2,47,48
 115 111 115 111 115 97 c 0,49,50
 115 70 115 70 129 55.5 c 128,-1,51
 143 41 143 41 169 41 c 0,52,53
 194 41 194 41 207.5 54.5 c 128,-1,54
 221 68 221 68 221 93 c 0,55,56
 221 114 221 114 210.5 125.5 c 128,-1,57
 200 137 200 137 181 137 c 0,58,59
 160 137 160 137 142 131 c 1,60,61
 141 134 141 134 141 140 c 0,62,63
 141 156 141 156 154.5 167.5 c 128,-1,64
 168 179 168 179 193 179 c 0,65,66
 226 179 226 179 248.5 158 c 128,-1,67
 271 137 271 137 271 98 c 0,68,69
 271 50 271 50 241 21.5 c 128,-1,70
 211 -7 211 -7 162 -7 c 256,71,72
 113 -7 113 -7 81.5 21.5 c 128,-1,73
 50 50 50 50 50 96 c 0,74,75
 50 103 50 103 52 123 c 2,76,-1
 66 221 l 2,77,78
 73 268 73 268 88.5 299.5 c 128,-1,79
 104 331 104 331 131 352 c 1,80,81
 104 364 104 364 81.5 389 c 128,-1,82
 59 414 59 414 59 441 c 0,83,84
 59 474 59 474 88 508 c 128,-1,85
 117 542 117 542 172 564 c 128,-1,86
 227 586 227 586 302 586 c 0,87,88
 406 586 406 586 465 543.5 c 128,-1,89
 524 501 524 501 524 418 c 0,90,91
 524 401 524 401 521 383 c 2,92,-1
 486 134 l 1,93,94
 567 232 567 232 690 232 c 0,95,96
 719 232 719 232 746 226 c 1,97,98
 772 256 772 256 782 325 c 2,99,-1
 817 576 l 1,100,-1
 882 576 l 1,101,-1
 846 320 l 2,102,103
 835 245 835 245 801 207 c 1,104,0
 861 174 861 174 861 112 c 0,1,2
789 64.5 m 128,-1,106
 805 81 805 81 805 112 c 0,107,108
 805 133 805 133 792 149 c 128,-1,109
 779 165 779 165 755 173 c 1,110,111
 728 156 728 156 712.5 138.5 c 128,-1,112
 697 121 697 121 697 99 c 0,113,114
 697 48 697 48 745 48 c 0,115,105
 773 48 773 48 789 64.5 c 128,-1,106
EndSplineSet
EndChar

StartChar: uni0E14
Encoding: 3604 3604 455
Width: 622
GlyphClass: 2
Flags: W
AnchorPoint: "Anchor-12" 562 550 basechar 0
AnchorPoint: "Anchor-11" 485 0 basechar 0
LayerCount: 2
Fore
SplineSet
481.5 537 m 128,-1,1
 538 488 538 488 538 400 c 0,2,3
 538 379 538 379 535 355 c 2,4,-1
 485 0 l 1,5,-1
 420 0 l 1,6,-1
 469 350 l 2,7,8
 472 374 472 374 472 394 c 0,9,10
 472 462 472 462 431 498 c 128,-1,11
 390 534 390 534 310 534 c 0,12,13
 217 534 217 534 167.5 481 c 128,-1,14
 118 428 118 428 118 334 c 0,15,16
 118 232 118 232 168 167 c 1,17,18
 191 187 191 187 239 216 c 2,19,-1
 282 244 l 2,20,21
 310 264 310 264 322 278 c 128,-1,22
 334 292 334 292 334 312 c 0,23,24
 334 335 334 335 322 347 c 128,-1,25
 310 359 310 359 289 359 c 0,26,27
 267 359 267 359 253 345.5 c 128,-1,28
 239 332 239 332 239 310 c 0,29,30
 239 281 239 281 270 258 c 1,31,32
 258 246 258 246 242 246 c 0,33,34
 220 246 220 246 205.5 265.5 c 128,-1,35
 191 285 191 285 191 312 c 0,36,37
 191 355 191 355 220.5 380.5 c 128,-1,38
 250 406 250 406 294 406 c 0,39,40
 337 406 337 406 361.5 380.5 c 128,-1,41
 386 355 386 355 386 317 c 256,42,43
 386 279 386 279 366 256 c 128,-1,44
 346 233 346 233 306 205 c 0,45,46
 286 191 286 191 276 185 c 0,47,48
 225 151 225 151 197 128.5 c 128,-1,49
 169 106 169 106 148.5 74.5 c 128,-1,50
 128 43 128 43 122 0 c 1,51,-1
 65 0 l 2,52,53
 60 0 60 0 57.5 2 c 128,-1,54
 55 4 55 4 55 11 c 0,55,56
 55 28 55 28 65.5 45.5 c 128,-1,57
 76 63 76 63 95 89 c 0,58,59
 104 101 104 101 111.5 112 c 128,-1,60
 119 123 119 123 119 129 c 0,61,62
 119 136 119 136 105 160 c 0,63,64
 83 197 83 197 69 237.5 c 128,-1,65
 55 278 55 278 55 334 c 0,66,67
 55 453 55 453 124 519.5 c 128,-1,68
 193 586 193 586 312 586 c 0,69,0
 425 586 425 586 481.5 537 c 128,-1,1
EndSplineSet
EndChar

StartChar: uni0E15
Encoding: 3605 3605 456
Width: 630
GlyphClass: 2
Flags: W
AnchorPoint: "Anchor-12" 570 550 basechar 0
AnchorPoint: "Anchor-11" 493 0 basechar 0
LayerCount: 2
Fore
SplineSet
517 529.5 m 128,-1,1
 549 490 549 490 549 426 c 0,2,3
 549 397 549 397 545 370 c 2,4,-1
 493 0 l 1,5,-1
 428 0 l 1,6,-1
 480 370 l 2,7,8
 484 398 484 398 484 427 c 0,9,10
 484 470 484 470 467.5 493.5 c 128,-1,11
 451 517 451 517 414 526 c 1,12,13
 372 494 372 494 323 466 c 1,14,15
 273 499 273 499 245 526 c 1,16,17
 182 503 182 503 150 454 c 128,-1,18
 118 405 118 405 118 334 c 0,19,20
 118 276 118 276 133 237 c 128,-1,21
 148 198 148 198 171 169 c 1,22,23
 193 187 193 187 243 219 c 2,24,-1
 282 244 l 2,25,26
 310 264 310 264 322 278 c 128,-1,27
 334 292 334 292 334 312 c 0,28,29
 334 335 334 335 322 347 c 128,-1,30
 310 359 310 359 289 359 c 0,31,32
 267 359 267 359 253 345.5 c 128,-1,33
 239 332 239 332 239 310 c 0,34,35
 239 281 239 281 270 258 c 1,36,37
 258 246 258 246 242 246 c 0,38,39
 220 246 220 246 205.5 265.5 c 128,-1,40
 191 285 191 285 191 312 c 0,41,42
 191 355 191 355 220.5 380.5 c 128,-1,43
 250 406 250 406 294 406 c 0,44,45
 337 406 337 406 361.5 380.5 c 128,-1,46
 386 355 386 355 386 317 c 256,47,48
 386 279 386 279 366 256 c 128,-1,49
 346 233 346 233 306 205 c 0,50,51
 286 191 286 191 276 185 c 0,52,53
 225 151 225 151 197 128.5 c 128,-1,54
 169 106 169 106 148.5 74.5 c 128,-1,55
 128 43 128 43 122 0 c 1,56,-1
 65 0 l 2,57,58
 60 0 60 0 57.5 2 c 128,-1,59
 55 4 55 4 55 11 c 0,60,61
 55 28 55 28 65.5 45.5 c 128,-1,62
 76 63 76 63 95 89 c 0,63,64
 104 101 104 101 111.5 112 c 128,-1,65
 119 123 119 123 119 129 c 256,66,67
 119 135 119 135 113 145.5 c 128,-1,68
 107 156 107 156 105 159 c 0,69,70
 83 200 83 200 69 239 c 128,-1,71
 55 278 55 278 55 334 c 0,72,73
 55 433 55 433 103 495 c 128,-1,74
 151 557 151 557 248 586 c 1,75,76
 294 554 294 554 326 520 c 1,77,78
 363 551 363 551 419 586 c 1,79,0
 485 569 485 569 517 529.5 c 128,-1,1
EndSplineSet
EndChar

StartChar: uni0E16
Encoding: 3606 3606 457
Width: 615
GlyphClass: 2
Flags: W
AnchorPoint: "Anchor-12" 555 550 basechar 0
AnchorPoint: "Anchor-11" 478 0 basechar 0
LayerCount: 2
Fore
SplineSet
474.5 543.5 m 128,-1,1
 534 501 534 501 534 418 c 0,2,3
 534 401 534 401 531 383 c 2,4,-1
 478 0 l 1,5,-1
 413 0 l 1,6,-1
 466 378 l 2,7,8
 469 399 469 399 469 416 c 0,9,10
 469 475 469 475 428.5 505 c 128,-1,11
 388 535 388 535 314 535 c 0,12,13
 254 535 254 535 211 520.5 c 128,-1,14
 168 506 168 506 145.5 485 c 128,-1,15
 123 464 123 464 123 446 c 0,16,17
 123 423 123 423 143 405.5 c 128,-1,18
 163 388 163 388 183 388 c 0,19,20
 199 388 199 388 223 394 c 0,21,22
 241 398 241 398 248 398 c 256,23,24
 255 398 255 398 265.5 383 c 128,-1,25
 276 368 276 368 276 357 c 0,26,27
 276 349 276 349 270 349 c 0,28,29
 206 349 206 349 173 317.5 c 128,-1,30
 140 286 140 286 131 221 c 2,31,-1
 116 119 l 2,32,33
 115 111 115 111 115 97 c 0,34,35
 115 70 115 70 129 55.5 c 128,-1,36
 143 41 143 41 169 41 c 0,37,38
 194 41 194 41 207.5 54.5 c 128,-1,39
 221 68 221 68 221 93 c 0,40,41
 221 114 221 114 210.5 125.5 c 128,-1,42
 200 137 200 137 181 137 c 0,43,44
 160 137 160 137 142 131 c 1,45,46
 141 134 141 134 141 140 c 0,47,48
 141 156 141 156 154.5 167.5 c 128,-1,49
 168 179 168 179 193 179 c 0,50,51
 226 179 226 179 248.5 158 c 128,-1,52
 271 137 271 137 271 98 c 0,53,54
 271 50 271 50 241 21.5 c 128,-1,55
 211 -7 211 -7 162 -7 c 256,56,57
 113 -7 113 -7 81.5 21.5 c 128,-1,58
 50 50 50 50 50 96 c 0,59,60
 50 103 50 103 52 123 c 2,61,-1
 66 221 l 2,62,63
 72 267 72 267 88 298.5 c 128,-1,64
 104 330 104 330 131 352 c 1,65,66
 104 364 104 364 81.5 389 c 128,-1,67
 59 414 59 414 59 441 c 0,68,69
 59 474 59 474 90 507.5 c 128,-1,70
 121 541 121 541 178.5 563.5 c 128,-1,71
 236 586 236 586 311 586 c 0,72,0
 415 586 415 586 474.5 543.5 c 128,-1,1
EndSplineSet
EndChar

StartChar: uni0E17
Encoding: 3607 3607 458
Width: 665
GlyphClass: 2
Flags: W
AnchorPoint: "Anchor-12" 605 550 basechar 0
AnchorPoint: "Anchor-11" 528 0 basechar 0
LayerCount: 2
Fore
SplineSet
567.5 560.5 m 128,-1,1
 594 535 594 535 594 487 c 0,2,3
 594 479 594 479 592 459 c 2,4,-1
 528 0 l 1,5,-1
 463 0 l 1,6,-1
 527 455 l 2,7,8
 529 469 529 469 529 476 c 0,9,10
 529 530 529 530 478 530 c 0,11,12
 442 530 442 530 409 500 c 128,-1,13
 376 470 376 470 339 407 c 0,14,15
 267 285 267 285 231.5 204 c 128,-1,16
 196 123 196 123 183 42 c 2,17,-1
 176 0 l 1,18,-1
 122 0 l 2,19,20
 114 0 114 0 111 4 c 128,-1,21
 108 8 108 8 109 18 c 0,22,23
 110 24 110 24 116 50 c 128,-1,24
 122 76 122 76 127 112 c 2,25,-1
 179 474 l 2,26,27
 181 490 181 490 181 496 c 0,28,29
 181 515 181 515 171 526.5 c 128,-1,30
 161 538 161 538 141 538 c 0,31,32
 116 538 116 538 102.5 522.5 c 128,-1,33
 89 507 89 507 89 481 c 0,34,35
 89 463 89 463 101.5 452.5 c 128,-1,36
 114 442 114 442 133 442 c 2,37,-1
 157 442 l 1,38,39
 157 423 157 423 144.5 412.5 c 128,-1,40
 132 402 132 402 110 402 c 0,41,42
 83 402 83 402 62 424.5 c 128,-1,43
 41 447 41 447 41 481 c 0,44,45
 41 526 41 526 72.5 556 c 128,-1,46
 104 586 104 586 152 586 c 0,47,48
 194 586 194 586 220 563.5 c 128,-1,49
 246 541 246 541 246 499 c 0,50,51
 246 494 246 494 244 476 c 2,52,-1
 216 275 l 1,53,54
 257 365 257 365 297 435 c 0,55,56
 383 586 383 586 494 586 c 0,57,0
 541 586 541 586 567.5 560.5 c 128,-1,1
EndSplineSet
EndChar

StartChar: uni0E18
Encoding: 3608 3608 459
Width: 590
GlyphClass: 2
Flags: W
AnchorPoint: "Anchor-12" 520 550 basechar 0
AnchorPoint: "Anchor-11" 412 0 basechar 0
LayerCount: 2
Fore
SplineSet
103 16.5 m 128,-1,1
 61 42 61 42 61 105 c 0,2,3
 61 129 61 129 73 212 c 2,4,-1
 80 264 l 1,5,6
 96 268 96 268 114 268 c 0,7,8
 130 268 130 268 136.5 263 c 128,-1,9
 143 258 143 258 142 246 c 2,10,-1
 135 193 l 2,11,12
 126 129 126 129 126 114 c 0,13,14
 126 76 126 76 150 60.5 c 128,-1,15
 174 45 174 45 242 45 c 0,16,17
 300 45 300 45 331.5 55 c 128,-1,18
 363 65 363 65 377 86 c 128,-1,19
 391 107 391 107 397 146 c 0,20,21
 410 230 410 230 410 248 c 0,22,23
 410 281 410 281 394 296.5 c 128,-1,24
 378 312 378 312 343 321 c 0,25,26
 309 329 309 329 263 331.5 c 128,-1,27
 217 334 217 334 134 334 c 2,28,-1
 91 334 l 1,29,30
 80 348 80 348 72.5 372.5 c 128,-1,31
 65 397 65 397 65 421 c 0,32,33
 65 500 65 500 112 541 c 128,-1,34
 159 582 159 582 235 582 c 0,35,36
 254 582 254 582 338 575 c 0,37,38
 404 569 404 569 421 569 c 0,39,40
 488 569 488 569 530 595 c 1,41,42
 540 577 540 577 540 561 c 0,43,44
 540 535 540 535 507.5 523 c 128,-1,45
 475 511 475 511 430 511 c 0,46,47
 409 511 409 511 343 519 c 0,48,49
 271 529 271 529 237 529 c 0,50,51
 183 529 183 529 155 501.5 c 128,-1,52
 127 474 127 474 127 423 c 0,53,54
 127 401 127 401 134 388 c 1,55,-1
 170 388 l 2,56,57
 247 388 247 388 289 385.5 c 128,-1,58
 331 383 331 383 367 373 c 0,59,60
 419 359 419 359 447 333 c 128,-1,61
 475 307 475 307 475 254 c 0,62,63
 475 234 475 234 463 150 c 0,64,65
 454 87 454 87 429.5 53 c 128,-1,66
 405 19 405 19 360.5 5 c 128,-1,67
 316 -9 316 -9 240 -9 c 0,68,0
 145 -9 145 -9 103 16.5 c 128,-1,1
EndSplineSet
EndChar

StartChar: uni0E19
Encoding: 3609 3609 460
Width: 637
GlyphClass: 2
Flags: W
AnchorPoint: "Anchor-12" 577 550 basechar 0
AnchorPoint: "Anchor-11" 500 0 basechar 0
LayerCount: 2
Fore
SplineSet
560 112 m 0,1,2
 560 59 560 59 527.5 27.5 c 128,-1,3
 495 -4 495 -4 445 -4 c 0,4,5
 398 -4 398 -4 369.5 22 c 128,-1,6
 341 48 341 48 341 91 c 0,7,8
 341 146 341 146 388 184 c 1,9,-1
 382 184 l 2,10,11
 335 184 335 184 285 158 c 128,-1,12
 235 132 235 132 199 89.5 c 128,-1,13
 163 47 163 47 157 0 c 1,14,-1
 109 0 l 2,15,16
 92 0 92 0 92 15 c 0,17,18
 92 21 92 21 97 44 c 0,19,20
 107 96 107 96 109 113 c 2,21,-1
 159 474 l 2,22,23
 161 490 161 490 161 496 c 0,24,25
 161 515 161 515 151 526.5 c 128,-1,26
 141 538 141 538 121 538 c 0,27,28
 96 538 96 538 82.5 522.5 c 128,-1,29
 69 507 69 507 69 481 c 0,30,31
 69 463 69 463 81.5 452.5 c 128,-1,32
 94 442 94 442 113 442 c 2,33,-1
 137 442 l 1,34,35
 137 423 137 423 124.5 412.5 c 128,-1,36
 112 402 112 402 90 402 c 0,37,38
 63 402 63 402 42 424.5 c 128,-1,39
 21 447 21 447 21 481 c 0,40,41
 21 526 21 526 52.5 556 c 128,-1,42
 84 586 84 586 132 586 c 0,43,44
 174 586 174 586 200 563.5 c 128,-1,45
 226 541 226 541 226 499 c 0,46,47
 226 494 226 494 224 476 c 2,48,-1
 175 134 l 1,49,50
 217 182 217 182 272.5 207 c 128,-1,51
 328 232 328 232 389 232 c 0,52,53
 418 232 418 232 445 226 c 1,54,55
 471 256 471 256 481 325 c 2,56,-1
 516 576 l 1,57,-1
 581 576 l 1,58,-1
 545 320 l 2,59,60
 534 245 534 245 500 207 c 1,61,0
 560 174 560 174 560 112 c 0,1,2
488 64.5 m 128,-1,63
 504 81 504 81 504 112 c 0,64,65
 504 133 504 133 491 149 c 128,-1,66
 478 165 478 165 454 173 c 1,67,68
 427 156 427 156 411.5 138.5 c 128,-1,69
 396 121 396 121 396 99 c 0,70,71
 396 48 396 48 444 48 c 0,72,62
 472 48 472 48 488 64.5 c 128,-1,63
EndSplineSet
EndChar

StartChar: uni0E1A
Encoding: 3610 3610 461
Width: 665
GlyphClass: 2
Flags: W
AnchorPoint: "Anchor-12" 605 550 basechar 0
AnchorPoint: "Anchor-11" 528 0 basechar 0
LayerCount: 2
Fore
SplineSet
129 50 m 0,1,2
 113 73 113 73 113 121 c 0,3,4
 113 148 113 148 118 190 c 2,5,-1
 159 474 l 2,6,7
 161 490 161 490 161 496 c 0,8,9
 161 515 161 515 151 526.5 c 128,-1,10
 141 538 141 538 121 538 c 0,11,12
 96 538 96 538 82.5 522.5 c 128,-1,13
 69 507 69 507 69 481 c 0,14,15
 69 463 69 463 81.5 452.5 c 128,-1,16
 94 442 94 442 113 442 c 2,17,-1
 137 442 l 1,18,19
 137 423 137 423 124.5 412.5 c 128,-1,20
 112 402 112 402 90 402 c 0,21,22
 63 402 63 402 42 424.5 c 128,-1,23
 21 447 21 447 21 481 c 0,24,25
 21 526 21 526 52.5 556 c 128,-1,26
 84 586 84 586 132 586 c 0,27,28
 174 586 174 586 200 563.5 c 128,-1,29
 226 541 226 541 226 499 c 0,30,31
 226 494 226 494 224 476 c 2,32,-1
 182 183 l 2,33,34
 178 145 178 145 178 130 c 0,35,36
 178 94 178 94 188 81 c 0,37,38
 219 43 219 43 318 43 c 0,39,40
 418 43 418 43 457 81 c 0,41,42
 470 93 470 93 475 111 c 128,-1,43
 480 129 480 129 486 166 c 2,44,-1
 544 576 l 1,45,-1
 609 576 l 1,46,-1
 554 190 l 2,47,48
 546 132 546 132 535.5 102 c 128,-1,49
 525 72 525 72 503 50 c 0,50,51
 441 -9 441 -9 310 -9 c 0,52,0
 169 -9 169 -9 129 50 c 0,1,2
EndSplineSet
EndChar

StartChar: uni0E1B
Encoding: 3611 3611 462
Width: 665
GlyphClass: 2
Flags: W
AnchorPoint: "Anchor-12" 477 550 basechar 0
AnchorPoint: "Anchor-11" 528 0 basechar 0
LayerCount: 2
Fore
SplineSet
129 50 m 0,1,2
 113 73 113 73 113 121 c 0,3,4
 113 148 113 148 118 190 c 2,5,-1
 159 474 l 2,6,7
 161 490 161 490 161 496 c 0,8,9
 161 515 161 515 151 526.5 c 128,-1,10
 141 538 141 538 121 538 c 0,11,12
 96 538 96 538 82.5 522.5 c 128,-1,13
 69 507 69 507 69 481 c 0,14,15
 69 463 69 463 81.5 452.5 c 128,-1,16
 94 442 94 442 113 442 c 2,17,-1
 137 442 l 1,18,19
 137 423 137 423 124.5 412.5 c 128,-1,20
 112 402 112 402 90 402 c 0,21,22
 63 402 63 402 42 424.5 c 128,-1,23
 21 447 21 447 21 481 c 0,24,25
 21 526 21 526 52.5 556 c 128,-1,26
 84 586 84 586 132 586 c 0,27,28
 174 586 174 586 200 563.5 c 128,-1,29
 226 541 226 541 226 499 c 0,30,31
 226 494 226 494 224 476 c 2,32,-1
 182 183 l 2,33,34
 178 145 178 145 178 130 c 0,35,36
 178 94 178 94 188 81 c 0,37,38
 219 43 219 43 318 43 c 0,39,40
 418 43 418 43 457 81 c 0,41,42
 470 93 470 93 475 111 c 128,-1,43
 480 129 480 129 486 166 c 2,44,-1
 573 783 l 1,45,-1
 638 783 l 1,46,-1
 554 190 l 2,47,48
 546 132 546 132 535.5 102 c 128,-1,49
 525 72 525 72 503 50 c 0,50,51
 441 -9 441 -9 310 -9 c 0,52,0
 169 -9 169 -9 129 50 c 0,1,2
EndSplineSet
EndChar

StartChar: uni0E1C
Encoding: 3612 3612 463
Width: 624
GlyphClass: 2
Flags: W
AnchorPoint: "Anchor-12" 560 550 basechar 0
AnchorPoint: "Anchor-11" 483 0 basechar 0
LayerCount: 2
Fore
SplineSet
564 576 m 1,0,-1
 501 132 l 2,1,2
 492 65 492 65 490 22 c 0,3,4
 489 10 489 10 485 5 c 128,-1,5
 481 0 481 0 472 0 c 2,6,-1
 421 0 l 1,7,8
 424 15 424 15 424 26 c 0,9,10
 424 72 424 72 385.5 129.5 c 128,-1,11
 347 187 347 187 288 240 c 1,12,13
 205 182 205 182 147 122 c 128,-1,14
 89 62 89 62 82 14 c 2,15,-1
 80 0 l 1,16,-1
 26 0 l 2,17,18
 19 0 19 0 15.5 3 c 128,-1,19
 12 6 12 6 12 15 c 0,20,21
 12 20 12 20 14.5 29.5 c 128,-1,22
 17 39 17 39 18 45 c 0,23,24
 31 84 31 84 38 135 c 2,25,-1
 84 462 l 2,26,27
 92 521 92 521 129.5 553.5 c 128,-1,28
 167 586 167 586 219 586 c 0,29,30
 261 586 261 586 286.5 563.5 c 128,-1,31
 312 541 312 541 312 502 c 0,32,33
 312 456 312 456 284 428 c 128,-1,34
 256 400 256 400 210 400 c 0,35,36
 189 400 189 400 176.5 409.5 c 128,-1,37
 164 419 164 419 164 432 c 0,38,39
 164 440 164 440 169 450 c 1,40,41
 188 442 188 442 209 442 c 0,42,43
 234 442 234 442 249 457.5 c 128,-1,44
 264 473 264 473 264 499 c 0,45,46
 264 517 264 517 252 527.5 c 128,-1,47
 240 538 240 538 217 538 c 0,48,49
 190 538 190 538 171.5 518.5 c 128,-1,50
 153 499 153 499 147 461 c 2,51,-1
 104 142 l 1,52,53
 133 180 133 180 183 221.5 c 128,-1,54
 233 263 233 263 287 296 c 1,55,-1
 298 296 l 1,56,57
 344 260 344 260 382 216.5 c 128,-1,58
 420 173 420 173 437 135 c 1,59,-1
 499 576 l 1,60,-1
 564 576 l 1,0,-1
EndSplineSet
EndChar

StartChar: uni0E1D
Encoding: 3613 3613 464
Width: 624
GlyphClass: 2
Flags: W
AnchorPoint: "Anchor-12" 438 550 basechar 0
AnchorPoint: "Anchor-11" 483 0 basechar 0
LayerCount: 2
Fore
SplineSet
593 783 m 1,0,-1
 501 132 l 2,1,2
 492 68 492 68 491 47.5 c 128,-1,3
 490 27 490 27 490 22 c 0,4,5
 489 10 489 10 485 5 c 128,-1,6
 481 0 481 0 472 0 c 2,7,-1
 421 0 l 1,8,9
 424 15 424 15 424 26 c 0,10,11
 424 72 424 72 385.5 129.5 c 128,-1,12
 347 187 347 187 288 240 c 1,13,14
 205 182 205 182 147 122 c 128,-1,15
 89 62 89 62 82 14 c 2,16,-1
 80 0 l 1,17,-1
 26 0 l 2,18,19
 19 0 19 0 15.5 3 c 128,-1,20
 12 6 12 6 12 15 c 0,21,22
 12 20 12 20 14.5 29.5 c 128,-1,23
 17 39 17 39 18 45 c 0,24,25
 31 84 31 84 38 135 c 2,26,-1
 84 462 l 2,27,28
 92 521 92 521 129.5 553.5 c 128,-1,29
 167 586 167 586 219 586 c 0,30,31
 261 586 261 586 286.5 563.5 c 128,-1,32
 312 541 312 541 312 502 c 0,33,34
 312 456 312 456 284 428 c 128,-1,35
 256 400 256 400 210 400 c 0,36,37
 189 400 189 400 176.5 409.5 c 128,-1,38
 164 419 164 419 164 432 c 0,39,40
 164 440 164 440 169 450 c 1,41,42
 188 442 188 442 209 442 c 0,43,44
 234 442 234 442 249 457.5 c 128,-1,45
 264 473 264 473 264 499 c 0,46,47
 264 517 264 517 252 527.5 c 128,-1,48
 240 538 240 538 217 538 c 0,49,50
 190 538 190 538 171.5 518.5 c 128,-1,51
 153 499 153 499 147 461 c 2,52,-1
 104 142 l 1,53,54
 133 180 133 180 183 221.5 c 128,-1,55
 233 263 233 263 287 296 c 1,56,-1
 298 296 l 1,57,58
 344 260 344 260 382 216.5 c 128,-1,59
 420 173 420 173 437 135 c 1,60,-1
 528 783 l 1,61,-1
 593 783 l 1,0,-1
EndSplineSet
EndChar

StartChar: uni0E1E
Encoding: 3614 3614 465
Width: 719
GlyphClass: 2
Flags: W
AnchorPoint: "Anchor-12" 655 550 basechar 0
AnchorPoint: "Anchor-11" 578 0 basechar 0
LayerCount: 2
Fore
SplineSet
659 576 m 1,0,-1
 604 190 l 2,1,2
 597 145 597 145 591 92 c 128,-1,3
 585 39 585 39 585 20 c 0,4,5
 585 0 585 0 572 0 c 2,6,-1
 515 0 l 1,7,8
 518 23 518 23 518 34 c 0,9,10
 518 92 518 92 478 209 c 128,-1,11
 438 326 438 326 395 405 c 1,12,13
 322 305 322 305 252 185 c 128,-1,14
 182 65 182 65 175 14 c 2,15,-1
 173 0 l 1,16,-1
 119 0 l 2,17,18
 112 0 112 0 109 3 c 128,-1,19
 106 6 106 6 106 13 c 0,20,21
 106 17 106 17 111 39 c 0,22,23
 128 122 128 122 138 190 c 2,24,-1
 179 474 l 2,25,26
 181 490 181 490 181 496 c 0,27,28
 181 515 181 515 171 526.5 c 128,-1,29
 161 538 161 538 141 538 c 0,30,31
 116 538 116 538 102.5 522.5 c 128,-1,32
 89 507 89 507 89 481 c 0,33,34
 89 463 89 463 101.5 452.5 c 128,-1,35
 114 442 114 442 133 442 c 2,36,-1
 157 442 l 1,37,38
 157 423 157 423 144.5 412.5 c 128,-1,39
 132 402 132 402 110 402 c 0,40,41
 83 402 83 402 62 424.5 c 128,-1,42
 41 447 41 447 41 481 c 0,43,44
 41 526 41 526 72.5 556 c 128,-1,45
 104 586 104 586 152 586 c 0,46,47
 194 586 194 586 220 563.5 c 128,-1,48
 246 541 246 541 246 499 c 0,49,50
 246 494 246 494 244 476 c 2,51,-1
 206 210 l 1,52,53
 240 281 240 281 290.5 364.5 c 128,-1,54
 341 448 341 448 397 520 c 1,55,-1
 411 520 l 1,56,57
 450 453 450 453 487.5 363.5 c 128,-1,58
 525 274 525 274 541 203 c 1,59,-1
 594 576 l 1,60,-1
 659 576 l 1,0,-1
EndSplineSet
EndChar

StartChar: uni0E1F
Encoding: 3615 3615 466
Width: 719
GlyphClass: 2
Flags: W
AnchorPoint: "Anchor-12" 533 550 basechar 0
AnchorPoint: "Anchor-11" 578 0 basechar 0
LayerCount: 2
Fore
SplineSet
688 783 m 1,0,-1
 604 190 l 2,1,2
 597 145 597 145 591 92 c 128,-1,3
 585 39 585 39 585 20 c 0,4,5
 585 0 585 0 572 0 c 2,6,-1
 515 0 l 1,7,8
 518 23 518 23 518 34 c 0,9,10
 518 92 518 92 478 209 c 128,-1,11
 438 326 438 326 395 405 c 1,12,13
 322 305 322 305 252 185 c 128,-1,14
 182 65 182 65 175 14 c 2,15,-1
 173 0 l 1,16,-1
 119 0 l 2,17,18
 112 0 112 0 109 3 c 128,-1,19
 106 6 106 6 106 13 c 0,20,21
 106 17 106 17 111 39 c 0,22,23
 128 122 128 122 138 190 c 2,24,-1
 179 474 l 2,25,26
 181 490 181 490 181 496 c 0,27,28
 181 515 181 515 171 526.5 c 128,-1,29
 161 538 161 538 141 538 c 0,30,31
 116 538 116 538 102.5 522.5 c 128,-1,32
 89 507 89 507 89 481 c 0,33,34
 89 463 89 463 101.5 452.5 c 128,-1,35
 114 442 114 442 133 442 c 2,36,-1
 157 442 l 1,37,38
 157 423 157 423 144.5 412.5 c 128,-1,39
 132 402 132 402 110 402 c 0,40,41
 83 402 83 402 62 424.5 c 128,-1,42
 41 447 41 447 41 481 c 0,43,44
 41 526 41 526 72.5 556 c 128,-1,45
 104 586 104 586 152 586 c 0,46,47
 194 586 194 586 220 563.5 c 128,-1,48
 246 541 246 541 246 499 c 0,49,50
 246 494 246 494 244 476 c 2,51,-1
 206 210 l 1,52,53
 240 281 240 281 290.5 364.5 c 128,-1,54
 341 448 341 448 397 520 c 1,55,-1
 411 520 l 1,56,57
 450 453 450 453 487.5 363.5 c 128,-1,58
 525 274 525 274 541 203 c 1,59,-1
 623 783 l 1,60,-1
 688 783 l 1,0,-1
EndSplineSet
EndChar

StartChar: uni0E20
Encoding: 3616 3616 467
Width: 630
GlyphClass: 2
Flags: W
AnchorPoint: "Anchor-12" 570 550 basechar 0
AnchorPoint: "Anchor-11" 493 0 basechar 0
LayerCount: 2
Fore
SplineSet
485 544.5 m 128,-1,1
 547 503 547 503 547 411 c 0,2,3
 547 390 547 390 544 366 c 2,4,-1
 493 0 l 1,5,-1
 428 0 l 1,6,-1
 479 366 l 2,7,8
 482 390 482 390 482 410 c 0,9,10
 482 481 482 481 443 508 c 128,-1,11
 404 535 404 535 332 535 c 0,12,13
 281 535 281 535 235.5 520 c 128,-1,14
 190 505 190 505 162.5 483.5 c 128,-1,15
 135 462 135 462 135 445 c 0,16,17
 135 433 135 433 146 420 c 128,-1,18
 157 407 157 407 171 398 c 128,-1,19
 185 389 185 389 191 389 c 0,20,21
 201 389 201 389 224 398 c 0,22,23
 228 399 228 399 240 403 c 128,-1,24
 252 407 252 407 259 407 c 0,25,26
 267 407 267 407 277 393.5 c 128,-1,27
 287 380 287 380 287 370 c 0,28,29
 287 361 287 361 281 361 c 0,30,31
 232 361 232 361 196.5 330.5 c 128,-1,32
 161 300 161 300 161 247 c 2,33,-1
 163 185 l 1,34,-1
 165 110 l 2,35,36
 165 51 165 51 132.5 21.5 c 128,-1,37
 100 -8 100 -8 49 -8 c 0,38,39
 13 -8 13 -8 -9 14 c 128,-1,40
 -31 36 -31 36 -31 70 c 0,41,42
 -31 111 -31 111 -5 132.5 c 128,-1,43
 21 154 21 154 53 154 c 0,44,45
 70 154 70 154 79 144.5 c 128,-1,46
 88 135 88 135 86 120 c 1,47,-1
 67 120 l 2,48,49
 44 120 44 120 30 108.5 c 128,-1,50
 16 97 16 97 16 78 c 0,51,52
 16 38 16 38 55 38 c 0,53,54
 85 38 85 38 97 61 c 128,-1,55
 109 84 109 84 109 124 c 0,56,57
 109 139 109 139 107 175 c 0,58,59
 105 213 105 213 105 231 c 0,60,61
 105 312 105 312 149 351 c 1,62,63
 118 361 118 361 93 387.5 c 128,-1,64
 68 414 68 414 68 445 c 0,65,66
 68 473 68 473 101 506.5 c 128,-1,67
 134 540 134 540 193.5 563 c 128,-1,68
 253 586 253 586 329 586 c 0,69,0
 423 586 423 586 485 544.5 c 128,-1,1
EndSplineSet
EndChar

StartChar: uni0E21
Encoding: 3617 3617 468
Width: 657
GlyphClass: 2
Flags: W
AnchorPoint: "Anchor-12" 580 550 basechar 0
AnchorPoint: "Anchor-11" 503 0 basechar 0
LayerCount: 2
Fore
SplineSet
584 576 m 1,0,-1
 522 138 l 2,1,2
 515 77 515 77 513 44 c 0,3,4
 511 18 511 18 511 20 c 1,5,6
 508 0 508 0 493 0 c 2,7,-1
 440 0 l 1,8,9
 430 93 430 93 373 148.5 c 128,-1,10
 316 204 316 204 227 210 c 1,11,-1
 224 180 l 2,12,13
 223 170 223 170 222 155 c 128,-1,14
 221 140 221 140 218 120 c 0,15,16
 209 54 209 54 184 22.5 c 128,-1,17
 159 -9 159 -9 111 -9 c 0,18,19
 74 -9 74 -9 50 16 c 128,-1,20
 26 41 26 41 26 84 c 0,21,22
 26 132 26 132 46.5 169 c 128,-1,23
 67 206 67 206 100.5 229 c 128,-1,24
 134 252 134 252 170 258 c 1,25,26
 171 282 171 282 174 300 c 2,27,-1
 199 474 l 2,28,29
 201 490 201 490 201 496 c 0,30,31
 201 515 201 515 191 526.5 c 128,-1,32
 181 538 181 538 161 538 c 0,33,34
 136 538 136 538 122.5 522.5 c 128,-1,35
 109 507 109 507 109 481 c 0,36,37
 109 463 109 463 121.5 452.5 c 128,-1,38
 134 442 134 442 153 442 c 2,39,-1
 177 442 l 1,40,41
 177 423 177 423 164.5 412.5 c 128,-1,42
 152 402 152 402 130 402 c 0,43,44
 103 402 103 402 82 424.5 c 128,-1,45
 61 447 61 447 61 481 c 0,46,47
 61 526 61 526 92.5 556 c 128,-1,48
 124 586 124 586 172 586 c 0,49,50
 214 586 214 586 240 563.5 c 128,-1,51
 266 541 266 541 266 499 c 0,52,53
 266 494 266 494 264 476 c 2,54,-1
 233 260 l 1,55,56
 310 260 310 260 369 226 c 128,-1,57
 428 192 428 192 457 132 c 1,58,-1
 519 576 l 1,59,-1
 584 576 l 1,0,-1
162 178 m 0,61,62
 162 185 162 185 164 207 c 1,63,64
 130 197 130 197 106 168 c 128,-1,65
 82 139 82 139 82 90 c 0,66,67
 82 68 82 68 90 55.5 c 128,-1,68
 98 43 98 43 114 43 c 0,69,70
 131 43 131 43 140.5 59.5 c 128,-1,71
 150 76 150 76 156 122 c 0,72,60
 156 124 156 124 162 178 c 0,61,62
EndSplineSet
EndChar

StartChar: uni0E22
Encoding: 3618 3618 469
Width: 610
GlyphClass: 2
Flags: W
AnchorPoint: "Anchor-12" 550 550 basechar 0
AnchorPoint: "Anchor-11" 473 0 basechar 0
LayerCount: 2
Fore
SplineSet
554 576 m 1,0,-1
 513 284 l 1,1,-1
 507 241 l 2,2,3
 497 159 497 159 486 118.5 c 128,-1,4
 475 78 475 78 447 50 c 0,5,6
 412 15 412 15 363 3 c 128,-1,7
 314 -9 314 -9 253 -9 c 0,8,9
 193 -9 193 -9 145.5 3 c 128,-1,10
 98 15 98 15 72 50 c 0,11,12
 58 70 58 70 50.5 89.5 c 128,-1,13
 43 109 43 109 43 134 c 0,14,15
 43 148 43 148 48 185 c 0,16,17
 55 232 55 232 80.5 261 c 128,-1,18
 106 290 106 290 138 304 c 1,19,20
 112 319 112 319 92.5 351.5 c 128,-1,21
 73 384 73 384 73 430 c 0,22,23
 73 502 73 502 115.5 544 c 128,-1,24
 158 586 158 586 224 586 c 0,25,26
 268 586 268 586 294 563 c 128,-1,27
 320 540 320 540 320 504 c 0,28,29
 320 461 320 461 295.5 436.5 c 128,-1,30
 271 412 271 412 228 412 c 0,31,32
 204 412 204 412 187.5 424 c 128,-1,33
 171 436 171 436 171 451 c 0,34,35
 171 458 171 458 174 465 c 1,36,37
 194 452 194 452 218 452 c 0,38,39
 243 452 243 452 256 464.5 c 128,-1,40
 269 477 269 477 269 500 c 0,41,42
 269 517 269 517 257.5 527.5 c 128,-1,43
 246 538 246 538 227 538 c 0,44,45
 184 538 184 538 161 506 c 128,-1,46
 138 474 138 474 138 423 c 0,47,48
 138 370 138 370 176.5 343 c 128,-1,49
 215 316 215 316 301 316 c 0,50,51
 309 316 309 316 305 303.5 c 128,-1,52
 301 291 301 291 290.5 278.5 c 128,-1,53
 280 266 280 266 272 266 c 0,54,55
 261 266 261 266 243 271 c 0,56,57
 215 279 215 279 193 279 c 0,58,59
 164 279 164 279 141 252 c 128,-1,60
 118 225 118 225 113 184 c 0,61,62
 108 154 108 154 108 135 c 0,63,64
 108 118 108 118 112 106 c 128,-1,65
 116 94 116 94 125 83 c 0,66,67
 141 64 141 64 176.5 54.5 c 128,-1,68
 212 45 212 45 258 45 c 0,69,70
 355 45 355 45 396 83 c 0,71,72
 416 101 416 101 424 134 c 128,-1,73
 432 167 432 167 442 239 c 2,74,-1
 448 284 l 1,75,-1
 489 576 l 1,76,-1
 554 576 l 1,0,-1
EndSplineSet
EndChar

StartChar: uni0E23
Encoding: 3619 3619 470
Width: 508
GlyphClass: 2
Flags: W
AnchorPoint: "Anchor-12" 461 550 basechar 0
AnchorPoint: "Anchor-11" 353 0 basechar 0
LayerCount: 2
Fore
SplineSet
167.5 18 m 128,-1,1
 141 45 141 45 141 82 c 0,2,3
 141 127 141 127 171.5 156.5 c 128,-1,4
 202 186 202 186 248 186 c 0,5,6
 290 186 290 186 290 138 c 1,7,8
 266 142 266 142 250 142 c 0,9,10
 226 142 226 142 210 127.5 c 128,-1,11
 194 113 194 113 194 91 c 0,12,13
 194 68 194 68 205 55 c 128,-1,14
 216 42 216 42 238 42 c 0,15,16
 269 42 269 42 287 60.5 c 128,-1,17
 305 79 305 79 316 127 c 0,18,19
 329 186 329 186 329 232 c 0,20,21
 329 268 329 268 314 288 c 128,-1,22
 299 308 299 308 266 317 c 0,23,24
 226 328 226 328 190 331 c 128,-1,25
 154 334 154 334 72 334 c 1,26,27
 60 346 60 346 53 368.5 c 128,-1,28
 46 391 46 391 46 416 c 0,29,30
 46 466 46 466 69.5 504 c 128,-1,31
 93 542 93 542 131.5 562 c 128,-1,32
 170 582 170 582 214 582 c 0,33,34
 235 582 235 582 296 575 c 0,35,36
 344 569 344 569 362 569 c 0,37,38
 429 569 429 569 471 595 c 1,39,40
 481 577 481 577 481 561 c 0,41,42
 481 535 481 535 448.5 523 c 128,-1,43
 416 511 416 511 371 511 c 0,44,45
 349 511 349 511 297 519 c 0,46,47
 239 529 239 529 206 529 c 0,48,49
 160 529 160 529 136 501.5 c 128,-1,50
 112 474 112 474 112 423 c 0,51,52
 112 401 112 401 119 388 c 1,53,54
 216 388 216 388 290 370 c 0,55,56
 395 346 395 346 395 240 c 0,57,58
 395 192 395 192 381 127 c 0,59,60
 366 57 366 57 329.5 24 c 128,-1,61
 293 -9 293 -9 233 -9 c 0,62,0
 194 -9 194 -9 167.5 18 c 128,-1,1
EndSplineSet
EndChar

StartChar: uni0E24
Encoding: 3620 3620 471
Width: 615
GlyphClass: 2
Flags: W
AnchorPoint: "Anchor-12" 555 550 basechar 0
AnchorPoint: "Anchor-11" 447 -220 basechar 0
LayerCount: 2
Fore
SplineSet
466 378 m 2,0,1
 469 399 469 399 469 416 c 0,2,3
 469 475 469 475 428.5 505 c 128,-1,4
 388 535 388 535 314 535 c 0,5,6
 254 535 254 535 211 520.5 c 128,-1,7
 168 506 168 506 145.5 485 c 128,-1,8
 123 464 123 464 123 446 c 0,9,10
 123 423 123 423 143 405.5 c 128,-1,11
 163 388 163 388 183 388 c 0,12,13
 199 388 199 388 223 394 c 0,14,15
 241 398 241 398 248 398 c 256,16,17
 255 398 255 398 265.5 383 c 128,-1,18
 276 368 276 368 276 357 c 0,19,20
 276 349 276 349 270 349 c 0,21,22
 206 349 206 349 173.5 318 c 128,-1,23
 141 287 141 287 131 221 c 2,24,-1
 116 119 l 2,25,26
 115 111 115 111 115 97 c 0,27,28
 115 70 115 70 129 55.5 c 128,-1,29
 143 41 143 41 169 41 c 0,30,31
 194 41 194 41 207.5 54.5 c 128,-1,32
 221 68 221 68 221 93 c 0,33,34
 221 114 221 114 210.5 125.5 c 128,-1,35
 200 137 200 137 181 137 c 0,36,37
 160 137 160 137 142 131 c 1,38,39
 141 134 141 134 141 140 c 0,40,41
 141 156 141 156 154.5 167.5 c 128,-1,42
 168 179 168 179 193 179 c 0,43,44
 226 179 226 179 248.5 158 c 128,-1,45
 271 137 271 137 271 98 c 0,46,47
 271 50 271 50 241 21.5 c 128,-1,48
 211 -7 211 -7 162 -7 c 256,49,50
 113 -7 113 -7 81.5 21.5 c 128,-1,51
 50 50 50 50 50 96 c 0,52,53
 50 103 50 103 52 123 c 2,54,-1
 66 221 l 2,55,56
 72 267 72 267 88 298.5 c 128,-1,57
 104 330 104 330 131 352 c 1,58,59
 104 364 104 364 81.5 389 c 128,-1,60
 59 414 59 414 59 441 c 0,61,62
 59 474 59 474 90 507.5 c 128,-1,63
 121 541 121 541 178.5 563.5 c 128,-1,64
 236 586 236 586 311 586 c 0,65,66
 415 586 415 586 474.5 543.5 c 128,-1,67
 534 501 534 501 534 418 c 0,68,69
 534 401 534 401 531 383 c 2,70,-1
 447 -220 l 1,71,-1
 382 -220 l 1,72,-1
 466 378 l 2,0,1
EndSplineSet
Substitution2: "Single Substitution lookup 14 subtable" uni0E24.short
Substitution2: "'aalt' Access All Alternates lookup 0 subtable" uni0E24.short
EndChar

StartChar: uni0E24.short
Encoding: 65543 -1 472
Width: 614
GlyphClass: 2
Flags: W
AnchorPoint: "Anchor-12" 555 550 basechar 0
AnchorPoint: "Anchor-11" 455 -159 basechar 0
LayerCount: 2
Fore
SplineSet
466 378 m 2,0,1
 469 399 469 399 469 416 c 0,2,3
 469 475 469 475 428.5 505 c 128,-1,4
 388 535 388 535 314 535 c 0,5,6
 254 535 254 535 211 520.5 c 128,-1,7
 168 506 168 506 145.5 485 c 128,-1,8
 123 464 123 464 123 446 c 0,9,10
 123 423 123 423 143 405.5 c 128,-1,11
 163 388 163 388 183 388 c 0,12,13
 199 388 199 388 223 394 c 0,14,15
 241 398 241 398 248 398 c 256,16,17
 255 398 255 398 265.5 383 c 128,-1,18
 276 368 276 368 276 357 c 0,19,20
 276 349 276 349 270 349 c 0,21,22
 206 349 206 349 173.5 318 c 128,-1,23
 141 287 141 287 131 221 c 2,24,-1
 116 119 l 2,25,26
 115 111 115 111 115 97 c 0,27,28
 115 70 115 70 129 55.5 c 128,-1,29
 143 41 143 41 169 41 c 0,30,31
 194 41 194 41 207.5 54.5 c 128,-1,32
 221 68 221 68 221 93 c 0,33,34
 221 114 221 114 210.5 125.5 c 128,-1,35
 200 137 200 137 181 137 c 0,36,37
 160 137 160 137 142 131 c 1,38,39
 141 134 141 134 141 140 c 0,40,41
 141 156 141 156 154.5 167.5 c 128,-1,42
 168 179 168 179 193 179 c 0,43,44
 226 179 226 179 248.5 158 c 128,-1,45
 271 137 271 137 271 98 c 0,46,47
 271 50 271 50 241 21.5 c 128,-1,48
 211 -7 211 -7 162 -7 c 256,49,50
 113 -7 113 -7 81.5 21.5 c 128,-1,51
 50 50 50 50 50 96 c 0,52,53
 50 103 50 103 52 123 c 2,54,-1
 66 221 l 2,55,56
 72 267 72 267 88 298.5 c 128,-1,57
 104 330 104 330 131 352 c 1,58,59
 104 364 104 364 81.5 389 c 128,-1,60
 59 414 59 414 59 441 c 0,61,62
 59 474 59 474 90 507.5 c 128,-1,63
 121 541 121 541 178.5 563.5 c 128,-1,64
 236 586 236 586 311 586 c 0,65,66
 415 586 415 586 474.5 543.5 c 128,-1,67
 534 501 534 501 534 418 c 0,68,69
 534 401 534 401 531 383 c 2,70,-1
 455 -159 l 1,71,-1
 390 -159 l 1,72,-1
 466 378 l 2,0,1
EndSplineSet
EndChar

StartChar: uni0E25
Encoding: 3621 3621 473
Width: 618
GlyphClass: 2
Flags: W
AnchorPoint: "Anchor-12" 553 550 basechar 0
AnchorPoint: "Anchor-11" 476 0 basechar 0
LayerCount: 2
Fore
SplineSet
474.5 544 m 128,-1,1
 535 502 535 502 535 430 c 0,2,3
 535 405 535 405 528 367 c 128,-1,4
 521 329 521 329 506 260 c 0,5,6
 495 212 495 212 493 197 c 0,7,8
 488 159 488 159 484 85 c 0,9,10
 480 22 480 22 479 19 c 0,11,12
 476 0 476 0 463 0 c 2,13,-1
 406 0 l 1,14,15
 414 61 414 61 414 103 c 0,16,17
 414 210 414 210 374 262.5 c 128,-1,18
 334 315 334 315 260 315 c 0,19,20
 188 315 188 315 148 268.5 c 128,-1,21
 108 222 108 222 108 143 c 0,22,23
 108 93 108 93 125 66 c 128,-1,24
 142 39 142 39 169 39 c 0,25,26
 193 39 193 39 205.5 53 c 128,-1,27
 218 67 218 67 218 91 c 0,28,29
 218 107 218 107 208 116.5 c 128,-1,30
 198 126 198 126 179 126 c 0,31,32
 167 126 167 126 157 122.5 c 128,-1,33
 147 119 147 119 133 111 c 1,34,-1
 132 123 l 2,35,36
 132 141 132 141 149 153.5 c 128,-1,37
 166 166 166 166 190 166 c 0,38,39
 223 166 223 166 245 144.5 c 128,-1,40
 267 123 267 123 267 93 c 0,41,42
 267 49 267 49 241 20 c 128,-1,43
 215 -9 215 -9 170 -9 c 0,44,45
 117 -9 117 -9 82 27 c 128,-1,46
 47 63 47 63 47 136 c 0,47,48
 47 206 47 206 73.5 258.5 c 128,-1,49
 100 311 100 311 149 340 c 128,-1,50
 198 369 198 369 262 369 c 0,51,52
 325 369 325 369 372.5 338.5 c 128,-1,53
 420 308 420 308 441 260 c 1,54,55
 451 303 451 303 459 349 c 128,-1,56
 467 395 467 395 467 415 c 0,57,58
 467 471 467 471 429 501.5 c 128,-1,59
 391 532 391 532 322 532 c 0,60,61
 261 532 261 532 218 510.5 c 128,-1,62
 175 489 175 489 131 445 c 0,63,64
 125 439 125 439 115 439 c 0,65,66
 104 439 104 439 92.5 448.5 c 128,-1,67
 81 458 81 458 74 476 c 1,68,69
 116 523 116 523 177 554.5 c 128,-1,70
 238 586 238 586 321 586 c 0,71,0
 414 586 414 586 474.5 544 c 128,-1,1
EndSplineSet
EndChar

StartChar: uni0E26
Encoding: 3622 3622 474
Width: 630
GlyphClass: 2
Flags: W
AnchorPoint: "Anchor-12" 570 550 basechar 0
AnchorPoint: "Anchor-11" 462 -220 basechar 0
LayerCount: 2
Fore
SplineSet
479 366 m 2,0,1
 482 390 482 390 482 410 c 0,2,3
 482 481 482 481 443 508 c 128,-1,4
 404 535 404 535 332 535 c 0,5,6
 281 535 281 535 235.5 520 c 128,-1,7
 190 505 190 505 162.5 483.5 c 128,-1,8
 135 462 135 462 135 445 c 0,9,10
 135 433 135 433 146 420 c 128,-1,11
 157 407 157 407 171 398 c 128,-1,12
 185 389 185 389 191 389 c 0,13,14
 201 389 201 389 224 398 c 0,15,16
 228 399 228 399 240 403 c 128,-1,17
 252 407 252 407 259 407 c 0,18,19
 267 407 267 407 277 393.5 c 128,-1,20
 287 380 287 380 287 370 c 0,21,22
 287 361 287 361 281 361 c 0,23,24
 232 361 232 361 196.5 331 c 128,-1,25
 161 301 161 301 161 247 c 2,26,-1
 163 185 l 1,27,-1
 165 110 l 2,28,29
 165 51 165 51 132.5 21.5 c 128,-1,30
 100 -8 100 -8 49 -8 c 0,31,32
 13 -8 13 -8 -9 14 c 128,-1,33
 -31 36 -31 36 -31 70 c 0,34,35
 -31 111 -31 111 -5 132.5 c 128,-1,36
 21 154 21 154 53 154 c 0,37,38
 70 154 70 154 79 144.5 c 128,-1,39
 88 135 88 135 86 120 c 1,40,-1
 67 120 l 2,41,42
 44 120 44 120 30 108.5 c 128,-1,43
 16 97 16 97 16 78 c 0,44,45
 16 38 16 38 55 38 c 0,46,47
 85 38 85 38 97 61 c 128,-1,48
 109 84 109 84 109 124 c 0,49,50
 109 139 109 139 107 175 c 0,51,52
 105 213 105 213 105 231 c 0,53,54
 105 314 105 314 149 351 c 1,55,56
 118 361 118 361 93 387.5 c 128,-1,57
 68 414 68 414 68 445 c 0,58,59
 68 473 68 473 101 506.5 c 128,-1,60
 134 540 134 540 193.5 563 c 128,-1,61
 253 586 253 586 329 586 c 0,62,63
 423 586 423 586 485 544.5 c 128,-1,64
 547 503 547 503 547 411 c 0,65,66
 547 390 547 390 544 366 c 2,67,-1
 462 -220 l 1,68,-1
 397 -220 l 1,69,-1
 479 366 l 2,0,1
EndSplineSet
Substitution2: "Single Substitution lookup 14 subtable" uni0E26.short
Substitution2: "'aalt' Access All Alternates lookup 0 subtable" uni0E26.short
EndChar

StartChar: uni0E26.short
Encoding: 65544 -1 475
Width: 629
GlyphClass: 2
Flags: W
AnchorPoint: "Anchor-12" 570 550 basechar 0
AnchorPoint: "Anchor-11" 470 -160 basechar 0
LayerCount: 2
Fore
SplineSet
479 366 m 2,0,1
 482 390 482 390 482 410 c 0,2,3
 482 481 482 481 443 508 c 128,-1,4
 404 535 404 535 332 535 c 0,5,6
 281 535 281 535 235.5 520 c 128,-1,7
 190 505 190 505 162.5 483.5 c 128,-1,8
 135 462 135 462 135 445 c 0,9,10
 135 433 135 433 146 420 c 128,-1,11
 157 407 157 407 171 398 c 128,-1,12
 185 389 185 389 191 389 c 0,13,14
 201 389 201 389 224 398 c 0,15,16
 228 399 228 399 240 403 c 128,-1,17
 252 407 252 407 259 407 c 0,18,19
 267 407 267 407 277 393.5 c 128,-1,20
 287 380 287 380 287 370 c 0,21,22
 287 361 287 361 281 361 c 0,23,24
 232 361 232 361 196.5 331 c 128,-1,25
 161 301 161 301 161 247 c 2,26,-1
 163 185 l 1,27,-1
 165 110 l 2,28,29
 165 51 165 51 132.5 21.5 c 128,-1,30
 100 -8 100 -8 49 -8 c 0,31,32
 13 -8 13 -8 -9 14 c 128,-1,33
 -31 36 -31 36 -31 70 c 0,34,35
 -31 111 -31 111 -5 132.5 c 128,-1,36
 21 154 21 154 53 154 c 0,37,38
 70 154 70 154 79 144.5 c 128,-1,39
 88 135 88 135 86 120 c 1,40,-1
 67 120 l 2,41,42
 44 120 44 120 30 108.5 c 128,-1,43
 16 97 16 97 16 78 c 0,44,45
 16 38 16 38 55 38 c 0,46,47
 85 38 85 38 97 61 c 128,-1,48
 109 84 109 84 109 124 c 0,49,50
 109 139 109 139 107 175 c 0,51,52
 105 213 105 213 105 231 c 0,53,54
 105 314 105 314 149 351 c 1,55,56
 118 361 118 361 93 387.5 c 128,-1,57
 68 414 68 414 68 445 c 0,58,59
 68 473 68 473 101 506.5 c 128,-1,60
 134 540 134 540 193.5 563 c 128,-1,61
 253 586 253 586 329 586 c 0,62,63
 423 586 423 586 485 544.5 c 128,-1,64
 547 503 547 503 547 411 c 0,65,66
 547 390 547 390 544 366 c 2,67,-1
 470 -160 l 1,68,-1
 405 -160 l 1,69,-1
 479 366 l 2,0,1
EndSplineSet
EndChar

StartChar: uni0E27
Encoding: 3623 3623 476
Width: 528
GlyphClass: 2
Flags: W
AnchorPoint: "Anchor-12" 468 550 basechar 0
AnchorPoint: "Anchor-11" 391 0 basechar 0
LayerCount: 2
Fore
SplineSet
199 15 m 128,-1,1
 171 40 171 40 171 82 c 0,2,3
 171 127 171 127 200 152.5 c 128,-1,4
 229 178 229 178 271 178 c 0,5,6
 296 178 296 178 309 167 c 128,-1,7
 322 156 322 156 322 140 c 0,8,9
 322 134 322 134 319 129 c 1,10,11
 302 136 302 136 275 136 c 0,12,13
 253 136 253 136 239 122.5 c 128,-1,14
 225 109 225 109 225 85 c 0,15,16
 225 63 225 63 237.5 51.5 c 128,-1,17
 250 40 250 40 272 40 c 0,18,19
 305 40 305 40 323 60 c 128,-1,20
 341 80 341 80 347 122 c 2,21,-1
 384 386 l 2,22,23
 386 397 386 397 386 423 c 0,24,25
 386 476 386 476 354.5 505 c 128,-1,26
 323 534 323 534 261 534 c 0,27,28
 202 534 202 534 162.5 510.5 c 128,-1,29
 123 487 123 487 91 439 c 0,30,31
 88 435 88 435 80 435 c 0,32,33
 70 435 70 435 57 443.5 c 128,-1,34
 44 452 44 452 37 465 c 1,35,36
 71 516 71 516 126.5 551 c 128,-1,37
 182 586 182 586 260 586 c 0,38,39
 345 586 345 586 396 543 c 128,-1,40
 447 500 447 500 447 422 c 0,41,42
 447 403 447 403 444 380 c 2,43,-1
 407 118 l 2,44,45
 398 55 398 55 363.5 22.5 c 128,-1,46
 329 -10 329 -10 272 -10 c 0,47,0
 227 -10 227 -10 199 15 c 128,-1,1
EndSplineSet
EndChar

StartChar: uni0E28
Encoding: 3624 3624 477
Width: 609
GlyphClass: 2
Flags: W
AnchorPoint: "Anchor-12" 564 550 basechar 0
AnchorPoint: "Anchor-11" 487 0 basechar 0
LayerCount: 2
Fore
SplineSet
586.5 535.5 m 128,-1,1
 556 517 556 517 512 511 c 1,2,3
 540 468 540 468 540 406 c 0,4,5
 540 384 540 384 537 360 c 2,6,-1
 487 0 l 1,7,-1
 422 0 l 1,8,-1
 472 355 l 2,9,10
 475 378 475 378 475 398 c 0,11,12
 475 534 475 534 332 534 c 0,13,14
 231 534 231 534 179 474 c 128,-1,15
 127 414 127 414 127 310 c 0,16,17
 127 278 127 278 133 252 c 1,18,19
 167 312 167 312 213.5 347.5 c 128,-1,20
 260 383 260 383 317 383 c 0,21,22
 354 383 354 383 378.5 361.5 c 128,-1,23
 403 340 403 340 403 303 c 0,24,25
 403 254 403 254 372 225 c 128,-1,26
 341 196 341 196 295 196 c 0,27,28
 270 196 270 196 252.5 208.5 c 128,-1,29
 235 221 235 221 235 241 c 0,30,31
 235 265 235 265 252 273 c 1,32,33
 260 256 260 256 271.5 248 c 128,-1,34
 283 240 283 240 301 240 c 0,35,36
 326 240 326 240 340 255.5 c 128,-1,37
 354 271 354 271 354 297 c 0,38,39
 354 315 354 315 342 325 c 128,-1,40
 330 335 330 335 308 335 c 0,41,42
 265 335 265 335 225 292.5 c 128,-1,43
 185 250 185 250 154 174 c 128,-1,44
 123 98 123 98 107 0 c 1,45,-1
 56 0 l 2,46,47
 40 0 40 0 44 20 c 0,48,49
 48 51 48 51 61.5 89 c 128,-1,50
 75 127 75 127 77 133 c 0,51,52
 90 166 90 166 90 173 c 0,53,54
 90 178 90 178 83 199 c 0,55,56
 61 255 61 255 61 309 c 0,57,58
 61 391 61 391 93.5 453.5 c 128,-1,59
 126 516 126 516 188 551 c 128,-1,60
 250 586 250 586 334 586 c 0,61,62
 417 586 417 586 469 553 c 1,63,64
 551 564 551 564 575 621 c 1,65,66
 593 620 593 620 605 609.5 c 128,-1,67
 617 599 617 599 617 583 c 0,68,0
 617 554 617 554 586.5 535.5 c 128,-1,1
EndSplineSet
EndChar

StartChar: uni0E29
Encoding: 3625 3625 478
Width: 665
GlyphClass: 2
Flags: W
AnchorPoint: "Anchor-12" 605 550 basechar 0
AnchorPoint: "Anchor-11" 528 0 basechar 0
LayerCount: 2
Fore
SplineSet
609 576 m 1,0,-1
 554 190 l 2,1,2
 546 132 546 132 535.5 102 c 128,-1,3
 525 72 525 72 503 50 c 0,4,5
 441 -9 441 -9 310 -9 c 0,6,7
 169 -9 169 -9 129 50 c 0,8,9
 113 73 113 73 113 121 c 0,10,11
 113 148 113 148 118 190 c 2,12,-1
 159 474 l 2,13,14
 161 490 161 490 161 496 c 0,15,16
 161 515 161 515 151 526.5 c 128,-1,17
 141 538 141 538 121 538 c 0,18,19
 96 538 96 538 82.5 522.5 c 128,-1,20
 69 507 69 507 69 481 c 0,21,22
 69 463 69 463 81.5 452.5 c 128,-1,23
 94 442 94 442 113 442 c 2,24,-1
 137 442 l 1,25,26
 137 423 137 423 124.5 412.5 c 128,-1,27
 112 402 112 402 90 402 c 0,28,29
 63 402 63 402 42 424.5 c 128,-1,30
 21 447 21 447 21 481 c 0,31,32
 21 526 21 526 52.5 556 c 128,-1,33
 84 586 84 586 132 586 c 0,34,35
 174 586 174 586 200 563.5 c 128,-1,36
 226 541 226 541 226 499 c 0,37,38
 226 494 226 494 224 476 c 2,39,-1
 182 183 l 2,40,41
 178 145 178 145 178 130 c 0,42,43
 178 94 178 94 188 81 c 0,44,45
 219 43 219 43 318 43 c 0,46,47
 418 43 418 43 457 81 c 0,48,49
 470 93 470 93 475 111 c 128,-1,50
 480 129 480 129 486 166 c 2,51,-1
 496 237 l 1,52,53
 478 216 478 216 447 201 c 128,-1,54
 416 186 416 186 379 186 c 0,55,56
 331 186 331 186 299 211 c 128,-1,57
 267 236 267 236 267 280 c 0,58,59
 267 320 267 320 295 344.5 c 128,-1,60
 323 369 323 369 360 369 c 0,61,62
 388 369 388 369 406 354 c 128,-1,63
 424 339 424 339 424 311 c 0,64,65
 424 285 424 285 410.5 270.5 c 128,-1,66
 397 256 397 256 377 256 c 0,67,68
 371 256 371 256 363 260 c 1,69,70
 382 277 382 277 382 299 c 0,71,72
 382 312 382 312 375 319.5 c 128,-1,73
 368 327 368 327 356 327 c 0,74,75
 338 327 338 327 326 315.5 c 128,-1,76
 314 304 314 304 314 284 c 0,77,78
 314 259 314 259 334.5 245.5 c 128,-1,79
 355 232 355 232 390 232 c 0,80,81
 496 232 496 232 512 350 c 2,82,-1
 544 576 l 1,83,-1
 609 576 l 1,0,-1
EndSplineSet
EndChar

